<?xml version="1.0" encoding="UTF-8"?>
<svg xmlns="http://www.w3.org/2000/svg" xmlns:xlink="http://www.w3.org/1999/xlink" width="720" height="360" viewBox="0 0 720 360">
<defs>
<clipPath id="clip-0">
<path clip-rule="nonzero" d="M 70.042969 278 L 707.546875 278 L 707.546875 282 L 70.042969 282 Z M 70.042969 278 "/>
</clipPath>
<clipPath id="clip-1">
<path clip-rule="nonzero" d="M 70.042969 220 L 707.546875 220 L 707.546875 223 L 70.042969 223 Z M 70.042969 220 "/>
</clipPath>
<clipPath id="clip-2">
<path clip-rule="nonzero" d="M 70.042969 161 L 707.546875 161 L 707.546875 164 L 70.042969 164 Z M 70.042969 161 "/>
</clipPath>
<clipPath id="clip-3">
<path clip-rule="nonzero" d="M 70.042969 102 L 707.546875 102 L 707.546875 105 L 70.042969 105 Z M 70.042969 102 "/>
</clipPath>
<clipPath id="clip-4">
<path clip-rule="nonzero" d="M 70.042969 43 L 707.546875 43 L 707.546875 46 L 70.042969 46 Z M 70.042969 43 "/>
</clipPath>
<clipPath id="clip-5">
<path clip-rule="nonzero" d="M 214 12.453125 L 218 12.453125 L 218 295.535156 L 214 295.535156 Z M 214 12.453125 "/>
</clipPath>
<clipPath id="clip-6">
<path clip-rule="nonzero" d="M 360 12.453125 L 364 12.453125 L 364 295.535156 L 360 295.535156 Z M 360 12.453125 "/>
</clipPath>
<clipPath id="clip-7">
<path clip-rule="nonzero" d="M 506 12.453125 L 510 12.453125 L 510 295.535156 L 506 295.535156 Z M 506 12.453125 "/>
</clipPath>
<clipPath id="clip-8">
<path clip-rule="nonzero" d="M 652 12.453125 L 656 12.453125 L 656 295.535156 L 652 295.535156 Z M 652 12.453125 "/>
</clipPath>
</defs>
<rect x="-72" y="-36" width="864" height="432" fill="rgb(100%, 100%, 100%)" fill-opacity="1"/>
<g clip-path="url(#clip-0)">
<path fill="none" stroke-width="2.424951" stroke-linecap="butt" stroke-linejoin="round" stroke="rgb(92.156863%, 92.156863%, 92.156863%)" stroke-opacity="1" stroke-miterlimit="10" d="M 70.042969 280.175781 L 707.546875 280.175781 "/>
</g>
<g clip-path="url(#clip-1)">
<path fill="none" stroke-width="2.424951" stroke-linecap="butt" stroke-linejoin="round" stroke="rgb(92.156863%, 92.156863%, 92.156863%)" stroke-opacity="1" stroke-miterlimit="10" d="M 70.042969 221.210938 L 707.546875 221.210938 "/>
</g>
<g clip-path="url(#clip-2)">
<path fill="none" stroke-width="2.424951" stroke-linecap="butt" stroke-linejoin="round" stroke="rgb(92.156863%, 92.156863%, 92.156863%)" stroke-opacity="1" stroke-miterlimit="10" d="M 70.042969 162.25 L 707.546875 162.25 "/>
</g>
<g clip-path="url(#clip-3)">
<path fill="none" stroke-width="2.424951" stroke-linecap="butt" stroke-linejoin="round" stroke="rgb(92.156863%, 92.156863%, 92.156863%)" stroke-opacity="1" stroke-miterlimit="10" d="M 70.042969 103.289062 L 707.546875 103.289062 "/>
</g>
<g clip-path="url(#clip-4)">
<path fill="none" stroke-width="2.424951" stroke-linecap="butt" stroke-linejoin="round" stroke="rgb(92.156863%, 92.156863%, 92.156863%)" stroke-opacity="1" stroke-miterlimit="10" d="M 70.042969 44.324219 L 707.546875 44.324219 "/>
</g>
<g clip-path="url(#clip-5)">
<path fill="none" stroke-width="2.424951" stroke-linecap="butt" stroke-linejoin="round" stroke="rgb(92.156863%, 92.156863%, 92.156863%)" stroke-opacity="1" stroke-miterlimit="10" d="M 215.824219 295.535156 L 215.824219 12.453125 "/>
</g>
<g clip-path="url(#clip-6)">
<path fill="none" stroke-width="2.424951" stroke-linecap="butt" stroke-linejoin="round" stroke="rgb(92.156863%, 92.156863%, 92.156863%)" stroke-opacity="1" stroke-miterlimit="10" d="M 361.902344 295.535156 L 361.902344 12.453125 "/>
</g>
<g clip-path="url(#clip-7)">
<path fill="none" stroke-width="2.424951" stroke-linecap="butt" stroke-linejoin="round" stroke="rgb(92.156863%, 92.156863%, 92.156863%)" stroke-opacity="1" stroke-miterlimit="10" d="M 507.984375 295.535156 L 507.984375 12.453125 "/>
</g>
<g clip-path="url(#clip-8)">
<path fill="none" stroke-width="2.424951" stroke-linecap="butt" stroke-linejoin="round" stroke="rgb(92.156863%, 92.156863%, 92.156863%)" stroke-opacity="1" stroke-miterlimit="10" d="M 654.0625 295.535156 L 654.0625 12.453125 "/>
</g>
<path fill-rule="nonzero" fill="rgb(0%, 0%, 0%)" fill-opacity="1" stroke-width="0.708661" stroke-linecap="round" stroke-linejoin="round" stroke="rgb(0%, 0%, 0%)" stroke-opacity="1" stroke-miterlimit="10" d="M 440.394531 170.347656 C 440.394531 172.953125 436.488281 172.953125 436.488281 170.347656 C 436.488281 167.738281 440.394531 167.738281 440.394531 170.347656 "/>
<path fill-rule="nonzero" fill="rgb(0%, 0%, 0%)" fill-opacity="1" stroke-width="0.708661" stroke-linecap="round" stroke-linejoin="round" stroke="rgb(0%, 0%, 0%)" stroke-opacity="1" stroke-miterlimit="10" d="M 304.316406 131.316406 C 304.316406 133.925781 300.40625 133.925781 300.40625 131.316406 C 300.40625 128.710938 304.316406 128.710938 304.316406 131.316406 "/>
<path fill-rule="nonzero" fill="rgb(0%, 0%, 0%)" fill-opacity="1" stroke-width="0.708661" stroke-linecap="round" stroke-linejoin="round" stroke="rgb(0%, 0%, 0%)" stroke-opacity="1" stroke-miterlimit="10" d="M 327.53125 152.695312 C 327.53125 155.300781 323.621094 155.300781 323.621094 152.695312 C 323.621094 150.089844 327.53125 150.089844 327.53125 152.695312 "/>
<path fill-rule="nonzero" fill="rgb(0%, 0%, 0%)" fill-opacity="1" stroke-width="0.708661" stroke-linecap="round" stroke-linejoin="round" stroke="rgb(0%, 0%, 0%)" stroke-opacity="1" stroke-miterlimit="10" d="M 367.78125 226.066406 C 367.78125 228.675781 363.871094 228.675781 363.871094 226.066406 C 363.871094 223.460938 367.78125 223.460938 367.78125 226.066406 "/>
<path fill-rule="nonzero" fill="rgb(0%, 0%, 0%)" fill-opacity="1" stroke-width="0.708661" stroke-linecap="round" stroke-linejoin="round" stroke="rgb(0%, 0%, 0%)" stroke-opacity="1" stroke-miterlimit="10" d="M 416.199219 119.746094 C 416.199219 122.351562 412.292969 122.351562 412.292969 119.746094 C 412.292969 117.136719 416.199219 117.136719 416.199219 119.746094 "/>
<path fill-rule="nonzero" fill="rgb(0%, 0%, 0%)" fill-opacity="1" stroke-width="0.708661" stroke-linecap="round" stroke-linejoin="round" stroke="rgb(0%, 0%, 0%)" stroke-opacity="1" stroke-miterlimit="10" d="M 431.28125 119.980469 C 431.28125 122.585938 427.371094 122.585938 427.371094 119.980469 C 427.371094 117.371094 431.28125 117.371094 431.28125 119.980469 "/>
<path fill-rule="nonzero" fill="rgb(0%, 0%, 0%)" fill-opacity="1" stroke-width="0.708661" stroke-linecap="round" stroke-linejoin="round" stroke="rgb(0%, 0%, 0%)" stroke-opacity="1" stroke-miterlimit="10" d="M 496.53125 132.796875 C 496.53125 135.402344 492.621094 135.402344 492.621094 132.796875 C 492.621094 130.191406 496.53125 130.191406 496.53125 132.796875 "/>
<path fill-rule="nonzero" fill="rgb(0%, 0%, 0%)" fill-opacity="1" stroke-width="0.708661" stroke-linecap="round" stroke-linejoin="round" stroke="rgb(0%, 0%, 0%)" stroke-opacity="1" stroke-miterlimit="10" d="M 290.03125 43.578125 C 290.03125 46.183594 286.121094 46.183594 286.121094 43.578125 C 286.121094 40.96875 290.03125 40.96875 290.03125 43.578125 "/>
<path fill-rule="nonzero" fill="rgb(0%, 0%, 0%)" fill-opacity="1" stroke-width="0.708661" stroke-linecap="round" stroke-linejoin="round" stroke="rgb(0%, 0%, 0%)" stroke-opacity="1" stroke-miterlimit="10" d="M 479.257812 117.496094 C 479.257812 120.101562 475.347656 120.101562 475.347656 117.496094 C 475.347656 114.886719 479.257812 114.886719 479.257812 117.496094 "/>
<path fill-rule="nonzero" fill="rgb(0%, 0%, 0%)" fill-opacity="1" stroke-width="0.708661" stroke-linecap="round" stroke-linejoin="round" stroke="rgb(0%, 0%, 0%)" stroke-opacity="1" stroke-miterlimit="10" d="M 314.398438 172.28125 C 314.398438 174.890625 310.488281 174.890625 310.488281 172.28125 C 310.488281 169.675781 314.398438 169.675781 314.398438 172.28125 "/>
<path fill-rule="nonzero" fill="rgb(0%, 0%, 0%)" fill-opacity="1" stroke-width="0.708661" stroke-linecap="round" stroke-linejoin="round" stroke="rgb(0%, 0%, 0%)" stroke-opacity="1" stroke-miterlimit="10" d="M 371.800781 236.273438 C 371.800781 238.878906 367.890625 238.878906 367.890625 236.273438 C 367.890625 233.667969 371.800781 233.667969 371.800781 236.273438 "/>
<path fill-rule="nonzero" fill="rgb(0%, 0%, 0%)" fill-opacity="1" stroke-width="0.708661" stroke-linecap="round" stroke-linejoin="round" stroke="rgb(0%, 0%, 0%)" stroke-opacity="1" stroke-miterlimit="10" d="M 303.65625 178.726562 C 303.65625 181.332031 299.746094 181.332031 299.746094 178.726562 C 299.746094 176.121094 303.65625 176.121094 303.65625 178.726562 "/>
<path fill-rule="nonzero" fill="rgb(0%, 0%, 0%)" fill-opacity="1" stroke-width="0.708661" stroke-linecap="round" stroke-linejoin="round" stroke="rgb(0%, 0%, 0%)" stroke-opacity="1" stroke-miterlimit="10" d="M 294.90625 220.417969 C 294.90625 223.027344 290.996094 223.027344 290.996094 220.417969 C 290.996094 217.8125 294.90625 217.8125 294.90625 220.417969 "/>
<path fill-rule="nonzero" fill="rgb(0%, 0%, 0%)" fill-opacity="1" stroke-width="0.708661" stroke-linecap="round" stroke-linejoin="round" stroke="rgb(0%, 0%, 0%)" stroke-opacity="1" stroke-miterlimit="10" d="M 395.570312 52.433594 C 395.570312 55.039062 391.664062 55.039062 391.664062 52.433594 C 391.664062 49.828125 395.570312 49.828125 395.570312 52.433594 "/>
<path fill-rule="nonzero" fill="rgb(0%, 0%, 0%)" fill-opacity="1" stroke-width="0.708661" stroke-linecap="round" stroke-linejoin="round" stroke="rgb(0%, 0%, 0%)" stroke-opacity="1" stroke-miterlimit="10" d="M 508.589844 107.878906 C 508.589844 110.484375 504.679688 110.484375 504.679688 107.878906 C 504.679688 105.273438 508.589844 105.273438 508.589844 107.878906 "/>
<path fill-rule="nonzero" fill="rgb(0%, 0%, 0%)" fill-opacity="1" stroke-width="0.708661" stroke-linecap="round" stroke-linejoin="round" stroke="rgb(0%, 0%, 0%)" stroke-opacity="1" stroke-miterlimit="10" d="M 473.253906 68.394531 C 473.253906 71 469.34375 71 469.34375 68.394531 C 469.34375 65.789062 473.253906 65.789062 473.253906 68.394531 "/>
<path fill-rule="nonzero" fill="rgb(0%, 0%, 0%)" fill-opacity="1" stroke-width="0.708661" stroke-linecap="round" stroke-linejoin="round" stroke="rgb(0%, 0%, 0%)" stroke-opacity="1" stroke-miterlimit="10" d="M 233.085938 208.699219 C 233.085938 211.304688 229.175781 211.304688 229.175781 208.699219 C 229.175781 206.09375 233.085938 206.09375 233.085938 208.699219 "/>
<path fill-rule="nonzero" fill="rgb(0%, 0%, 0%)" fill-opacity="1" stroke-width="0.708661" stroke-linecap="round" stroke-linejoin="round" stroke="rgb(0%, 0%, 0%)" stroke-opacity="1" stroke-miterlimit="10" d="M 174.917969 234.808594 C 174.917969 237.414062 171.007812 237.414062 171.007812 234.808594 C 171.007812 232.203125 174.917969 232.203125 174.917969 234.808594 "/>
<path fill-rule="nonzero" fill="rgb(0%, 0%, 0%)" fill-opacity="1" stroke-width="0.708661" stroke-linecap="round" stroke-linejoin="round" stroke="rgb(0%, 0%, 0%)" stroke-opacity="1" stroke-miterlimit="10" d="M 122.152344 194.03125 C 122.152344 196.636719 118.242188 196.636719 118.242188 194.03125 C 118.242188 191.425781 122.152344 191.425781 122.152344 194.03125 "/>
<path fill-rule="nonzero" fill="rgb(0%, 0%, 0%)" fill-opacity="1" stroke-width="0.708661" stroke-linecap="round" stroke-linejoin="round" stroke="rgb(0%, 0%, 0%)" stroke-opacity="1" stroke-miterlimit="10" d="M 100.976562 77.515625 C 100.976562 80.125 97.066406 80.125 97.066406 77.515625 C 97.066406 74.910156 100.976562 74.910156 100.976562 77.515625 "/>
<path fill-rule="nonzero" fill="rgb(0%, 0%, 0%)" fill-opacity="1" stroke-width="0.708661" stroke-linecap="round" stroke-linejoin="round" stroke="rgb(0%, 0%, 0%)" stroke-opacity="1" stroke-miterlimit="10" d="M 200.324219 211.15625 C 200.324219 213.765625 196.414062 213.765625 196.414062 211.15625 C 196.414062 208.550781 200.324219 208.550781 200.324219 211.15625 "/>
<path fill-rule="nonzero" fill="rgb(0%, 0%, 0%)" fill-opacity="1" stroke-width="0.708661" stroke-linecap="round" stroke-linejoin="round" stroke="rgb(0%, 0%, 0%)" stroke-opacity="1" stroke-miterlimit="10" d="M 132.234375 282.667969 C 132.234375 285.277344 128.328125 285.277344 128.328125 282.667969 C 128.328125 280.0625 132.234375 280.0625 132.234375 282.667969 "/>
<path fill-rule="nonzero" fill="rgb(0%, 0%, 0%)" fill-opacity="1" stroke-width="0.708661" stroke-linecap="round" stroke-linejoin="round" stroke="rgb(0%, 0%, 0%)" stroke-opacity="1" stroke-miterlimit="10" d="M 125.632812 198.871094 C 125.632812 201.476562 121.722656 201.476562 121.722656 198.871094 C 121.722656 196.265625 125.632812 196.265625 125.632812 198.871094 "/>
<path fill-rule="nonzero" fill="rgb(0%, 0%, 0%)" fill-opacity="1" stroke-width="0.708661" stroke-linecap="round" stroke-linejoin="round" stroke="rgb(0%, 0%, 0%)" stroke-opacity="1" stroke-miterlimit="10" d="M 169.722656 208.292969 C 169.722656 210.898438 165.8125 210.898438 165.8125 208.292969 C 165.8125 205.6875 169.722656 205.6875 169.722656 208.292969 "/>
<path fill-rule="nonzero" fill="rgb(0%, 0%, 0%)" fill-opacity="1" stroke-width="0.708661" stroke-linecap="round" stroke-linejoin="round" stroke="rgb(0%, 0%, 0%)" stroke-opacity="1" stroke-miterlimit="10" d="M 249.011719 262.152344 C 249.011719 264.757812 245.101562 264.757812 245.101562 262.152344 C 245.101562 259.546875 249.011719 259.546875 249.011719 262.152344 "/>
<path fill-rule="nonzero" fill="rgb(0%, 0%, 0%)" fill-opacity="1" stroke-width="0.708661" stroke-linecap="round" stroke-linejoin="round" stroke="rgb(0%, 0%, 0%)" stroke-opacity="1" stroke-miterlimit="10" d="M 376.609375 230.382812 C 376.609375 232.988281 372.699219 232.988281 372.699219 230.382812 C 372.699219 227.777344 376.609375 227.777344 376.609375 230.382812 "/>
<path fill-rule="nonzero" fill="rgb(0%, 0%, 0%)" fill-opacity="1" stroke-width="0.708661" stroke-linecap="round" stroke-linejoin="round" stroke="rgb(0%, 0%, 0%)" stroke-opacity="1" stroke-miterlimit="10" d="M 163.503906 203.875 C 163.503906 206.480469 159.59375 206.480469 159.59375 203.875 C 159.59375 201.269531 163.503906 201.269531 163.503906 203.875 "/>
<path fill-rule="nonzero" fill="rgb(0%, 0%, 0%)" fill-opacity="1" stroke-width="0.708661" stroke-linecap="round" stroke-linejoin="round" stroke="rgb(0%, 0%, 0%)" stroke-opacity="1" stroke-miterlimit="10" d="M 575.140625 113.683594 C 575.140625 116.289062 571.230469 116.289062 571.230469 113.683594 C 571.230469 111.078125 575.140625 111.078125 575.140625 113.683594 "/>
<path fill-rule="nonzero" fill="rgb(0%, 0%, 0%)" fill-opacity="1" stroke-width="0.708661" stroke-linecap="round" stroke-linejoin="round" stroke="rgb(0%, 0%, 0%)" stroke-opacity="1" stroke-miterlimit="10" d="M 204.027344 199.453125 C 204.027344 202.058594 200.117188 202.058594 200.117188 199.453125 C 200.117188 196.84375 204.027344 196.84375 204.027344 199.453125 "/>
<path fill-rule="nonzero" fill="rgb(0%, 0%, 0%)" fill-opacity="1" stroke-width="0.708661" stroke-linecap="round" stroke-linejoin="round" stroke="rgb(0%, 0%, 0%)" stroke-opacity="1" stroke-miterlimit="10" d="M 513.976562 116.867188 C 513.976562 119.472656 510.070312 119.472656 510.070312 116.867188 C 510.070312 114.257812 513.976562 114.257812 513.976562 116.867188 "/>
<path fill-rule="nonzero" fill="rgb(0%, 0%, 0%)" fill-opacity="1" stroke-width="0.708661" stroke-linecap="round" stroke-linejoin="round" stroke="rgb(0%, 0%, 0%)" stroke-opacity="1" stroke-miterlimit="10" d="M 288.324219 139.828125 C 288.324219 142.4375 284.414062 142.4375 284.414062 139.828125 C 284.414062 137.222656 288.324219 137.222656 288.324219 139.828125 "/>
<path fill-rule="nonzero" fill="rgb(0%, 0%, 0%)" fill-opacity="1" stroke-width="0.708661" stroke-linecap="round" stroke-linejoin="round" stroke="rgb(0%, 0%, 0%)" stroke-opacity="1" stroke-miterlimit="10" d="M 283.1875 198.039062 C 283.1875 200.644531 279.277344 200.644531 279.277344 198.039062 C 279.277344 195.429688 283.1875 195.429688 283.1875 198.039062 "/>
<path fill-rule="nonzero" fill="rgb(0%, 0%, 0%)" fill-opacity="1" stroke-width="0.708661" stroke-linecap="round" stroke-linejoin="round" stroke="rgb(0%, 0%, 0%)" stroke-opacity="1" stroke-miterlimit="10" d="M 150.089844 277.496094 C 150.089844 280.101562 146.179688 280.101562 146.179688 277.496094 C 146.179688 274.886719 150.089844 274.886719 150.089844 277.496094 "/>
<path fill-rule="nonzero" fill="rgb(0%, 0%, 0%)" fill-opacity="1" stroke-width="0.708661" stroke-linecap="round" stroke-linejoin="round" stroke="rgb(0%, 0%, 0%)" stroke-opacity="1" stroke-miterlimit="10" d="M 158.34375 233.371094 C 158.34375 235.976562 154.433594 235.976562 154.433594 233.371094 C 154.433594 230.765625 158.34375 230.765625 158.34375 233.371094 "/>
<path fill-rule="nonzero" fill="rgb(0%, 0%, 0%)" fill-opacity="1" stroke-width="0.708661" stroke-linecap="round" stroke-linejoin="round" stroke="rgb(0%, 0%, 0%)" stroke-opacity="1" stroke-miterlimit="10" d="M 268.683594 155.75 C 268.683594 158.355469 264.773438 158.355469 264.773438 155.75 C 264.773438 153.140625 268.683594 153.140625 268.683594 155.75 "/>
<path fill-rule="nonzero" fill="rgb(0%, 0%, 0%)" fill-opacity="1" stroke-width="0.708661" stroke-linecap="round" stroke-linejoin="round" stroke="rgb(0%, 0%, 0%)" stroke-opacity="1" stroke-miterlimit="10" d="M 402.832031 246.328125 C 402.832031 248.9375 398.921875 248.9375 398.921875 246.328125 C 398.921875 243.722656 402.832031 243.722656 402.832031 246.328125 "/>
<path fill-rule="nonzero" fill="rgb(0%, 0%, 0%)" fill-opacity="1" stroke-width="0.708661" stroke-linecap="round" stroke-linejoin="round" stroke="rgb(0%, 0%, 0%)" stroke-opacity="1" stroke-miterlimit="10" d="M 475.300781 163.113281 C 475.300781 165.71875 471.390625 165.71875 471.390625 163.113281 C 471.390625 160.507812 475.300781 160.507812 475.300781 163.113281 "/>
<path fill-rule="nonzero" fill="rgb(0%, 0%, 0%)" fill-opacity="1" stroke-width="0.708661" stroke-linecap="round" stroke-linejoin="round" stroke="rgb(0%, 0%, 0%)" stroke-opacity="1" stroke-miterlimit="10" d="M 300.992188 112.796875 C 300.992188 115.40625 297.082031 115.40625 297.082031 112.796875 C 297.082031 110.191406 300.992188 110.191406 300.992188 112.796875 "/>
<path fill-rule="nonzero" fill="rgb(0%, 0%, 0%)" fill-opacity="1" stroke-width="0.708661" stroke-linecap="round" stroke-linejoin="round" stroke="rgb(0%, 0%, 0%)" stroke-opacity="1" stroke-miterlimit="10" d="M 441.84375 230.273438 C 441.84375 232.878906 437.933594 232.878906 437.933594 230.273438 C 437.933594 227.667969 441.84375 227.667969 441.84375 230.273438 "/>
<path fill-rule="nonzero" fill="rgb(0%, 0%, 0%)" fill-opacity="1" stroke-width="0.708661" stroke-linecap="round" stroke-linejoin="round" stroke="rgb(0%, 0%, 0%)" stroke-opacity="1" stroke-miterlimit="10" d="M 480.117188 159.695312 C 480.117188 162.300781 476.207031 162.300781 476.207031 159.695312 C 476.207031 157.089844 480.117188 157.089844 480.117188 159.695312 "/>
<path fill-rule="nonzero" fill="rgb(0%, 0%, 0%)" fill-opacity="1" stroke-width="0.708661" stroke-linecap="round" stroke-linejoin="round" stroke="rgb(0%, 0%, 0%)" stroke-opacity="1" stroke-miterlimit="10" d="M 229.546875 131.847656 C 229.546875 134.453125 225.636719 134.453125 225.636719 131.847656 C 225.636719 129.242188 229.546875 129.242188 229.546875 131.847656 "/>
<path fill-rule="nonzero" fill="rgb(0%, 0%, 0%)" fill-opacity="1" stroke-width="0.708661" stroke-linecap="round" stroke-linejoin="round" stroke="rgb(0%, 0%, 0%)" stroke-opacity="1" stroke-miterlimit="10" d="M 116.917969 136.128906 C 116.917969 138.738281 113.007812 138.738281 113.007812 136.128906 C 113.007812 133.523438 116.917969 133.523438 116.917969 136.128906 "/>
<path fill-rule="nonzero" fill="rgb(0%, 0%, 0%)" fill-opacity="1" stroke-width="0.708661" stroke-linecap="round" stroke-linejoin="round" stroke="rgb(0%, 0%, 0%)" stroke-opacity="1" stroke-miterlimit="10" d="M 566.820312 25.320312 C 566.820312 27.925781 562.910156 27.925781 562.910156 25.320312 C 562.910156 22.714844 566.820312 22.714844 566.820312 25.320312 "/>
<path fill-rule="nonzero" fill="rgb(0%, 0%, 0%)" fill-opacity="1" stroke-width="0.708661" stroke-linecap="round" stroke-linejoin="round" stroke="rgb(0%, 0%, 0%)" stroke-opacity="1" stroke-miterlimit="10" d="M 188.144531 147.953125 C 188.144531 150.558594 184.234375 150.558594 184.234375 147.953125 C 184.234375 145.347656 188.144531 145.347656 188.144531 147.953125 "/>
<path fill-rule="nonzero" fill="rgb(0%, 0%, 0%)" fill-opacity="1" stroke-width="0.708661" stroke-linecap="round" stroke-linejoin="round" stroke="rgb(0%, 0%, 0%)" stroke-opacity="1" stroke-miterlimit="10" d="M 552.105469 115.339844 C 552.105469 117.945312 548.195312 117.945312 548.195312 115.339844 C 548.195312 112.734375 552.105469 112.734375 552.105469 115.339844 "/>
<path fill-rule="nonzero" fill="rgb(0%, 0%, 0%)" fill-opacity="1" stroke-width="0.708661" stroke-linecap="round" stroke-linejoin="round" stroke="rgb(0%, 0%, 0%)" stroke-opacity="1" stroke-miterlimit="10" d="M 352.152344 228.042969 C 352.152344 230.652344 348.242188 230.652344 348.242188 228.042969 C 348.242188 225.4375 352.152344 225.4375 352.152344 228.042969 "/>
<path fill-rule="nonzero" fill="rgb(0%, 0%, 0%)" fill-opacity="1" stroke-width="0.708661" stroke-linecap="round" stroke-linejoin="round" stroke="rgb(0%, 0%, 0%)" stroke-opacity="1" stroke-miterlimit="10" d="M 585.09375 219.257812 C 585.09375 221.863281 581.183594 221.863281 581.183594 219.257812 C 581.183594 216.652344 585.09375 216.652344 585.09375 219.257812 "/>
<path fill-rule="nonzero" fill="rgb(0%, 0%, 0%)" fill-opacity="1" stroke-width="0.708661" stroke-linecap="round" stroke-linejoin="round" stroke="rgb(0%, 0%, 0%)" stroke-opacity="1" stroke-miterlimit="10" d="M 220.019531 170.507812 C 220.019531 173.113281 216.109375 173.113281 216.109375 170.507812 C 216.109375 167.902344 220.019531 167.902344 220.019531 170.507812 "/>
<path fill-rule="nonzero" fill="rgb(0%, 0%, 0%)" fill-opacity="1" stroke-width="0.708661" stroke-linecap="round" stroke-linejoin="round" stroke="rgb(0%, 0%, 0%)" stroke-opacity="1" stroke-miterlimit="10" d="M 355.453125 214.78125 C 355.453125 217.386719 351.542969 217.386719 351.542969 214.78125 C 351.542969 212.171875 355.453125 212.171875 355.453125 214.78125 "/>
<path fill-rule="nonzero" fill="rgb(0%, 0%, 0%)" fill-opacity="1" stroke-width="0.708661" stroke-linecap="round" stroke-linejoin="round" stroke="rgb(0%, 0%, 0%)" stroke-opacity="1" stroke-miterlimit="10" d="M 491.527344 119.832031 C 491.527344 122.4375 487.617188 122.4375 487.617188 119.832031 C 487.617188 117.226562 491.527344 117.226562 491.527344 119.832031 "/>
<path fill-rule="nonzero" fill="rgb(0%, 0%, 0%)" fill-opacity="1" stroke-width="0.708661" stroke-linecap="round" stroke-linejoin="round" stroke="rgb(0%, 0%, 0%)" stroke-opacity="1" stroke-miterlimit="10" d="M 152.460938 218.0625 C 152.460938 220.667969 148.550781 220.667969 148.550781 218.0625 C 148.550781 215.457031 152.460938 215.457031 152.460938 218.0625 "/>
<path fill-rule="nonzero" fill="rgb(0%, 0%, 0%)" fill-opacity="1" stroke-width="0.708661" stroke-linecap="round" stroke-linejoin="round" stroke="rgb(0%, 0%, 0%)" stroke-opacity="1" stroke-miterlimit="10" d="M 216.582031 137.597656 C 216.582031 140.207031 212.671875 140.207031 212.671875 137.597656 C 212.671875 134.992188 216.582031 134.992188 216.582031 137.597656 "/>
<path fill-rule="nonzero" fill="rgb(0%, 0%, 0%)" fill-opacity="1" stroke-width="0.708661" stroke-linecap="round" stroke-linejoin="round" stroke="rgb(0%, 0%, 0%)" stroke-opacity="1" stroke-miterlimit="10" d="M 322.800781 146.75 C 322.800781 149.359375 318.890625 149.359375 318.890625 146.75 C 318.890625 144.144531 322.800781 144.144531 322.800781 146.75 "/>
<path fill-rule="nonzero" fill="rgb(0%, 0%, 0%)" fill-opacity="1" stroke-width="0.708661" stroke-linecap="round" stroke-linejoin="round" stroke="rgb(0%, 0%, 0%)" stroke-opacity="1" stroke-miterlimit="10" d="M 379.550781 104.835938 C 379.550781 107.441406 375.644531 107.441406 375.644531 104.835938 C 375.644531 102.226562 379.550781 102.226562 379.550781 104.835938 "/>
<path fill-rule="nonzero" fill="rgb(0%, 0%, 0%)" fill-opacity="1" stroke-width="0.708661" stroke-linecap="round" stroke-linejoin="round" stroke="rgb(0%, 0%, 0%)" stroke-opacity="1" stroke-miterlimit="10" d="M 160.902344 262.636719 C 160.902344 265.242188 156.992188 265.242188 156.992188 262.636719 C 156.992188 260.03125 160.902344 260.03125 160.902344 262.636719 "/>
<path fill-rule="nonzero" fill="rgb(0%, 0%, 0%)" fill-opacity="1" stroke-width="0.708661" stroke-linecap="round" stroke-linejoin="round" stroke="rgb(0%, 0%, 0%)" stroke-opacity="1" stroke-miterlimit="10" d="M 379.714844 199.234375 C 379.714844 201.839844 375.804688 201.839844 375.804688 199.234375 C 375.804688 196.625 379.714844 196.625 379.714844 199.234375 "/>
<path fill-rule="nonzero" fill="rgb(0%, 0%, 0%)" fill-opacity="1" stroke-width="0.708661" stroke-linecap="round" stroke-linejoin="round" stroke="rgb(0%, 0%, 0%)" stroke-opacity="1" stroke-miterlimit="10" d="M 507.074219 104.695312 C 507.074219 107.304688 503.164062 107.304688 503.164062 104.695312 C 503.164062 102.089844 507.074219 102.089844 507.074219 104.695312 "/>
<path fill-rule="nonzero" fill="rgb(0%, 0%, 0%)" fill-opacity="1" stroke-width="0.708661" stroke-linecap="round" stroke-linejoin="round" stroke="rgb(0%, 0%, 0%)" stroke-opacity="1" stroke-miterlimit="10" d="M 568.199219 204.074219 C 568.199219 206.679688 564.289062 206.679688 564.289062 204.074219 C 564.289062 201.46875 568.199219 201.46875 568.199219 204.074219 "/>
<path fill-rule="nonzero" fill="rgb(0%, 0%, 0%)" fill-opacity="1" stroke-width="0.708661" stroke-linecap="round" stroke-linejoin="round" stroke="rgb(0%, 0%, 0%)" stroke-opacity="1" stroke-miterlimit="10" d="M 459.648438 81.882812 C 459.648438 84.488281 455.738281 84.488281 455.738281 81.882812 C 455.738281 79.277344 459.648438 79.277344 459.648438 81.882812 "/>
<path fill-rule="nonzero" fill="rgb(0%, 0%, 0%)" fill-opacity="1" stroke-width="0.708661" stroke-linecap="round" stroke-linejoin="round" stroke="rgb(0%, 0%, 0%)" stroke-opacity="1" stroke-miterlimit="10" d="M 548.171875 62.09375 C 548.171875 64.699219 544.261719 64.699219 544.261719 62.09375 C 544.261719 59.488281 548.171875 59.488281 548.171875 62.09375 "/>
<path fill-rule="nonzero" fill="rgb(0%, 0%, 0%)" fill-opacity="1" stroke-width="0.708661" stroke-linecap="round" stroke-linejoin="round" stroke="rgb(0%, 0%, 0%)" stroke-opacity="1" stroke-miterlimit="10" d="M 494.425781 126.117188 C 494.425781 128.726562 490.519531 128.726562 490.519531 126.117188 C 490.519531 123.511719 494.425781 123.511719 494.425781 126.117188 "/>
<path fill-rule="nonzero" fill="rgb(0%, 0%, 0%)" fill-opacity="1" stroke-width="0.708661" stroke-linecap="round" stroke-linejoin="round" stroke="rgb(0%, 0%, 0%)" stroke-opacity="1" stroke-miterlimit="10" d="M 534.921875 221.273438 C 534.921875 223.878906 531.011719 223.878906 531.011719 221.273438 C 531.011719 218.667969 534.921875 218.667969 534.921875 221.273438 "/>
<path fill-rule="nonzero" fill="rgb(0%, 0%, 0%)" fill-opacity="1" stroke-width="0.708661" stroke-linecap="round" stroke-linejoin="round" stroke="rgb(0%, 0%, 0%)" stroke-opacity="1" stroke-miterlimit="10" d="M 613.101562 198.539062 C 613.101562 201.144531 609.191406 201.144531 609.191406 198.539062 C 609.191406 195.929688 613.101562 195.929688 613.101562 198.539062 "/>
<path fill-rule="nonzero" fill="rgb(0%, 0%, 0%)" fill-opacity="1" stroke-width="0.708661" stroke-linecap="round" stroke-linejoin="round" stroke="rgb(0%, 0%, 0%)" stroke-opacity="1" stroke-miterlimit="10" d="M 189.191406 239.007812 C 189.191406 241.613281 185.28125 241.613281 185.28125 239.007812 C 185.28125 236.402344 189.191406 236.402344 189.191406 239.007812 "/>
<path fill-rule="nonzero" fill="rgb(0%, 0%, 0%)" fill-opacity="1" stroke-width="0.708661" stroke-linecap="round" stroke-linejoin="round" stroke="rgb(0%, 0%, 0%)" stroke-opacity="1" stroke-miterlimit="10" d="M 264.230469 136.089844 C 264.230469 138.695312 260.320312 138.695312 260.320312 136.089844 C 260.320312 133.484375 264.230469 133.484375 264.230469 136.089844 "/>
<path fill-rule="nonzero" fill="rgb(0%, 0%, 0%)" fill-opacity="1" stroke-width="0.708661" stroke-linecap="round" stroke-linejoin="round" stroke="rgb(0%, 0%, 0%)" stroke-opacity="1" stroke-miterlimit="10" d="M 312.132812 135.074219 C 312.132812 137.683594 308.222656 137.683594 308.222656 135.074219 C 308.222656 132.46875 312.132812 132.46875 312.132812 135.074219 "/>
<path fill-rule="nonzero" fill="rgb(0%, 0%, 0%)" fill-opacity="1" stroke-width="0.708661" stroke-linecap="round" stroke-linejoin="round" stroke="rgb(0%, 0%, 0%)" stroke-opacity="1" stroke-miterlimit="10" d="M 486.917969 136.628906 C 486.917969 139.234375 483.011719 139.234375 483.011719 136.628906 C 483.011719 134.023438 486.917969 134.023438 486.917969 136.628906 "/>
<path fill-rule="nonzero" fill="rgb(0%, 0%, 0%)" fill-opacity="1" stroke-width="0.708661" stroke-linecap="round" stroke-linejoin="round" stroke="rgb(0%, 0%, 0%)" stroke-opacity="1" stroke-miterlimit="10" d="M 318.671875 203.324219 C 318.671875 205.933594 314.761719 205.933594 314.761719 203.324219 C 314.761719 200.71875 318.671875 200.71875 318.671875 203.324219 "/>
<path fill-rule="nonzero" fill="rgb(0%, 0%, 0%)" fill-opacity="1" stroke-width="0.708661" stroke-linecap="round" stroke-linejoin="round" stroke="rgb(0%, 0%, 0%)" stroke-opacity="1" stroke-miterlimit="10" d="M 379.480469 159.570312 C 379.480469 162.175781 375.570312 162.175781 375.570312 159.570312 C 375.570312 156.960938 379.480469 156.960938 379.480469 159.570312 "/>
<path fill-rule="nonzero" fill="rgb(0%, 0%, 0%)" fill-opacity="1" stroke-width="0.708661" stroke-linecap="round" stroke-linejoin="round" stroke="rgb(0%, 0%, 0%)" stroke-opacity="1" stroke-miterlimit="10" d="M 389.597656 138.722656 C 389.597656 141.328125 385.6875 141.328125 385.6875 138.722656 C 385.6875 136.113281 389.597656 136.113281 389.597656 138.722656 "/>
<path fill-rule="nonzero" fill="rgb(0%, 0%, 0%)" fill-opacity="1" stroke-width="0.708661" stroke-linecap="round" stroke-linejoin="round" stroke="rgb(0%, 0%, 0%)" stroke-opacity="1" stroke-miterlimit="10" d="M 319.972656 202.285156 C 319.972656 204.890625 316.066406 204.890625 316.066406 202.285156 C 316.066406 199.675781 319.972656 199.675781 319.972656 202.285156 "/>
<path fill-rule="nonzero" fill="rgb(0%, 0%, 0%)" fill-opacity="1" stroke-width="0.708661" stroke-linecap="round" stroke-linejoin="round" stroke="rgb(0%, 0%, 0%)" stroke-opacity="1" stroke-miterlimit="10" d="M 680.523438 135.695312 C 680.523438 138.300781 676.613281 138.300781 676.613281 135.695312 C 676.613281 133.089844 680.523438 133.089844 680.523438 135.695312 "/>
<path fill-rule="nonzero" fill="rgb(0%, 0%, 0%)" fill-opacity="1" stroke-width="0.708661" stroke-linecap="round" stroke-linejoin="round" stroke="rgb(0%, 0%, 0%)" stroke-opacity="1" stroke-miterlimit="10" d="M 491.402344 120.503906 C 491.402344 123.109375 487.492188 123.109375 487.492188 120.503906 C 487.492188 117.894531 491.402344 117.894531 491.402344 120.503906 "/>
<path fill-rule="nonzero" fill="rgb(0%, 0%, 0%)" fill-opacity="1" stroke-width="0.708661" stroke-linecap="round" stroke-linejoin="round" stroke="rgb(0%, 0%, 0%)" stroke-opacity="1" stroke-miterlimit="10" d="M 389.367188 146.367188 C 389.367188 148.972656 385.457031 148.972656 385.457031 146.367188 C 385.457031 143.761719 389.367188 143.761719 389.367188 146.367188 "/>
<path fill-rule="nonzero" fill="rgb(0%, 0%, 0%)" fill-opacity="1" stroke-width="0.708661" stroke-linecap="round" stroke-linejoin="round" stroke="rgb(0%, 0%, 0%)" stroke-opacity="1" stroke-miterlimit="10" d="M 523.804688 118.195312 C 523.804688 120.800781 519.898438 120.800781 519.898438 118.195312 C 519.898438 115.589844 523.804688 115.589844 523.804688 118.195312 "/>
<path fill-rule="nonzero" fill="rgb(0%, 0%, 0%)" fill-opacity="1" stroke-width="0.708661" stroke-linecap="round" stroke-linejoin="round" stroke="rgb(0%, 0%, 0%)" stroke-opacity="1" stroke-miterlimit="10" d="M 288.511719 200.644531 C 288.511719 203.253906 284.601562 203.253906 284.601562 200.644531 C 284.601562 198.039062 288.511719 198.039062 288.511719 200.644531 "/>
<path fill-rule="nonzero" fill="rgb(0%, 0%, 0%)" fill-opacity="1" stroke-width="0.708661" stroke-linecap="round" stroke-linejoin="round" stroke="rgb(0%, 0%, 0%)" stroke-opacity="1" stroke-miterlimit="10" d="M 366.242188 188.195312 C 366.242188 190.800781 362.332031 190.800781 362.332031 188.195312 C 362.332031 185.589844 366.242188 185.589844 366.242188 188.195312 "/>
<path fill-rule="nonzero" fill="rgb(0%, 0%, 0%)" fill-opacity="1" stroke-width="0.708661" stroke-linecap="round" stroke-linejoin="round" stroke="rgb(0%, 0%, 0%)" stroke-opacity="1" stroke-miterlimit="10" d="M 288.652344 168.339844 C 288.652344 170.949219 284.742188 170.949219 284.742188 168.339844 C 284.742188 165.734375 288.652344 165.734375 288.652344 168.339844 "/>
<path fill-rule="nonzero" fill="rgb(0%, 0%, 0%)" fill-opacity="1" stroke-width="0.708661" stroke-linecap="round" stroke-linejoin="round" stroke="rgb(0%, 0%, 0%)" stroke-opacity="1" stroke-miterlimit="10" d="M 305.816406 265 C 305.816406 267.609375 301.90625 267.609375 301.90625 265 C 301.90625 262.394531 305.816406 262.394531 305.816406 265 "/>
<path fill-rule="nonzero" fill="rgb(0%, 0%, 0%)" fill-opacity="1" stroke-width="0.708661" stroke-linecap="round" stroke-linejoin="round" stroke="rgb(0%, 0%, 0%)" stroke-opacity="1" stroke-miterlimit="10" d="M 391.722656 218.117188 C 391.722656 220.722656 387.8125 220.722656 387.8125 218.117188 C 387.8125 215.511719 391.722656 215.511719 391.722656 218.117188 "/>
<path fill-rule="nonzero" fill="rgb(0%, 0%, 0%)" fill-opacity="1" stroke-width="0.708661" stroke-linecap="round" stroke-linejoin="round" stroke="rgb(0%, 0%, 0%)" stroke-opacity="1" stroke-miterlimit="10" d="M 106.789062 275.191406 C 106.789062 277.796875 102.882812 277.796875 102.882812 275.191406 C 102.882812 272.585938 106.789062 272.585938 106.789062 275.191406 "/>
<path fill-rule="nonzero" fill="rgb(0%, 0%, 0%)" fill-opacity="1" stroke-width="0.708661" stroke-linecap="round" stroke-linejoin="round" stroke="rgb(0%, 0%, 0%)" stroke-opacity="1" stroke-miterlimit="10" d="M 182.734375 229.15625 C 182.734375 231.761719 178.824219 231.761719 178.824219 229.15625 C 178.824219 226.550781 182.734375 226.550781 182.734375 229.15625 "/>
<path fill-rule="nonzero" fill="rgb(0%, 0%, 0%)" fill-opacity="1" stroke-width="0.708661" stroke-linecap="round" stroke-linejoin="round" stroke="rgb(0%, 0%, 0%)" stroke-opacity="1" stroke-miterlimit="10" d="M 372.988281 36.832031 C 372.988281 39.4375 369.078125 39.4375 369.078125 36.832031 C 369.078125 34.226562 372.988281 34.226562 372.988281 36.832031 "/>
<path fill-rule="nonzero" fill="rgb(0%, 0%, 0%)" fill-opacity="1" stroke-width="0.708661" stroke-linecap="round" stroke-linejoin="round" stroke="rgb(0%, 0%, 0%)" stroke-opacity="1" stroke-miterlimit="10" d="M 542.925781 204.75 C 542.925781 207.355469 539.015625 207.355469 539.015625 204.75 C 539.015625 202.144531 542.925781 202.144531 542.925781 204.75 "/>
<path fill-rule="nonzero" fill="rgb(0%, 0%, 0%)" fill-opacity="1" stroke-width="0.708661" stroke-linecap="round" stroke-linejoin="round" stroke="rgb(0%, 0%, 0%)" stroke-opacity="1" stroke-miterlimit="10" d="M 378.65625 207.300781 C 378.65625 209.90625 374.746094 209.90625 374.746094 207.300781 C 374.746094 204.691406 378.65625 204.691406 378.65625 207.300781 "/>
<path fill-rule="nonzero" fill="rgb(0%, 0%, 0%)" fill-opacity="1" stroke-width="0.708661" stroke-linecap="round" stroke-linejoin="round" stroke="rgb(0%, 0%, 0%)" stroke-opacity="1" stroke-miterlimit="10" d="M 402.027344 66.226562 C 402.027344 68.832031 398.117188 68.832031 398.117188 66.226562 C 398.117188 63.617188 402.027344 63.617188 402.027344 66.226562 "/>
<path fill-rule="nonzero" fill="rgb(0%, 0%, 0%)" fill-opacity="1" stroke-width="0.708661" stroke-linecap="round" stroke-linejoin="round" stroke="rgb(0%, 0%, 0%)" stroke-opacity="1" stroke-miterlimit="10" d="M 454.480469 111.011719 C 454.480469 113.617188 450.570312 113.617188 450.570312 111.011719 C 450.570312 108.40625 454.480469 108.40625 454.480469 111.011719 "/>
<path fill-rule="nonzero" fill="rgb(0%, 0%, 0%)" fill-opacity="1" stroke-width="0.708661" stroke-linecap="round" stroke-linejoin="round" stroke="rgb(0%, 0%, 0%)" stroke-opacity="1" stroke-miterlimit="10" d="M 312.378906 93.71875 C 312.378906 96.324219 308.46875 96.324219 308.46875 93.71875 C 308.46875 91.113281 312.378906 91.113281 312.378906 93.71875 "/>
<path fill-rule="nonzero" fill="rgb(0%, 0%, 0%)" fill-opacity="1" stroke-width="0.708661" stroke-linecap="round" stroke-linejoin="round" stroke="rgb(0%, 0%, 0%)" stroke-opacity="1" stroke-miterlimit="10" d="M 526.527344 195.246094 C 526.527344 197.851562 522.617188 197.851562 522.617188 195.246094 C 522.617188 192.640625 526.527344 192.640625 526.527344 195.246094 "/>
<path fill-rule="nonzero" fill="rgb(0%, 0%, 0%)" fill-opacity="1" stroke-width="0.708661" stroke-linecap="round" stroke-linejoin="round" stroke="rgb(0%, 0%, 0%)" stroke-opacity="1" stroke-miterlimit="10" d="M 330.257812 106.195312 C 330.257812 108.800781 326.347656 108.800781 326.347656 106.195312 C 326.347656 103.589844 330.257812 103.589844 330.257812 106.195312 "/>
<path fill-rule="nonzero" fill="rgb(0%, 0%, 0%)" fill-opacity="1" stroke-width="0.708661" stroke-linecap="round" stroke-linejoin="round" stroke="rgb(0%, 0%, 0%)" stroke-opacity="1" stroke-miterlimit="10" d="M 197.203125 218.128906 C 197.203125 220.734375 193.292969 220.734375 193.292969 218.128906 C 193.292969 215.523438 197.203125 215.523438 197.203125 218.128906 "/>
<path fill-rule="nonzero" fill="rgb(0%, 0%, 0%)" fill-opacity="1" stroke-width="0.708661" stroke-linecap="round" stroke-linejoin="round" stroke="rgb(0%, 0%, 0%)" stroke-opacity="1" stroke-miterlimit="10" d="M 183.128906 84.644531 C 183.128906 87.25 179.21875 87.25 179.21875 84.644531 C 179.21875 82.039062 183.128906 82.039062 183.128906 84.644531 "/>
<path fill-rule="nonzero" fill="rgb(0%, 0%, 0%)" fill-opacity="1" stroke-width="0.708661" stroke-linecap="round" stroke-linejoin="round" stroke="rgb(0%, 0%, 0%)" stroke-opacity="1" stroke-miterlimit="10" d="M 243.769531 210.210938 C 243.769531 212.816406 239.859375 212.816406 239.859375 210.210938 C 239.859375 207.605469 243.769531 207.605469 243.769531 210.210938 "/>
<path fill-rule="nonzero" fill="rgb(0%, 0%, 0%)" fill-opacity="1" stroke-width="0.708661" stroke-linecap="round" stroke-linejoin="round" stroke="rgb(0%, 0%, 0%)" stroke-opacity="1" stroke-miterlimit="10" d="M 367.804688 142.921875 C 367.804688 145.527344 363.894531 145.527344 363.894531 142.921875 C 363.894531 140.316406 367.804688 140.316406 367.804688 142.921875 "/>
<path fill-rule="nonzero" fill="rgb(0%, 0%, 0%)" fill-opacity="1" stroke-width="0.708661" stroke-linecap="round" stroke-linejoin="round" stroke="rgb(0%, 0%, 0%)" stroke-opacity="1" stroke-miterlimit="10" d="M 486.03125 198.5 C 486.03125 201.109375 482.121094 201.109375 482.121094 198.5 C 482.121094 195.894531 486.03125 195.894531 486.03125 198.5 "/>
<path fill-rule="nonzero" fill="rgb(0%, 0%, 0%)" fill-opacity="1" stroke-width="0.708661" stroke-linecap="round" stroke-linejoin="round" stroke="rgb(0%, 0%, 0%)" stroke-opacity="1" stroke-miterlimit="10" d="M 324.417969 142.464844 C 324.417969 145.074219 320.511719 145.074219 320.511719 142.464844 C 320.511719 139.859375 324.417969 139.859375 324.417969 142.464844 "/>
<path fill-rule="nonzero" fill="rgb(0%, 0%, 0%)" fill-opacity="1" stroke-width="0.708661" stroke-linecap="round" stroke-linejoin="round" stroke="rgb(0%, 0%, 0%)" stroke-opacity="1" stroke-miterlimit="10" d="M 521.445312 73.671875 C 521.445312 76.277344 517.535156 76.277344 517.535156 73.671875 C 517.535156 71.066406 521.445312 71.066406 521.445312 73.671875 "/>
<path fill-rule="nonzero" fill="rgb(0%, 0%, 0%)" fill-opacity="1" stroke-width="0.708661" stroke-linecap="round" stroke-linejoin="round" stroke="rgb(0%, 0%, 0%)" stroke-opacity="1" stroke-miterlimit="10" d="M 128.050781 219.539062 C 128.050781 222.144531 124.140625 222.144531 124.140625 219.539062 C 124.140625 216.929688 128.050781 216.929688 128.050781 219.539062 "/>
<path fill-rule="nonzero" fill="rgb(0%, 0%, 0%)" fill-opacity="1" stroke-width="0.708661" stroke-linecap="round" stroke-linejoin="round" stroke="rgb(0%, 0%, 0%)" stroke-opacity="1" stroke-miterlimit="10" d="M 470.179688 116.695312 C 470.179688 119.300781 466.269531 119.300781 466.269531 116.695312 C 466.269531 114.085938 470.179688 114.085938 470.179688 116.695312 "/>
<path fill-rule="nonzero" fill="rgb(0%, 0%, 0%)" fill-opacity="1" stroke-width="0.708661" stroke-linecap="round" stroke-linejoin="round" stroke="rgb(0%, 0%, 0%)" stroke-opacity="1" stroke-miterlimit="10" d="M 463.429688 157.328125 C 463.429688 159.933594 459.519531 159.933594 459.519531 157.328125 C 459.519531 154.71875 463.429688 154.71875 463.429688 157.328125 "/>
<path fill-rule="nonzero" fill="rgb(30.196078%, 30.196078%, 30.196078%)" fill-opacity="1" d="M 57.96875 283.21875 L 57.964844 283.390625 L 57.957031 283.5625 L 57.941406 283.730469 L 57.921875 283.898438 L 57.894531 284.0625 L 57.863281 284.222656 L 57.828125 284.378906 L 57.785156 284.535156 L 57.738281 284.6875 L 57.683594 284.839844 L 57.625 284.984375 L 57.5625 285.125 L 57.492188 285.261719 L 57.417969 285.394531 L 57.335938 285.523438 L 57.246094 285.648438 L 57.152344 285.769531 L 57.050781 285.886719 L 56.945312 286 L 56.835938 286.109375 L 56.71875 286.210938 L 56.59375 286.3125 L 56.464844 286.410156 L 56.328125 286.5 L 56.1875 286.585938 L 56.039062 286.667969 L 55.882812 286.746094 L 55.722656 286.816406 L 55.554688 286.882812 L 55.378906 286.949219 L 55.199219 287.003906 L 55.011719 287.054688 L 54.816406 287.101562 L 54.617188 287.140625 L 54.410156 287.175781 L 54.195312 287.203125 L 53.976562 287.222656 L 53.75 287.238281 L 53.519531 287.246094 L 53.28125 287.25 L 53.039062 287.246094 L 52.808594 287.238281 L 52.582031 287.222656 L 52.363281 287.203125 L 52.148438 287.175781 L 51.941406 287.140625 L 51.742188 287.101562 L 51.546875 287.054688 L 51.359375 287.003906 L 51.179688 286.949219 L 51.007812 286.882812 L 50.839844 286.816406 L 50.679688 286.746094 L 50.523438 286.667969 L 50.375 286.589844 L 50.230469 286.503906 L 50.09375 286.414062 L 49.960938 286.320312 L 49.835938 286.21875 L 49.714844 286.117188 L 49.601562 286.007812 L 49.496094 285.894531 L 49.394531 285.777344 L 49.300781 285.65625 L 49.210938 285.53125 L 49.128906 285.402344 L 49.050781 285.269531 L 48.980469 285.132812 L 48.914062 284.992188 L 48.855469 284.847656 L 48.804688 284.699219 L 48.757812 284.546875 L 48.714844 284.390625 L 48.679688 284.234375 L 48.652344 284.074219 L 48.625 283.910156 L 48.605469 283.746094 L 48.59375 283.578125 L 48.585938 283.410156 L 48.582031 283.238281 L 48.585938 283.085938 L 48.589844 282.941406 L 48.601562 282.800781 L 48.617188 282.660156 L 48.636719 282.527344 L 48.664062 282.394531 L 48.691406 282.265625 L 48.726562 282.140625 L 48.765625 282.015625 L 48.808594 281.898438 L 48.855469 281.78125 L 48.90625 281.671875 L 48.960938 281.5625 L 49.019531 281.457031 L 49.078125 281.355469 L 49.140625 281.253906 L 49.207031 281.160156 L 49.277344 281.066406 L 49.347656 280.976562 L 49.421875 280.894531 L 49.5 280.808594 L 49.582031 280.726562 L 49.664062 280.652344 L 49.75 280.578125 L 49.835938 280.507812 L 49.925781 280.441406 L 50.015625 280.378906 L 50.109375 280.316406 L 50.203125 280.261719 L 50.300781 280.210938 L 50.402344 280.15625 L 50.5 280.109375 L 50.601562 280.066406 L 50.804688 279.988281 L 50.910156 279.957031 L 51.011719 279.925781 L 51.117188 279.898438 L 51.222656 279.875 L 51.328125 279.859375 L 51.328125 279.820312 L 51.210938 279.789062 L 51.101562 279.757812 L 50.992188 279.722656 L 50.882812 279.683594 L 50.78125 279.640625 L 50.675781 279.59375 L 50.578125 279.546875 L 50.382812 279.4375 L 50.292969 279.378906 L 50.203125 279.316406 L 50.117188 279.253906 L 50.035156 279.1875 L 49.953125 279.117188 L 49.875 279.046875 L 49.800781 278.972656 L 49.730469 278.898438 L 49.660156 278.820312 L 49.59375 278.738281 L 49.53125 278.65625 L 49.46875 278.570312 L 49.359375 278.390625 L 49.308594 278.296875 L 49.214844 278.109375 L 49.171875 278.011719 L 49.132812 277.914062 L 49.09375 277.8125 L 49.0625 277.710938 L 49.03125 277.605469 L 49.003906 277.5 L 48.980469 277.394531 L 48.960938 277.285156 L 48.929688 277.066406 L 48.917969 276.957031 L 48.910156 276.84375 L 48.90625 276.730469 L 48.90625 276.472656 L 48.914062 276.328125 L 48.929688 276.191406 L 48.949219 276.050781 L 48.972656 275.914062 L 49.003906 275.78125 L 49.039062 275.648438 L 49.078125 275.515625 L 49.125 275.386719 L 49.179688 275.257812 L 49.238281 275.128906 L 49.300781 275.007812 L 49.371094 274.886719 L 49.445312 274.769531 L 49.527344 274.65625 L 49.613281 274.542969 L 49.703125 274.4375 L 49.800781 274.332031 L 49.902344 274.230469 L 50.007812 274.136719 L 50.121094 274.039062 L 50.238281 273.949219 L 50.359375 273.859375 L 50.488281 273.777344 L 50.621094 273.699219 L 50.757812 273.625 L 50.902344 273.554688 L 51.050781 273.492188 L 51.207031 273.429688 L 51.367188 273.375 L 51.53125 273.320312 L 51.699219 273.269531 L 51.875 273.230469 L 52.054688 273.191406 L 52.238281 273.160156 L 52.429688 273.136719 L 52.625 273.117188 L 52.824219 273.101562 L 53.03125 273.09375 L 53.242188 273.089844 L 53.460938 273.09375 L 53.675781 273.101562 L 53.886719 273.117188 L 54.089844 273.136719 L 54.289062 273.160156 L 54.480469 273.191406 L 54.664062 273.230469 L 54.84375 273.269531 L 55.015625 273.320312 L 55.183594 273.375 L 55.347656 273.433594 L 55.503906 273.496094 L 55.65625 273.5625 L 55.800781 273.632812 L 55.941406 273.707031 L 56.074219 273.785156 L 56.203125 273.871094 L 56.324219 273.957031 L 56.441406 274.050781 L 56.550781 274.144531 L 56.65625 274.242188 L 56.757812 274.34375 L 56.855469 274.445312 L 57.027344 274.664062 L 57.105469 274.777344 L 57.179688 274.894531 L 57.246094 275.015625 L 57.304688 275.140625 L 57.363281 275.269531 L 57.457031 275.527344 L 57.496094 275.660156 L 57.53125 275.796875 L 57.558594 275.933594 L 57.582031 276.070312 L 57.601562 276.207031 L 57.613281 276.347656 L 57.621094 276.492188 L 57.625 276.636719 L 57.625 276.746094 L 57.617188 276.859375 L 57.609375 276.96875 L 57.597656 277.082031 L 57.582031 277.1875 L 57.566406 277.296875 L 57.542969 277.402344 L 57.519531 277.511719 L 57.492188 277.613281 L 57.460938 277.71875 L 57.390625 277.921875 L 57.351562 278.023438 L 57.308594 278.117188 L 57.265625 278.214844 L 57.164062 278.402344 L 57.109375 278.492188 L 57.050781 278.578125 L 56.992188 278.667969 L 56.929688 278.75 L 56.863281 278.828125 L 56.722656 278.984375 L 56.648438 279.058594 L 56.570312 279.128906 L 56.40625 279.261719 L 56.320312 279.328125 L 56.230469 279.390625 L 56.042969 279.5 L 55.847656 279.59375 L 55.742188 279.636719 L 55.636719 279.675781 L 55.417969 279.746094 L 55.183594 279.800781 L 55.183594 279.839844 L 55.300781 279.859375 L 55.417969 279.882812 L 55.535156 279.910156 L 55.644531 279.941406 L 55.757812 279.976562 L 55.976562 280.054688 L 56.082031 280.101562 L 56.183594 280.148438 L 56.289062 280.199219 L 56.386719 280.25 L 56.484375 280.308594 L 56.578125 280.367188 L 56.671875 280.429688 L 56.761719 280.496094 L 56.847656 280.566406 L 56.929688 280.640625 L 57.011719 280.71875 L 57.089844 280.796875 L 57.167969 280.882812 L 57.238281 280.96875 L 57.308594 281.058594 L 57.375 281.148438 L 57.5 281.34375 L 57.554688 281.445312 L 57.609375 281.550781 L 57.660156 281.660156 L 57.707031 281.773438 L 57.753906 281.890625 L 57.792969 282.007812 L 57.828125 282.128906 L 57.863281 282.253906 L 57.890625 282.382812 L 57.914062 282.515625 L 57.933594 282.648438 L 57.949219 282.785156 L 57.957031 282.925781 L 57.964844 283.070312 Z M 55.800781 276.734375 L 55.796875 276.628906 L 55.792969 276.527344 L 55.777344 276.332031 L 55.765625 276.238281 L 55.75 276.144531 L 55.730469 276.050781 L 55.710938 275.960938 L 55.6875 275.871094 L 55.664062 275.785156 L 55.636719 275.699219 L 55.605469 275.617188 L 55.570312 275.539062 L 55.53125 275.460938 L 55.492188 275.386719 L 55.398438 275.246094 L 55.347656 275.179688 L 55.292969 275.113281 L 55.171875 274.992188 L 55.105469 274.933594 L 55.035156 274.878906 L 54.960938 274.828125 L 54.882812 274.777344 L 54.800781 274.730469 L 54.71875 274.6875 L 54.539062 274.609375 L 54.441406 274.574219 L 54.339844 274.539062 L 54.238281 274.511719 L 54.128906 274.484375 L 54.015625 274.460938 L 53.898438 274.441406 L 53.773438 274.425781 L 53.648438 274.414062 L 53.515625 274.40625 L 53.378906 274.398438 L 53.105469 274.398438 L 52.972656 274.40625 L 52.84375 274.414062 L 52.71875 274.425781 L 52.601562 274.441406 L 52.484375 274.460938 L 52.375 274.484375 L 52.269531 274.511719 L 52.167969 274.539062 L 51.972656 274.609375 L 51.882812 274.648438 L 51.796875 274.6875 L 51.710938 274.730469 L 51.632812 274.777344 L 51.554688 274.828125 L 51.480469 274.878906 L 51.410156 274.933594 L 51.339844 274.992188 L 51.21875 275.113281 L 51.109375 275.246094 L 51.015625 275.386719 L 50.972656 275.460938 L 50.933594 275.539062 L 50.898438 275.617188 L 50.867188 275.699219 L 50.8125 275.871094 L 50.789062 275.960938 L 50.769531 276.050781 L 50.75 276.144531 L 50.734375 276.238281 L 50.722656 276.332031 L 50.707031 276.527344 L 50.703125 276.628906 L 50.703125 276.816406 L 50.710938 276.980469 L 50.71875 277.0625 L 50.726562 277.148438 L 50.738281 277.230469 L 50.769531 277.402344 L 50.808594 277.574219 L 50.832031 277.65625 L 50.859375 277.742188 L 50.890625 277.824219 L 50.921875 277.902344 L 50.960938 277.984375 L 51 278.058594 L 51.046875 278.136719 L 51.09375 278.210938 L 51.144531 278.28125 L 51.199219 278.355469 L 51.257812 278.421875 L 51.320312 278.488281 L 51.390625 278.554688 L 51.460938 278.613281 L 51.535156 278.671875 L 51.617188 278.730469 L 51.703125 278.785156 L 51.789062 278.835938 L 51.882812 278.882812 L 51.980469 278.929688 L 52.082031 278.972656 L 52.191406 279.011719 L 52.304688 279.042969 L 52.425781 279.074219 L 52.550781 279.097656 L 52.679688 279.117188 L 52.816406 279.132812 L 52.957031 279.144531 L 53.105469 279.152344 L 53.261719 279.15625 L 53.421875 279.152344 L 53.578125 279.144531 L 53.726562 279.132812 L 53.871094 279.117188 L 54.007812 279.097656 L 54.136719 279.074219 L 54.257812 279.042969 L 54.375 279.011719 L 54.484375 278.972656 L 54.589844 278.929688 L 54.6875 278.882812 L 54.78125 278.835938 L 54.871094 278.785156 L 54.957031 278.730469 L 55.035156 278.671875 L 55.109375 278.613281 L 55.179688 278.554688 L 55.246094 278.488281 L 55.304688 278.421875 L 55.359375 278.355469 L 55.414062 278.28125 L 55.460938 278.210938 L 55.507812 278.136719 L 55.546875 278.058594 L 55.585938 277.984375 L 55.617188 277.902344 L 55.648438 277.824219 L 55.671875 277.742188 L 55.695312 277.65625 L 55.710938 277.574219 L 55.757812 277.316406 L 55.765625 277.230469 L 55.777344 277.148438 L 55.785156 277.0625 L 55.792969 276.980469 L 55.796875 276.898438 L 55.796875 276.816406 Z M 56.140625 283.050781 L 56.140625 282.953125 L 56.136719 282.851562 L 56.128906 282.753906 L 56.117188 282.660156 L 56.105469 282.5625 L 56.089844 282.46875 L 56.074219 282.371094 L 56.054688 282.277344 L 56.03125 282.1875 L 55.976562 282 L 55.941406 281.910156 L 55.90625 281.824219 L 55.863281 281.738281 L 55.820312 281.65625 L 55.769531 281.574219 L 55.71875 281.496094 L 55.660156 281.417969 L 55.601562 281.34375 L 55.535156 281.273438 L 55.464844 281.203125 L 55.394531 281.136719 L 55.316406 281.070312 L 55.230469 281.007812 L 55.144531 280.949219 L 54.957031 280.839844 L 54.855469 280.789062 L 54.746094 280.742188 L 54.636719 280.699219 L 54.523438 280.65625 L 54.402344 280.617188 L 54.277344 280.582031 L 54.144531 280.554688 L 54.007812 280.527344 L 53.867188 280.507812 L 53.71875 280.492188 L 53.566406 280.480469 L 53.40625 280.476562 L 53.242188 280.472656 L 53.089844 280.476562 L 52.941406 280.480469 L 52.796875 280.492188 L 52.660156 280.507812 L 52.523438 280.527344 L 52.394531 280.554688 L 52.269531 280.582031 L 52.148438 280.617188 L 52.035156 280.65625 L 51.921875 280.699219 L 51.816406 280.742188 L 51.714844 280.789062 L 51.617188 280.839844 L 51.523438 280.894531 L 51.433594 280.949219 L 51.347656 281.007812 L 51.265625 281.070312 L 51.1875 281.136719 L 51.113281 281.203125 L 51.042969 281.273438 L 50.917969 281.421875 L 50.859375 281.5 L 50.804688 281.582031 L 50.753906 281.664062 L 50.707031 281.75 L 50.664062 281.835938 L 50.625 281.925781 L 50.554688 282.113281 L 50.523438 282.207031 L 50.5 282.300781 L 50.453125 282.496094 L 50.421875 282.691406 L 50.40625 282.886719 L 50.398438 282.988281 L 50.398438 283.214844 L 50.40625 283.339844 L 50.421875 283.582031 L 50.4375 283.699219 L 50.453125 283.8125 L 50.476562 283.925781 L 50.523438 284.144531 L 50.554688 284.253906 L 50.589844 284.355469 L 50.625 284.453125 L 50.664062 284.550781 L 50.710938 284.644531 L 50.757812 284.734375 L 50.808594 284.824219 L 50.863281 284.910156 L 50.921875 284.992188 L 50.988281 285.074219 L 51.054688 285.152344 L 51.125 285.222656 L 51.199219 285.292969 L 51.277344 285.359375 L 51.359375 285.421875 L 51.449219 285.480469 L 51.539062 285.535156 L 51.636719 285.589844 L 51.738281 285.636719 L 51.84375 285.683594 L 51.953125 285.726562 L 52.066406 285.765625 L 52.183594 285.800781 L 52.304688 285.832031 L 52.433594 285.859375 L 52.566406 285.878906 L 52.703125 285.898438 L 52.84375 285.914062 L 52.992188 285.921875 L 53.144531 285.929688 L 53.300781 285.933594 L 53.457031 285.929688 L 53.609375 285.921875 L 53.757812 285.914062 L 53.898438 285.898438 L 54.035156 285.878906 L 54.167969 285.859375 L 54.296875 285.832031 L 54.417969 285.800781 L 54.535156 285.765625 L 54.648438 285.726562 L 54.753906 285.683594 L 54.957031 285.589844 L 55.050781 285.535156 L 55.140625 285.480469 L 55.226562 285.421875 L 55.308594 285.359375 L 55.382812 285.292969 L 55.457031 285.222656 L 55.527344 285.152344 L 55.589844 285.074219 L 55.652344 284.992188 L 55.707031 284.910156 L 55.761719 284.824219 L 55.808594 284.734375 L 55.855469 284.640625 L 55.894531 284.546875 L 55.933594 284.449219 L 55.964844 284.347656 L 55.996094 284.242188 L 56.023438 284.132812 L 56.046875 284.023438 L 56.070312 283.910156 L 56.089844 283.792969 L 56.105469 283.675781 L 56.128906 283.433594 L 56.136719 283.308594 L 56.140625 283.179688 Z M 56.140625 283.050781 "/>
<path fill-rule="nonzero" fill="rgb(30.196078%, 30.196078%, 30.196078%)" fill-opacity="1" d="M 57.890625 220.933594 L 57.886719 221.296875 L 57.875 221.652344 L 57.855469 221.996094 L 57.832031 222.332031 L 57.800781 222.65625 L 57.761719 222.976562 L 57.714844 223.285156 L 57.664062 223.585938 L 57.605469 223.875 L 57.539062 224.15625 L 57.464844 224.429688 L 57.386719 224.6875 L 57.304688 224.941406 L 57.214844 225.183594 L 57.121094 225.417969 L 57.019531 225.644531 L 56.910156 225.859375 L 56.796875 226.066406 L 56.675781 226.265625 L 56.550781 226.453125 L 56.417969 226.632812 L 56.28125 226.800781 L 56.140625 226.960938 L 55.988281 227.113281 L 55.835938 227.253906 L 55.675781 227.386719 L 55.511719 227.511719 L 55.339844 227.625 L 55.160156 227.734375 L 54.980469 227.828125 L 54.792969 227.917969 L 54.601562 227.992188 L 54.40625 228.0625 L 54.207031 228.121094 L 54.003906 228.171875 L 53.792969 228.214844 L 53.578125 228.246094 L 53.359375 228.269531 L 53.136719 228.285156 L 52.910156 228.289062 L 52.75 228.285156 L 52.597656 228.28125 L 52.449219 228.273438 L 52.300781 228.261719 L 52.15625 228.246094 L 52.015625 228.226562 L 51.878906 228.207031 L 51.742188 228.179688 L 51.609375 228.152344 L 51.484375 228.121094 L 51.355469 228.089844 L 51.113281 228.011719 L 50.996094 227.96875 L 50.769531 227.867188 L 50.660156 227.8125 L 50.554688 227.753906 L 50.449219 227.691406 L 50.351562 227.625 L 50.25 227.554688 L 50.15625 227.480469 L 50.0625 227.398438 L 49.976562 227.316406 L 49.886719 227.230469 L 49.804688 227.140625 L 49.722656 227.042969 L 49.648438 226.945312 L 49.570312 226.84375 L 49.429688 226.625 L 49.363281 226.507812 L 49.300781 226.386719 L 49.242188 226.261719 L 49.183594 226.132812 L 49.074219 225.859375 L 49.023438 225.714844 L 48.976562 225.570312 L 48.933594 225.417969 L 50.613281 225.152344 L 50.671875 225.324219 L 50.734375 225.488281 L 50.804688 225.644531 L 50.878906 225.789062 L 50.960938 225.925781 L 51.050781 226.050781 L 51.144531 226.167969 L 51.246094 226.273438 L 51.351562 226.371094 L 51.464844 226.460938 L 51.582031 226.539062 L 51.710938 226.609375 L 51.84375 226.671875 L 51.980469 226.722656 L 52.125 226.769531 L 52.273438 226.804688 L 52.433594 226.835938 L 52.59375 226.855469 L 52.761719 226.867188 L 52.9375 226.871094 L 53.078125 226.867188 L 53.21875 226.859375 L 53.355469 226.84375 L 53.488281 226.820312 L 53.617188 226.789062 L 53.746094 226.753906 L 53.875 226.710938 L 53.996094 226.660156 L 54.117188 226.601562 L 54.238281 226.539062 L 54.355469 226.46875 L 54.46875 226.390625 L 54.578125 226.304688 L 54.683594 226.214844 L 54.785156 226.113281 L 54.882812 226.011719 L 54.980469 225.898438 L 55.070312 225.78125 L 55.160156 225.65625 L 55.242188 225.523438 L 55.324219 225.386719 L 55.402344 225.242188 L 55.476562 225.089844 L 55.546875 224.929688 L 55.617188 224.765625 L 55.679688 224.59375 L 55.738281 224.414062 L 55.796875 224.226562 L 55.847656 224.035156 L 55.898438 223.835938 L 55.941406 223.628906 L 55.980469 223.414062 L 56.019531 223.195312 L 56.050781 222.964844 L 56.078125 222.730469 L 56.101562 222.488281 L 56.121094 222.242188 L 56.132812 221.984375 L 56.144531 221.722656 L 56.152344 221.453125 L 56.109375 221.542969 L 56.0625 221.632812 L 55.960938 221.804688 L 55.90625 221.886719 L 55.847656 221.96875 L 55.722656 222.125 L 55.65625 222.199219 L 55.585938 222.273438 L 55.4375 222.414062 L 55.363281 222.480469 L 55.207031 222.605469 L 55.125 222.667969 L 55.039062 222.726562 L 54.953125 222.78125 L 54.863281 222.835938 L 54.773438 222.886719 L 54.683594 222.933594 L 54.589844 222.980469 L 54.402344 223.066406 L 54.304688 223.105469 L 54.207031 223.140625 L 54.003906 223.210938 L 53.902344 223.238281 L 53.796875 223.269531 L 53.691406 223.292969 L 53.480469 223.332031 L 53.375 223.347656 L 53.265625 223.363281 L 53.160156 223.375 L 53.054688 223.382812 L 52.945312 223.390625 L 52.839844 223.394531 L 52.734375 223.394531 L 52.546875 223.390625 L 52.363281 223.382812 L 52.1875 223.367188 L 52.011719 223.34375 L 51.839844 223.3125 L 51.671875 223.277344 L 51.507812 223.234375 L 51.34375 223.183594 L 51.1875 223.125 L 51.035156 223.0625 L 50.886719 222.992188 L 50.742188 222.914062 L 50.601562 222.835938 L 50.335938 222.65625 L 50.210938 222.558594 L 50.089844 222.457031 L 49.972656 222.347656 L 49.863281 222.234375 L 49.753906 222.117188 L 49.652344 221.992188 L 49.550781 221.863281 L 49.457031 221.730469 L 49.371094 221.59375 L 49.285156 221.449219 L 49.207031 221.300781 L 49.128906 221.148438 L 49.058594 220.992188 L 48.996094 220.828125 L 48.933594 220.660156 L 48.878906 220.488281 L 48.832031 220.308594 L 48.789062 220.128906 L 48.753906 219.945312 L 48.722656 219.753906 L 48.695312 219.5625 L 48.675781 219.367188 L 48.660156 219.167969 L 48.652344 218.964844 L 48.652344 218.546875 L 48.664062 218.339844 L 48.679688 218.136719 L 48.699219 217.9375 L 48.726562 217.742188 L 48.757812 217.554688 L 48.800781 217.367188 L 48.84375 217.183594 L 48.894531 217.007812 L 48.953125 216.832031 L 49.019531 216.664062 L 49.089844 216.5 L 49.164062 216.339844 L 49.246094 216.1875 L 49.335938 216.039062 L 49.425781 215.894531 L 49.523438 215.757812 L 49.628906 215.625 L 49.738281 215.5 L 49.851562 215.378906 L 49.972656 215.257812 L 50.097656 215.148438 L 50.226562 215.039062 L 50.363281 214.9375 L 50.503906 214.84375 L 50.648438 214.753906 L 50.800781 214.667969 L 50.957031 214.589844 L 51.121094 214.515625 L 51.289062 214.449219 L 51.460938 214.390625 L 51.640625 214.332031 L 51.824219 214.285156 L 52.011719 214.242188 L 52.203125 214.207031 L 52.398438 214.179688 L 52.601562 214.15625 L 52.804688 214.140625 L 53.015625 214.132812 L 53.230469 214.128906 L 53.679688 214.144531 L 54.105469 214.195312 L 54.507812 214.28125 L 54.886719 214.398438 L 55.246094 214.550781 L 55.582031 214.738281 L 55.898438 214.960938 L 56.191406 215.214844 L 56.460938 215.503906 L 56.707031 215.828125 L 56.933594 216.183594 L 57.132812 216.574219 L 57.308594 217 L 57.464844 217.460938 L 57.59375 217.953125 L 57.699219 218.480469 L 57.78125 219.042969 L 57.839844 219.640625 L 57.878906 220.269531 Z M 55.976562 219.234375 L 55.972656 219.082031 L 55.96875 218.933594 L 55.957031 218.785156 L 55.945312 218.640625 L 55.929688 218.496094 L 55.90625 218.351562 L 55.882812 218.210938 L 55.855469 218.074219 L 55.824219 217.933594 L 55.753906 217.667969 L 55.710938 217.535156 L 55.667969 217.410156 L 55.566406 217.167969 L 55.511719 217.054688 L 55.453125 216.941406 L 55.390625 216.832031 L 55.324219 216.730469 L 55.253906 216.628906 L 55.179688 216.53125 L 55.105469 216.4375 L 55.027344 216.347656 L 54.941406 216.261719 L 54.855469 216.183594 L 54.765625 216.105469 L 54.675781 216.035156 L 54.578125 215.96875 L 54.476562 215.90625 L 54.375 215.847656 L 54.269531 215.789062 L 54.160156 215.742188 L 54.046875 215.695312 L 53.933594 215.660156 L 53.8125 215.625 L 53.691406 215.601562 L 53.566406 215.578125 L 53.308594 215.554688 L 53.046875 215.554688 L 52.921875 215.5625 L 52.800781 215.574219 L 52.683594 215.589844 L 52.570312 215.609375 L 52.457031 215.632812 L 52.34375 215.664062 L 52.238281 215.695312 L 52.132812 215.734375 L 52.03125 215.777344 L 51.929688 215.824219 L 51.832031 215.875 L 51.738281 215.929688 L 51.648438 215.988281 L 51.5625 216.050781 L 51.476562 216.117188 L 51.394531 216.1875 L 51.316406 216.261719 L 51.242188 216.339844 L 51.171875 216.421875 L 51.101562 216.507812 L 51.035156 216.59375 L 50.972656 216.683594 L 50.914062 216.78125 L 50.859375 216.878906 L 50.804688 216.980469 L 50.753906 217.085938 L 50.707031 217.199219 L 50.664062 217.3125 L 50.625 217.429688 L 50.554688 217.671875 L 50.527344 217.796875 L 50.503906 217.925781 L 50.484375 218.058594 L 50.46875 218.191406 L 50.453125 218.328125 L 50.445312 218.46875 L 50.4375 218.757812 L 50.4375 218.894531 L 50.445312 219.03125 L 50.453125 219.164062 L 50.464844 219.296875 L 50.496094 219.554688 L 50.542969 219.804688 L 50.570312 219.925781 L 50.605469 220.046875 L 50.640625 220.164062 L 50.679688 220.277344 L 50.722656 220.390625 L 50.769531 220.496094 L 50.820312 220.601562 L 50.929688 220.804688 L 51.054688 220.992188 L 51.121094 221.082031 L 51.191406 221.164062 L 51.265625 221.246094 L 51.339844 221.324219 L 51.503906 221.464844 L 51.589844 221.53125 L 51.679688 221.597656 L 51.773438 221.65625 L 51.871094 221.710938 L 51.972656 221.765625 L 52.074219 221.8125 L 52.179688 221.851562 L 52.289062 221.890625 L 52.402344 221.921875 L 52.519531 221.949219 L 52.761719 221.988281 L 52.890625 222 L 53.019531 222.007812 L 53.25 222.007812 L 53.445312 221.992188 L 53.542969 221.980469 L 53.644531 221.96875 L 53.742188 221.949219 L 53.839844 221.925781 L 53.941406 221.902344 L 54.039062 221.875 L 54.140625 221.84375 L 54.238281 221.808594 L 54.335938 221.769531 L 54.433594 221.726562 L 54.621094 221.632812 L 54.710938 221.578125 L 54.796875 221.523438 L 54.882812 221.464844 L 54.964844 221.402344 L 55.046875 221.335938 L 55.128906 221.265625 L 55.203125 221.191406 L 55.277344 221.113281 L 55.351562 221.03125 L 55.417969 220.949219 L 55.484375 220.859375 L 55.542969 220.769531 L 55.601562 220.675781 L 55.660156 220.578125 L 55.710938 220.476562 L 55.761719 220.367188 L 55.804688 220.257812 L 55.84375 220.140625 L 55.878906 220.023438 L 55.910156 219.902344 L 55.933594 219.777344 L 55.964844 219.511719 L 55.972656 219.375 Z M 55.976562 219.234375 "/>
<path fill-rule="nonzero" fill="rgb(30.196078%, 30.196078%, 30.196078%)" fill-opacity="1" d="M 38.113281 169.128906 L 38.113281 167.636719 L 41.621094 167.636719 L 41.621094 157.050781 L 38.515625 159.265625 L 38.515625 157.605469 L 41.765625 155.371094 L 43.386719 155.371094 L 43.386719 167.636719 L 46.738281 167.636719 L 46.738281 169.128906 Z M 38.113281 169.128906 "/>
<path fill-rule="nonzero" fill="rgb(30.196078%, 30.196078%, 30.196078%)" fill-opacity="1" d="M 58.054688 162.246094 L 58.050781 162.636719 L 58.039062 163.011719 L 58.019531 163.378906 L 57.992188 163.730469 L 57.960938 164.070312 L 57.917969 164.398438 L 57.867188 164.714844 L 57.8125 165.015625 L 57.746094 165.308594 L 57.675781 165.585938 L 57.597656 165.851562 L 57.515625 166.105469 L 57.425781 166.347656 L 57.332031 166.582031 L 57.230469 166.804688 L 57.125 167.019531 L 57.015625 167.222656 L 56.898438 167.417969 L 56.777344 167.601562 L 56.648438 167.773438 L 56.515625 167.933594 L 56.382812 168.085938 L 56.242188 168.230469 L 56.09375 168.363281 L 55.945312 168.484375 L 55.789062 168.601562 L 55.632812 168.707031 L 55.46875 168.800781 L 55.296875 168.886719 L 55.125 168.964844 L 54.949219 169.03125 L 54.769531 169.09375 L 54.585938 169.148438 L 54.402344 169.195312 L 54.21875 169.234375 L 54.027344 169.269531 L 53.835938 169.292969 L 53.644531 169.3125 L 53.449219 169.320312 L 53.25 169.324219 L 53.050781 169.320312 L 52.851562 169.3125 L 52.660156 169.292969 L 52.46875 169.269531 L 52.277344 169.234375 L 52.09375 169.195312 L 51.910156 169.148438 L 51.726562 169.09375 L 51.550781 169.03125 L 51.375 168.964844 L 51.203125 168.886719 L 51.035156 168.800781 L 50.875 168.707031 L 50.714844 168.601562 L 50.5625 168.484375 L 50.414062 168.363281 L 50.269531 168.230469 L 50.128906 168.085938 L 49.992188 167.933594 L 49.863281 167.773438 L 49.738281 167.601562 L 49.617188 167.421875 L 49.503906 167.226562 L 49.394531 167.027344 L 49.292969 166.8125 L 49.195312 166.589844 L 49.101562 166.355469 L 49.015625 166.113281 L 48.933594 165.859375 L 48.855469 165.59375 L 48.785156 165.316406 L 48.726562 165.027344 L 48.671875 164.722656 L 48.625 164.40625 L 48.585938 164.078125 L 48.550781 163.738281 L 48.527344 163.382812 L 48.507812 163.015625 L 48.496094 162.636719 L 48.496094 161.835938 L 48.507812 161.441406 L 48.527344 161.0625 L 48.550781 160.695312 L 48.585938 160.347656 L 48.625 160.007812 L 48.671875 159.6875 L 48.726562 159.378906 L 48.785156 159.085938 L 48.855469 158.808594 L 48.933594 158.539062 L 49.015625 158.285156 L 49.101562 158.039062 L 49.195312 157.804688 L 49.296875 157.578125 L 49.398438 157.367188 L 49.507812 157.167969 L 49.625 156.976562 L 49.746094 156.796875 L 49.871094 156.628906 L 50.003906 156.472656 L 50.136719 156.324219 L 50.277344 156.1875 L 50.425781 156.058594 L 50.574219 155.941406 L 50.730469 155.832031 L 50.886719 155.734375 L 51.050781 155.644531 L 51.222656 155.566406 L 51.394531 155.496094 L 51.570312 155.433594 L 51.753906 155.378906 L 51.9375 155.328125 L 52.121094 155.285156 L 52.3125 155.25 L 52.503906 155.21875 L 52.703125 155.195312 L 52.902344 155.179688 L 53.101562 155.167969 L 53.308594 155.164062 L 53.503906 155.167969 L 53.699219 155.179688 L 53.890625 155.195312 L 54.078125 155.21875 L 54.261719 155.25 L 54.445312 155.285156 L 54.628906 155.328125 L 54.804688 155.378906 L 54.980469 155.433594 L 55.15625 155.496094 L 55.324219 155.566406 L 55.492188 155.644531 L 55.65625 155.734375 L 55.8125 155.832031 L 55.96875 155.941406 L 56.117188 156.058594 L 56.261719 156.1875 L 56.402344 156.324219 L 56.535156 156.472656 L 56.667969 156.628906 L 56.792969 156.796875 L 56.914062 156.976562 L 57.03125 157.167969 L 57.140625 157.367188 L 57.246094 157.578125 L 57.34375 157.804688 L 57.4375 158.039062 L 57.523438 158.285156 L 57.605469 158.539062 L 57.683594 158.808594 L 57.753906 159.085938 L 57.816406 159.378906 L 57.875 159.6875 L 57.921875 160.007812 L 57.960938 160.347656 L 57.996094 160.695312 L 58.023438 161.0625 L 58.039062 161.441406 L 58.050781 161.835938 Z M 56.269531 162.246094 L 56.265625 161.921875 L 56.261719 161.613281 L 56.25 161.3125 L 56.238281 161.023438 L 56.21875 160.742188 L 56.199219 160.476562 L 56.171875 160.222656 L 56.144531 159.976562 L 56.109375 159.742188 L 56.074219 159.519531 L 56.03125 159.304688 L 55.988281 159.101562 L 55.9375 158.90625 L 55.886719 158.71875 L 55.832031 158.539062 L 55.769531 158.371094 L 55.707031 158.210938 L 55.640625 158.058594 L 55.570312 157.914062 L 55.496094 157.78125 L 55.417969 157.65625 L 55.335938 157.535156 L 55.253906 157.425781 L 55.164062 157.320312 L 55.070312 157.226562 L 54.976562 157.136719 L 54.878906 157.058594 L 54.773438 156.984375 L 54.667969 156.921875 L 54.558594 156.863281 L 54.449219 156.8125 L 54.332031 156.765625 L 54.214844 156.726562 L 54.097656 156.691406 L 53.972656 156.660156 L 53.847656 156.636719 L 53.714844 156.617188 L 53.582031 156.601562 L 53.449219 156.59375 L 53.308594 156.589844 L 53.164062 156.59375 L 53.019531 156.601562 L 52.878906 156.617188 L 52.742188 156.636719 L 52.609375 156.660156 L 52.480469 156.691406 L 52.355469 156.726562 L 52.234375 156.765625 L 52.117188 156.8125 L 52 156.863281 L 51.890625 156.921875 L 51.78125 156.988281 L 51.675781 157.0625 L 51.574219 157.144531 L 51.476562 157.234375 L 51.382812 157.328125 L 51.292969 157.433594 L 51.207031 157.546875 L 51.125 157.664062 L 51.042969 157.792969 L 50.96875 157.925781 L 50.898438 158.066406 L 50.832031 158.21875 L 50.769531 158.378906 L 50.707031 158.550781 L 50.652344 158.726562 L 50.601562 158.914062 L 50.550781 159.109375 L 50.507812 159.316406 L 50.46875 159.53125 L 50.429688 159.753906 L 50.398438 159.984375 L 50.367188 160.230469 L 50.34375 160.484375 L 50.320312 160.75 L 50.304688 161.027344 L 50.289062 161.316406 L 50.28125 161.613281 L 50.273438 161.925781 L 50.273438 162.558594 L 50.28125 162.859375 L 50.289062 163.148438 L 50.304688 163.429688 L 50.320312 163.703125 L 50.34375 163.964844 L 50.367188 164.214844 L 50.398438 164.457031 L 50.429688 164.691406 L 50.46875 164.910156 L 50.511719 165.125 L 50.554688 165.328125 L 50.605469 165.523438 L 50.660156 165.710938 L 50.714844 165.890625 L 50.777344 166.0625 L 50.839844 166.222656 L 50.90625 166.378906 L 50.980469 166.523438 L 51.054688 166.660156 L 51.132812 166.785156 L 51.214844 166.90625 L 51.300781 167.019531 L 51.390625 167.125 L 51.484375 167.222656 L 51.582031 167.316406 L 51.679688 167.398438 L 51.785156 167.476562 L 51.890625 167.542969 L 52 167.605469 L 52.113281 167.660156 L 52.230469 167.707031 L 52.347656 167.75 L 52.46875 167.789062 L 52.597656 167.820312 L 52.722656 167.84375 L 52.855469 167.863281 L 52.992188 167.878906 L 53.128906 167.886719 L 53.269531 167.890625 L 53.40625 167.886719 L 53.542969 167.878906 L 53.671875 167.863281 L 53.800781 167.84375 L 53.929688 167.820312 L 54.050781 167.789062 L 54.171875 167.75 L 54.292969 167.707031 L 54.40625 167.660156 L 54.519531 167.605469 L 54.628906 167.542969 L 54.734375 167.476562 L 54.839844 167.398438 L 54.9375 167.316406 L 55.03125 167.222656 L 55.125 167.125 L 55.214844 167.019531 L 55.296875 166.90625 L 55.378906 166.785156 L 55.457031 166.660156 L 55.535156 166.523438 L 55.605469 166.378906 L 55.675781 166.222656 L 55.738281 166.0625 L 55.800781 165.890625 L 55.859375 165.710938 L 55.914062 165.523438 L 55.964844 165.328125 L 56.011719 165.125 L 56.054688 164.910156 L 56.09375 164.691406 L 56.128906 164.457031 L 56.164062 164.214844 L 56.191406 163.964844 L 56.214844 163.703125 L 56.234375 163.429688 L 56.25 163.148438 L 56.257812 162.859375 L 56.265625 162.558594 Z M 56.269531 162.246094 "/>
<path fill-rule="nonzero" fill="rgb(30.196078%, 30.196078%, 30.196078%)" fill-opacity="1" d="M 38.113281 110.167969 L 38.113281 108.671875 L 41.621094 108.671875 L 41.621094 98.085938 L 38.515625 100.304688 L 38.515625 98.644531 L 41.765625 96.40625 L 43.386719 96.40625 L 43.386719 108.671875 L 46.738281 108.671875 L 46.738281 110.167969 Z M 38.113281 110.167969 "/>
<path fill-rule="nonzero" fill="rgb(30.196078%, 30.196078%, 30.196078%)" fill-opacity="1" d="M 49.238281 110.167969 L 49.238281 108.671875 L 52.742188 108.671875 L 52.742188 98.085938 L 49.636719 100.304688 L 49.636719 98.644531 L 52.890625 96.40625 L 54.511719 96.40625 L 54.511719 108.671875 L 57.859375 108.671875 L 57.859375 110.167969 Z M 49.238281 110.167969 "/>
<path fill-rule="nonzero" fill="rgb(30.196078%, 30.196078%, 30.196078%)" fill-opacity="1" d="M 38.113281 51.207031 L 38.113281 49.710938 L 41.621094 49.710938 L 41.621094 39.125 L 38.515625 41.34375 L 38.515625 39.683594 L 41.765625 37.445312 L 43.386719 37.445312 L 43.386719 49.710938 L 46.738281 49.710938 L 46.738281 51.207031 Z M 38.113281 51.207031 "/>
<path fill-rule="nonzero" fill="rgb(30.196078%, 30.196078%, 30.196078%)" fill-opacity="1" d="M 48.71875 51.207031 L 48.71875 49.964844 L 48.820312 49.738281 L 48.925781 49.519531 L 49.039062 49.304688 L 49.152344 49.09375 L 49.269531 48.890625 L 49.394531 48.691406 L 49.523438 48.5 L 49.652344 48.3125 L 49.789062 48.128906 L 49.929688 47.953125 L 50.074219 47.78125 L 50.222656 47.609375 L 50.371094 47.441406 L 50.519531 47.277344 L 50.667969 47.117188 L 50.820312 46.960938 L 50.976562 46.808594 L 51.128906 46.660156 L 51.285156 46.515625 L 51.445312 46.371094 L 51.757812 46.089844 L 51.917969 45.953125 L 52.386719 45.554688 L 52.542969 45.425781 L 52.695312 45.300781 L 52.851562 45.175781 L 53.007812 45.054688 L 53.3125 44.8125 L 53.460938 44.691406 L 53.75 44.449219 L 54.023438 44.207031 L 54.15625 44.085938 L 54.414062 43.84375 L 54.535156 43.71875 L 54.652344 43.597656 L 54.765625 43.472656 L 54.875 43.347656 L 54.976562 43.222656 L 55.074219 43.09375 L 55.167969 42.964844 L 55.257812 42.835938 L 55.339844 42.703125 L 55.417969 42.574219 L 55.492188 42.4375 L 55.558594 42.300781 L 55.617188 42.160156 L 55.667969 42.011719 L 55.710938 41.863281 L 55.746094 41.710938 L 55.773438 41.558594 L 55.792969 41.398438 L 55.804688 41.234375 L 55.808594 41.070312 L 55.808594 40.953125 L 55.800781 40.839844 L 55.792969 40.730469 L 55.78125 40.625 L 55.765625 40.519531 L 55.746094 40.417969 L 55.722656 40.320312 L 55.667969 40.132812 L 55.632812 40.042969 L 55.597656 39.957031 L 55.554688 39.871094 L 55.46875 39.707031 L 55.367188 39.558594 L 55.25 39.417969 L 55.191406 39.355469 L 55.125 39.292969 L 55.058594 39.234375 L 54.988281 39.175781 L 54.914062 39.125 L 54.835938 39.074219 L 54.757812 39.027344 L 54.675781 38.984375 L 54.59375 38.945312 L 54.507812 38.90625 L 54.417969 38.875 L 54.230469 38.8125 L 54.136719 38.785156 L 54.039062 38.761719 L 53.941406 38.742188 L 53.839844 38.726562 L 53.734375 38.710938 L 53.628906 38.699219 L 53.519531 38.691406 L 53.410156 38.6875 L 53.195312 38.6875 L 53.089844 38.691406 L 52.988281 38.699219 L 52.785156 38.722656 L 52.6875 38.738281 L 52.589844 38.757812 L 52.492188 38.78125 L 52.398438 38.804688 L 52.304688 38.832031 L 52.210938 38.863281 L 52.125 38.898438 L 52.035156 38.933594 L 51.953125 38.972656 L 51.867188 39.015625 L 51.789062 39.0625 L 51.707031 39.109375 L 51.632812 39.160156 L 51.554688 39.214844 L 51.484375 39.273438 L 51.410156 39.332031 L 51.34375 39.394531 L 51.277344 39.460938 L 51.152344 39.601562 L 51.09375 39.675781 L 51.039062 39.753906 L 50.984375 39.835938 L 50.933594 39.917969 L 50.886719 40.003906 L 50.84375 40.09375 L 50.804688 40.183594 L 50.765625 40.277344 L 50.730469 40.371094 L 50.703125 40.472656 L 50.671875 40.574219 L 50.648438 40.679688 L 50.628906 40.785156 L 50.609375 40.898438 L 50.59375 41.011719 L 48.796875 40.84375 L 48.816406 40.695312 L 48.839844 40.550781 L 48.871094 40.40625 L 48.90625 40.265625 L 48.945312 40.125 L 48.988281 39.984375 L 49.035156 39.847656 L 49.085938 39.714844 L 49.144531 39.578125 L 49.207031 39.449219 L 49.273438 39.320312 L 49.347656 39.191406 L 49.421875 39.070312 L 49.503906 38.949219 L 49.589844 38.835938 L 49.683594 38.722656 L 49.777344 38.613281 L 49.878906 38.507812 L 49.984375 38.40625 L 50.097656 38.304688 L 50.210938 38.207031 L 50.332031 38.113281 L 50.457031 38.027344 L 50.585938 37.941406 L 50.71875 37.859375 L 50.855469 37.785156 L 51.144531 37.644531 L 51.296875 37.582031 L 51.453125 37.523438 L 51.617188 37.46875 L 51.785156 37.421875 L 51.957031 37.378906 L 52.132812 37.34375 L 52.316406 37.3125 L 52.503906 37.285156 L 52.695312 37.265625 L 52.890625 37.253906 L 53.09375 37.242188 L 53.5 37.242188 L 53.699219 37.25 L 53.894531 37.261719 L 54.269531 37.300781 L 54.449219 37.328125 L 54.625 37.359375 L 54.796875 37.398438 L 54.960938 37.4375 L 55.125 37.484375 L 55.28125 37.535156 L 55.433594 37.59375 L 55.582031 37.652344 L 55.726562 37.71875 L 55.863281 37.789062 L 55.996094 37.863281 L 56.121094 37.941406 L 56.242188 38.027344 L 56.359375 38.113281 L 56.472656 38.207031 L 56.582031 38.304688 L 56.683594 38.40625 L 56.78125 38.515625 L 56.875 38.625 L 56.964844 38.742188 L 57.046875 38.863281 L 57.121094 38.988281 L 57.195312 39.117188 L 57.261719 39.25 L 57.324219 39.390625 L 57.378906 39.53125 L 57.429688 39.679688 L 57.472656 39.832031 L 57.511719 39.984375 L 57.542969 40.144531 L 57.570312 40.308594 L 57.589844 40.480469 L 57.605469 40.652344 L 57.613281 40.828125 L 57.617188 41.011719 L 57.613281 41.148438 L 57.605469 41.285156 L 57.59375 41.421875 L 57.574219 41.554688 L 57.550781 41.6875 L 57.523438 41.816406 L 57.492188 41.949219 L 57.453125 42.074219 L 57.410156 42.203125 L 57.363281 42.328125 L 57.3125 42.453125 L 57.257812 42.578125 L 57.199219 42.699219 L 57.136719 42.820312 L 57.074219 42.9375 L 57.003906 43.058594 L 56.933594 43.175781 L 56.859375 43.292969 L 56.78125 43.40625 L 56.699219 43.519531 L 56.527344 43.746094 L 56.4375 43.855469 L 56.347656 43.96875 L 56.253906 44.078125 L 56.15625 44.1875 L 56.054688 44.292969 L 55.953125 44.402344 L 55.742188 44.613281 L 55.628906 44.71875 L 55.519531 44.824219 L 55.40625 44.929688 L 55.296875 45.03125 L 55.179688 45.136719 L 55.066406 45.238281 L 54.949219 45.34375 L 54.835938 45.445312 L 54.714844 45.546875 L 54.480469 45.75 L 54.359375 45.847656 L 54.238281 45.949219 L 54.121094 46.046875 L 54 46.148438 L 53.878906 46.246094 L 53.757812 46.347656 L 53.636719 46.445312 L 53.519531 46.546875 L 53.15625 46.839844 L 53.039062 46.9375 L 52.921875 47.039062 L 52.582031 47.332031 L 52.472656 47.433594 L 52.363281 47.53125 L 52.253906 47.632812 L 52.148438 47.730469 L 52.046875 47.832031 L 51.949219 47.933594 L 51.847656 48.03125 L 51.660156 48.234375 L 51.570312 48.339844 L 51.390625 48.542969 L 51.308594 48.648438 L 51.144531 48.851562 L 51.070312 48.957031 L 51 49.0625 L 50.933594 49.167969 L 50.871094 49.273438 L 50.808594 49.382812 L 50.753906 49.492188 L 50.652344 49.710938 L 57.832031 49.710938 L 57.832031 51.207031 Z M 48.71875 51.207031 "/>
<path fill-rule="nonzero" fill="rgb(30.196078%, 30.196078%, 30.196078%)" fill-opacity="1" d="M 207.820312 315.972656 L 207.820312 314.410156 L 212.703125 314.410156 L 212.703125 315.972656 Z M 207.820312 315.972656 "/>
<path fill-rule="nonzero" fill="rgb(30.196078%, 30.196078%, 30.196078%)" fill-opacity="1" d="M 215.117188 320.503906 L 215.117188 319.011719 L 218.621094 319.011719 L 218.621094 308.425781 L 215.515625 310.640625 L 215.515625 308.980469 L 218.769531 306.746094 L 220.390625 306.746094 L 220.390625 319.011719 L 223.738281 319.011719 L 223.738281 320.503906 Z M 215.117188 320.503906 "/>
<path fill-rule="nonzero" fill="rgb(30.196078%, 30.196078%, 30.196078%)" fill-opacity="1" d="M 366.683594 313.621094 L 366.679688 314.011719 L 366.667969 314.386719 L 366.648438 314.753906 L 366.625 315.105469 L 366.589844 315.445312 L 366.546875 315.773438 L 366.496094 316.089844 L 366.441406 316.390625 L 366.375 316.683594 L 366.304688 316.960938 L 366.226562 317.222656 L 366.144531 317.480469 L 366.054688 317.722656 L 365.960938 317.957031 L 365.863281 318.179688 L 365.757812 318.394531 L 365.644531 318.597656 L 365.527344 318.792969 L 365.40625 318.972656 L 365.277344 319.148438 L 365.148438 319.308594 L 365.011719 319.460938 L 364.871094 319.601562 L 364.726562 319.738281 L 364.574219 319.859375 L 364.421875 319.976562 L 364.261719 320.078125 L 364.097656 320.175781 L 363.929688 320.261719 L 363.753906 320.339844 L 363.578125 320.40625 L 363.398438 320.46875 L 363.214844 320.523438 L 363.03125 320.570312 L 362.847656 320.609375 L 362.65625 320.640625 L 362.464844 320.667969 L 362.273438 320.6875 L 362.078125 320.695312 L 361.878906 320.699219 L 361.679688 320.695312 L 361.484375 320.6875 L 361.289062 320.667969 L 361.097656 320.640625 L 360.90625 320.609375 L 360.722656 320.570312 L 360.539062 320.523438 L 360.359375 320.46875 L 360.179688 320.40625 L 360.003906 320.339844 L 359.832031 320.261719 L 359.664062 320.175781 L 359.503906 320.078125 L 359.34375 319.976562 L 359.191406 319.859375 L 359.042969 319.738281 L 358.898438 319.601562 L 358.757812 319.460938 L 358.621094 319.308594 L 358.492188 319.148438 L 358.367188 318.976562 L 358.246094 318.792969 L 358.132812 318.601562 L 358.023438 318.402344 L 357.921875 318.1875 L 357.824219 317.964844 L 357.730469 317.730469 L 357.644531 317.488281 L 357.5625 317.234375 L 357.484375 316.96875 L 357.417969 316.691406 L 357.355469 316.402344 L 357.300781 316.097656 L 357.253906 315.78125 L 357.214844 315.453125 L 357.179688 315.113281 L 357.15625 314.757812 L 357.136719 314.390625 L 357.128906 314.011719 L 357.125 313.621094 L 357.128906 313.210938 L 357.136719 312.816406 L 357.15625 312.4375 L 357.179688 312.070312 L 357.214844 311.71875 L 357.253906 311.382812 L 357.300781 311.0625 L 357.355469 310.753906 L 357.417969 310.460938 L 357.484375 310.183594 L 357.5625 309.914062 L 357.644531 309.65625 L 357.730469 309.414062 L 357.824219 309.179688 L 357.925781 308.953125 L 358.027344 308.742188 L 358.136719 308.542969 L 358.253906 308.351562 L 358.375 308.171875 L 358.5 308.003906 L 358.632812 307.847656 L 358.769531 307.699219 L 358.910156 307.5625 L 359.054688 307.433594 L 359.203125 307.316406 L 359.359375 307.207031 L 359.519531 307.109375 L 359.683594 307.019531 L 359.851562 306.941406 L 360.023438 306.871094 L 360.203125 306.808594 L 360.382812 306.753906 L 360.566406 306.703125 L 360.753906 306.660156 L 360.941406 306.621094 L 361.136719 306.59375 L 361.332031 306.570312 L 361.53125 306.554688 L 361.734375 306.542969 L 361.9375 306.539062 L 362.132812 306.542969 L 362.328125 306.554688 L 362.519531 306.570312 L 362.707031 306.59375 L 362.894531 306.621094 L 363.074219 306.660156 L 363.257812 306.703125 L 363.433594 306.753906 L 363.609375 306.808594 L 363.785156 306.871094 L 363.957031 306.941406 L 364.121094 307.019531 L 364.285156 307.109375 L 364.441406 307.207031 L 364.597656 307.316406 L 364.746094 307.433594 L 364.890625 307.5625 L 365.03125 307.699219 L 365.167969 307.847656 L 365.296875 308.003906 L 365.421875 308.171875 L 365.542969 308.351562 L 365.660156 308.542969 L 365.769531 308.742188 L 365.875 308.953125 L 365.972656 309.179688 L 366.066406 309.414062 L 366.152344 309.65625 L 366.234375 309.914062 L 366.3125 310.183594 L 366.382812 310.460938 L 366.445312 310.753906 L 366.503906 311.0625 L 366.550781 311.382812 L 366.589844 311.71875 L 366.625 312.070312 L 366.652344 312.4375 L 366.667969 312.816406 L 366.679688 313.210938 Z M 364.898438 313.621094 L 364.894531 313.296875 L 364.890625 312.984375 L 364.878906 312.6875 L 364.867188 312.398438 L 364.847656 312.117188 L 364.828125 311.851562 L 364.800781 311.597656 L 364.773438 311.351562 L 364.738281 311.117188 L 364.703125 310.894531 L 364.660156 310.679688 L 364.617188 310.476562 L 364.566406 310.28125 L 364.515625 310.09375 L 364.460938 309.914062 L 364.402344 309.746094 L 364.335938 309.585938 L 364.269531 309.433594 L 364.199219 309.289062 L 364.125 309.15625 L 364.046875 309.03125 L 363.964844 308.910156 L 363.882812 308.800781 L 363.792969 308.695312 L 363.699219 308.601562 L 363.605469 308.511719 L 363.507812 308.433594 L 363.402344 308.359375 L 363.296875 308.296875 L 363.1875 308.238281 L 363.078125 308.1875 L 362.964844 308.140625 L 362.847656 308.101562 L 362.726562 308.0625 L 362.476562 308.007812 L 362.347656 307.992188 L 362.214844 307.976562 L 362.078125 307.96875 L 361.9375 307.964844 L 361.792969 307.96875 L 361.648438 307.976562 L 361.507812 307.992188 L 361.371094 308.007812 L 361.238281 308.035156 L 361.109375 308.0625 L 360.984375 308.101562 L 360.863281 308.140625 L 360.746094 308.1875 L 360.628906 308.238281 L 360.519531 308.296875 L 360.410156 308.363281 L 360.304688 308.4375 L 360.203125 308.519531 L 360.105469 308.609375 L 360.011719 308.703125 L 359.921875 308.808594 L 359.835938 308.921875 L 359.753906 309.039062 L 359.671875 309.167969 L 359.597656 309.300781 L 359.527344 309.441406 L 359.460938 309.59375 L 359.398438 309.753906 L 359.339844 309.921875 L 359.28125 310.101562 L 359.230469 310.289062 L 359.183594 310.484375 L 359.136719 310.691406 L 359.097656 310.90625 L 359.058594 311.128906 L 359.027344 311.359375 L 358.996094 311.605469 L 358.972656 311.859375 L 358.949219 312.125 L 358.933594 312.402344 L 358.917969 312.691406 L 358.910156 312.988281 L 358.902344 313.300781 L 358.902344 313.929688 L 358.910156 314.234375 L 358.917969 314.523438 L 358.933594 314.804688 L 358.949219 315.078125 L 358.972656 315.339844 L 358.996094 315.589844 L 359.027344 315.832031 L 359.058594 316.0625 L 359.097656 316.285156 L 359.140625 316.5 L 359.183594 316.703125 L 359.234375 316.898438 L 359.289062 317.085938 L 359.34375 317.265625 L 359.40625 317.4375 L 359.46875 317.597656 L 359.535156 317.75 L 359.609375 317.898438 L 359.683594 318.035156 L 359.761719 318.160156 L 359.84375 318.28125 L 359.933594 318.394531 L 360.019531 318.5 L 360.113281 318.597656 L 360.210938 318.6875 L 360.3125 318.773438 L 360.414062 318.851562 L 360.519531 318.917969 L 360.628906 318.980469 L 360.742188 319.035156 L 360.859375 319.082031 L 360.976562 319.125 L 361.101562 319.164062 L 361.226562 319.195312 L 361.355469 319.21875 L 361.484375 319.238281 L 361.621094 319.253906 L 361.757812 319.261719 L 361.898438 319.265625 L 362.035156 319.261719 L 362.171875 319.253906 L 362.304688 319.238281 L 362.433594 319.21875 L 362.558594 319.195312 L 362.683594 319.164062 L 362.804688 319.125 L 362.921875 319.082031 L 363.035156 319.035156 L 363.148438 318.980469 L 363.257812 318.917969 L 363.363281 318.851562 L 363.46875 318.773438 L 363.566406 318.6875 L 363.660156 318.597656 L 363.753906 318.5 L 363.84375 318.394531 L 363.925781 318.28125 L 364.007812 318.160156 L 364.085938 318.035156 L 364.164062 317.898438 L 364.234375 317.75 L 364.304688 317.597656 L 364.371094 317.4375 L 364.429688 317.265625 L 364.488281 317.085938 L 364.542969 316.898438 L 364.59375 316.703125 L 364.640625 316.5 L 364.683594 316.285156 L 364.722656 316.0625 L 364.757812 315.832031 L 364.792969 315.589844 L 364.820312 315.339844 L 364.84375 315.078125 L 364.863281 314.804688 L 364.878906 314.523438 L 364.886719 314.234375 L 364.894531 313.929688 Z M 364.898438 313.621094 "/>
<path fill-rule="nonzero" fill="rgb(30.196078%, 30.196078%, 30.196078%)" fill-opacity="1" d="M 503.945312 320.503906 L 503.945312 319.011719 L 507.453125 319.011719 L 507.453125 308.425781 L 504.347656 310.640625 L 504.347656 308.980469 L 507.597656 306.746094 L 509.21875 306.746094 L 509.21875 319.011719 L 512.570312 319.011719 L 512.570312 320.503906 Z M 503.945312 320.503906 "/>
<path fill-rule="nonzero" fill="rgb(30.196078%, 30.196078%, 30.196078%)" fill-opacity="1" d="M 649.507812 320.503906 L 649.507812 319.265625 L 649.609375 319.039062 L 649.714844 318.820312 L 649.824219 318.605469 L 649.941406 318.394531 L 650.058594 318.191406 L 650.183594 317.992188 L 650.308594 317.800781 L 650.441406 317.613281 L 650.578125 317.429688 L 650.71875 317.253906 L 650.863281 317.078125 L 651.160156 316.742188 L 651.308594 316.578125 L 651.457031 316.417969 L 651.609375 316.261719 L 651.765625 316.109375 L 651.917969 315.960938 L 652.074219 315.8125 L 652.230469 315.671875 L 652.390625 315.53125 L 652.546875 315.390625 L 652.707031 315.253906 L 652.863281 315.117188 L 653.019531 314.984375 L 653.332031 314.726562 L 653.484375 314.597656 L 653.640625 314.476562 L 653.792969 314.351562 L 653.949219 314.230469 L 654.101562 314.109375 L 654.25 313.988281 L 654.394531 313.867188 L 654.675781 313.625 L 654.8125 313.503906 L 654.945312 313.382812 L 655.074219 313.261719 L 655.324219 313.019531 L 655.441406 312.898438 L 655.554688 312.773438 L 655.660156 312.648438 L 655.765625 312.519531 L 655.863281 312.394531 L 655.957031 312.265625 L 656.042969 312.136719 L 656.128906 312.003906 L 656.207031 311.871094 L 656.28125 311.738281 L 656.347656 311.597656 L 656.40625 311.457031 L 656.457031 311.3125 L 656.5 311.164062 L 656.535156 311.011719 L 656.5625 310.855469 L 656.582031 310.695312 L 656.59375 310.535156 L 656.597656 310.367188 L 656.597656 310.253906 L 656.589844 310.140625 L 656.582031 310.03125 L 656.570312 309.921875 L 656.554688 309.820312 L 656.535156 309.71875 L 656.511719 309.621094 L 656.484375 309.523438 L 656.457031 309.433594 L 656.386719 309.253906 L 656.34375 309.167969 L 656.300781 309.085938 L 656.257812 309.007812 L 656.207031 308.929688 L 656.15625 308.855469 L 656.097656 308.785156 L 655.980469 308.652344 L 655.914062 308.589844 L 655.847656 308.53125 L 655.777344 308.476562 L 655.703125 308.421875 L 655.546875 308.328125 L 655.382812 308.242188 L 655.296875 308.207031 L 655.207031 308.171875 L 655.113281 308.140625 L 654.925781 308.085938 L 654.828125 308.0625 L 654.730469 308.042969 L 654.628906 308.023438 L 654.417969 308 L 654.308594 307.992188 L 654.199219 307.988281 L 654.085938 307.984375 L 653.984375 307.988281 L 653.878906 307.992188 L 653.675781 308.007812 L 653.574219 308.023438 L 653.476562 308.039062 L 653.28125 308.078125 L 653.1875 308.105469 L 653.089844 308.132812 L 652.910156 308.195312 L 652.738281 308.273438 L 652.574219 308.359375 L 652.417969 308.460938 L 652.269531 308.570312 L 652.199219 308.632812 L 652.132812 308.695312 L 652.066406 308.761719 L 652.003906 308.828125 L 651.941406 308.902344 L 651.882812 308.976562 L 651.773438 309.132812 L 651.722656 309.21875 L 651.675781 309.304688 L 651.632812 309.390625 L 651.59375 309.480469 L 651.554688 309.574219 L 651.519531 309.671875 L 651.488281 309.769531 L 651.460938 309.871094 L 651.4375 309.976562 L 651.398438 310.195312 L 651.382812 310.308594 L 649.585938 310.144531 L 649.605469 309.996094 L 649.628906 309.851562 L 649.660156 309.707031 L 649.695312 309.5625 L 649.730469 309.421875 L 649.824219 309.148438 L 649.875 309.011719 L 649.933594 308.878906 L 649.996094 308.746094 L 650.0625 308.617188 L 650.132812 308.492188 L 650.210938 308.371094 L 650.292969 308.25 L 650.378906 308.132812 L 650.46875 308.023438 L 650.566406 307.914062 L 650.667969 307.804688 L 650.773438 307.703125 L 650.882812 307.605469 L 651 307.507812 L 651.121094 307.414062 L 651.246094 307.324219 L 651.375 307.242188 L 651.507812 307.160156 L 651.644531 307.085938 L 651.789062 307.011719 L 651.933594 306.945312 L 652.085938 306.882812 L 652.242188 306.824219 L 652.40625 306.769531 L 652.570312 306.722656 L 652.746094 306.679688 L 652.921875 306.640625 L 653.105469 306.609375 L 653.289062 306.585938 L 653.484375 306.566406 L 653.679688 306.550781 L 653.882812 306.542969 L 654.085938 306.539062 L 654.289062 306.542969 L 654.488281 306.550781 L 654.683594 306.5625 L 654.871094 306.578125 L 655.058594 306.601562 L 655.238281 306.628906 L 655.414062 306.660156 L 655.585938 306.695312 L 655.75 306.738281 L 655.914062 306.785156 L 656.070312 306.835938 L 656.222656 306.890625 L 656.371094 306.953125 L 656.515625 307.015625 L 656.652344 307.085938 L 656.785156 307.160156 L 656.910156 307.242188 L 657.03125 307.324219 L 657.148438 307.414062 L 657.261719 307.507812 L 657.371094 307.605469 L 657.472656 307.707031 L 657.570312 307.8125 L 657.664062 307.925781 L 657.753906 308.042969 L 657.835938 308.160156 L 657.910156 308.285156 L 657.984375 308.417969 L 658.050781 308.550781 L 658.109375 308.6875 L 658.167969 308.832031 L 658.214844 308.976562 L 658.261719 309.128906 L 658.296875 309.285156 L 658.332031 309.445312 L 658.355469 309.609375 L 658.378906 309.777344 L 658.390625 309.949219 L 658.402344 310.128906 L 658.402344 310.449219 L 658.394531 310.585938 L 658.382812 310.71875 L 658.363281 310.851562 L 658.339844 310.984375 L 658.3125 311.117188 L 658.28125 311.246094 L 658.242188 311.375 L 658.199219 311.503906 L 658.148438 311.628906 L 658.101562 311.753906 L 658.046875 311.875 L 657.988281 311.996094 L 657.863281 312.238281 L 657.722656 312.472656 L 657.648438 312.589844 L 657.570312 312.707031 L 657.484375 312.820312 L 657.402344 312.933594 L 657.316406 313.042969 L 657.226562 313.15625 L 657.136719 313.265625 L 657.042969 313.375 L 656.945312 313.484375 L 656.84375 313.59375 L 656.742188 313.699219 L 656.636719 313.808594 L 656.308594 314.125 L 656.195312 314.226562 L 656.082031 314.332031 L 655.96875 314.433594 L 655.855469 314.539062 L 655.738281 314.640625 L 655.621094 314.746094 L 655.386719 314.949219 L 655.265625 315.046875 L 655.148438 315.148438 L 655.027344 315.246094 L 654.910156 315.347656 L 654.789062 315.445312 L 654.667969 315.546875 L 654.546875 315.644531 L 654.425781 315.746094 L 654.304688 315.84375 L 654.183594 315.945312 L 654.066406 316.042969 L 653.945312 316.140625 L 653.710938 316.335938 L 653.597656 316.433594 L 653.484375 316.535156 L 653.371094 316.632812 L 653.261719 316.730469 L 653.152344 316.832031 L 653.042969 316.929688 L 652.9375 317.03125 L 652.835938 317.128906 L 652.734375 317.230469 L 652.636719 317.332031 L 652.355469 317.636719 L 652.269531 317.738281 L 652.179688 317.84375 L 652.09375 317.945312 L 652.011719 318.046875 L 651.933594 318.152344 L 651.859375 318.253906 L 651.789062 318.359375 L 651.722656 318.464844 L 651.660156 318.574219 L 651.597656 318.679688 L 651.488281 318.898438 L 651.441406 319.011719 L 658.617188 319.011719 L 658.617188 320.503906 Z M 649.507812 320.503906 "/>
<path fill-rule="nonzero" fill="rgb(0%, 0%, 0%)" fill-opacity="1" d="M 391.617188 343.394531 L 388.777344 339.058594 L 385.914062 343.394531 L 384.019531 343.394531 L 387.78125 337.964844 L 384.195312 332.828125 L 386.140625 332.828125 L 388.777344 336.941406 L 391.394531 332.828125 L 393.355469 332.828125 L 389.773438 337.945312 L 393.582031 343.394531 Z M 391.617188 343.394531 "/>
<path fill-rule="nonzero" fill="rgb(0%, 0%, 0%)" fill-opacity="1" d="M 26.214844 153.097656 L 26.589844 153.246094 L 26.769531 153.320312 L 26.949219 153.398438 L 27.121094 153.472656 L 27.292969 153.550781 L 27.457031 153.625 L 27.621094 153.703125 L 27.933594 153.859375 L 28.230469 154.015625 L 28.375 154.097656 L 28.511719 154.179688 L 28.644531 154.265625 L 28.773438 154.351562 L 28.898438 154.441406 L 29.015625 154.53125 L 29.242188 154.71875 L 29.347656 154.816406 L 29.449219 154.914062 L 29.636719 155.117188 L 29.722656 155.222656 L 29.800781 155.332031 L 29.875 155.441406 L 29.945312 155.550781 L 30.011719 155.667969 L 30.070312 155.78125 L 30.125 155.902344 L 30.175781 156.023438 L 30.21875 156.148438 L 30.257812 156.277344 L 30.289062 156.414062 L 30.316406 156.546875 L 30.335938 156.6875 L 30.351562 156.832031 L 30.359375 156.980469 L 30.363281 157.128906 L 30.363281 157.324219 L 30.359375 157.386719 L 30.359375 157.449219 L 30.355469 157.511719 L 30.355469 157.570312 L 30.34375 157.746094 L 30.339844 157.800781 L 30.335938 157.859375 L 30.304688 158.09375 L 30.28125 158.21875 L 30.269531 158.277344 L 30.257812 158.339844 L 28.9375 158.339844 L 28.941406 158.304688 L 28.949219 158.265625 L 28.953125 158.226562 L 28.957031 158.183594 L 28.960938 158.144531 L 28.96875 158.058594 L 28.972656 158.011719 L 28.972656 157.96875 L 28.984375 157.828125 L 28.988281 157.785156 L 28.988281 157.746094 L 28.992188 157.703125 L 28.992188 157.664062 L 28.996094 157.625 L 28.996094 157.519531 L 28.992188 157.367188 L 28.972656 157.214844 L 28.945312 157.066406 L 28.902344 156.921875 L 28.851562 156.777344 L 28.789062 156.632812 L 28.714844 156.492188 L 28.628906 156.355469 L 28.53125 156.21875 L 28.421875 156.085938 L 28.296875 155.953125 L 28.164062 155.824219 L 28.011719 155.703125 L 27.851562 155.582031 L 27.671875 155.460938 L 27.484375 155.347656 L 27.277344 155.238281 L 27.0625 155.128906 L 26.828125 155.023438 L 26.585938 154.921875 L 26.164062 154.757812 L 15.648438 158.945312 L 15.648438 157.070312 L 21.488281 154.84375 L 21.539062 154.824219 L 21.597656 154.804688 L 21.660156 154.78125 L 21.792969 154.734375 L 21.867188 154.710938 L 21.941406 154.683594 L 22.019531 154.65625 L 22.101562 154.628906 L 22.191406 154.601562 L 22.277344 154.570312 L 22.367188 154.539062 L 22.453125 154.507812 L 22.542969 154.476562 L 22.628906 154.445312 L 22.71875 154.417969 L 22.804688 154.386719 L 22.894531 154.355469 L 22.980469 154.328125 L 23.070312 154.296875 L 23.15625 154.265625 L 23.242188 154.238281 L 23.324219 154.207031 L 23.40625 154.179688 L 23.640625 154.097656 L 23.714844 154.074219 L 23.789062 154.046875 L 23.859375 154.023438 L 23.925781 154.003906 L 23.988281 153.980469 L 24.046875 153.964844 L 24.097656 153.945312 L 24.144531 153.933594 L 24.1875 153.917969 L 24.222656 153.910156 L 24.253906 153.898438 L 24.277344 153.894531 L 24.300781 153.886719 L 24.277344 153.882812 L 24.246094 153.871094 L 24.214844 153.863281 L 24.179688 153.851562 L 24.140625 153.839844 L 24.097656 153.824219 L 24.046875 153.808594 L 23.996094 153.789062 L 23.941406 153.773438 L 23.878906 153.75 L 23.679688 153.679688 L 23.609375 153.652344 L 23.539062 153.628906 L 23.46875 153.601562 L 23.394531 153.578125 L 23.320312 153.550781 L 23.242188 153.523438 L 23.167969 153.496094 L 23.089844 153.46875 L 23.007812 153.4375 L 22.929688 153.410156 L 22.851562 153.378906 L 22.773438 153.351562 L 22.695312 153.320312 L 22.613281 153.292969 L 22.535156 153.261719 L 22.457031 153.234375 L 22.375 153.203125 L 22.21875 153.148438 L 22.070312 153.09375 L 22 153.070312 L 21.867188 153.023438 L 21.804688 153 L 21.742188 152.980469 L 21.683594 152.960938 L 15.648438 150.890625 L 15.648438 149.035156 Z M 26.214844 153.097656 "/>
</svg>
