<?xml version="1.0" encoding="UTF-8"?>
<svg xmlns="http://www.w3.org/2000/svg" xmlns:xlink="http://www.w3.org/1999/xlink" width="720" height="360" viewBox="0 0 720 360">
<defs>
<clipPath id="clip-0">
<path clip-rule="nonzero" d="M 70.042969 269 L 707.546875 269 L 707.546875 273 L 70.042969 273 Z M 70.042969 269 "/>
</clipPath>
<clipPath id="clip-1">
<path clip-rule="nonzero" d="M 70.042969 217 L 707.546875 217 L 707.546875 220 L 70.042969 220 Z M 70.042969 217 "/>
</clipPath>
<clipPath id="clip-2">
<path clip-rule="nonzero" d="M 70.042969 165 L 707.546875 165 L 707.546875 168 L 70.042969 168 Z M 70.042969 165 "/>
</clipPath>
<clipPath id="clip-3">
<path clip-rule="nonzero" d="M 70.042969 113 L 707.546875 113 L 707.546875 116 L 70.042969 116 Z M 70.042969 113 "/>
</clipPath>
<clipPath id="clip-4">
<path clip-rule="nonzero" d="M 70.042969 61 L 707.546875 61 L 707.546875 64 L 70.042969 64 Z M 70.042969 61 "/>
</clipPath>
<clipPath id="clip-5">
<path clip-rule="nonzero" d="M 169 12.453125 L 173 12.453125 L 173 295.535156 L 169 295.535156 Z M 169 12.453125 "/>
</clipPath>
<clipPath id="clip-6">
<path clip-rule="nonzero" d="M 307 12.453125 L 310 12.453125 L 310 295.535156 L 307 295.535156 Z M 307 12.453125 "/>
</clipPath>
<clipPath id="clip-7">
<path clip-rule="nonzero" d="M 444 12.453125 L 447 12.453125 L 447 295.535156 L 444 295.535156 Z M 444 12.453125 "/>
</clipPath>
<clipPath id="clip-8">
<path clip-rule="nonzero" d="M 581 12.453125 L 584 12.453125 L 584 295.535156 L 581 295.535156 Z M 581 12.453125 "/>
</clipPath>
</defs>
<rect x="-72" y="-36" width="864" height="432" fill="rgb(100%, 100%, 100%)" fill-opacity="1"/>
<g clip-path="url(#clip-0)">
<path fill="none" stroke-width="2.424951" stroke-linecap="butt" stroke-linejoin="round" stroke="rgb(92.156863%, 92.156863%, 92.156863%)" stroke-opacity="1" stroke-miterlimit="10" d="M 70.042969 270.792969 L 707.546875 270.792969 "/>
</g>
<g clip-path="url(#clip-1)">
<path fill="none" stroke-width="2.424951" stroke-linecap="butt" stroke-linejoin="round" stroke="rgb(92.156863%, 92.156863%, 92.156863%)" stroke-opacity="1" stroke-miterlimit="10" d="M 70.042969 218.714844 L 707.546875 218.714844 "/>
</g>
<g clip-path="url(#clip-2)">
<path fill="none" stroke-width="2.424951" stroke-linecap="butt" stroke-linejoin="round" stroke="rgb(92.156863%, 92.156863%, 92.156863%)" stroke-opacity="1" stroke-miterlimit="10" d="M 70.042969 166.640625 L 707.546875 166.640625 "/>
</g>
<g clip-path="url(#clip-3)">
<path fill="none" stroke-width="2.424951" stroke-linecap="butt" stroke-linejoin="round" stroke="rgb(92.156863%, 92.156863%, 92.156863%)" stroke-opacity="1" stroke-miterlimit="10" d="M 70.042969 114.5625 L 707.546875 114.5625 "/>
</g>
<g clip-path="url(#clip-4)">
<path fill="none" stroke-width="2.424951" stroke-linecap="butt" stroke-linejoin="round" stroke="rgb(92.156863%, 92.156863%, 92.156863%)" stroke-opacity="1" stroke-miterlimit="10" d="M 70.042969 62.488281 L 707.546875 62.488281 "/>
</g>
<g clip-path="url(#clip-5)">
<path fill="none" stroke-width="2.424951" stroke-linecap="butt" stroke-linejoin="round" stroke="rgb(92.156863%, 92.156863%, 92.156863%)" stroke-opacity="1" stroke-miterlimit="10" d="M 170.941406 295.535156 L 170.941406 12.453125 "/>
</g>
<g clip-path="url(#clip-6)">
<path fill="none" stroke-width="2.424951" stroke-linecap="butt" stroke-linejoin="round" stroke="rgb(92.156863%, 92.156863%, 92.156863%)" stroke-opacity="1" stroke-miterlimit="10" d="M 308.21875 295.535156 L 308.21875 12.453125 "/>
</g>
<g clip-path="url(#clip-7)">
<path fill="none" stroke-width="2.424951" stroke-linecap="butt" stroke-linejoin="round" stroke="rgb(92.156863%, 92.156863%, 92.156863%)" stroke-opacity="1" stroke-miterlimit="10" d="M 445.496094 295.535156 L 445.496094 12.453125 "/>
</g>
<g clip-path="url(#clip-8)">
<path fill="none" stroke-width="2.424951" stroke-linecap="butt" stroke-linejoin="round" stroke="rgb(92.156863%, 92.156863%, 92.156863%)" stroke-opacity="1" stroke-miterlimit="10" d="M 582.777344 295.535156 L 582.777344 12.453125 "/>
</g>
<path fill-rule="nonzero" fill="rgb(0%, 0%, 0%)" fill-opacity="1" stroke-width="0.708661" stroke-linecap="round" stroke-linejoin="round" stroke="rgb(0%, 0%, 0%)" stroke-opacity="1" stroke-miterlimit="10" d="M 509.988281 208.933594 C 509.988281 211.542969 506.078125 211.542969 506.078125 208.933594 C 506.078125 206.328125 509.988281 206.328125 509.988281 208.933594 "/>
<path fill-rule="nonzero" fill="rgb(0%, 0%, 0%)" fill-opacity="1" stroke-width="0.708661" stroke-linecap="round" stroke-linejoin="round" stroke="rgb(0%, 0%, 0%)" stroke-opacity="1" stroke-miterlimit="10" d="M 489.082031 103.691406 C 489.082031 106.296875 485.171875 106.296875 485.171875 103.691406 C 485.171875 101.085938 489.082031 101.085938 489.082031 103.691406 "/>
<path fill-rule="nonzero" fill="rgb(0%, 0%, 0%)" fill-opacity="1" stroke-width="0.708661" stroke-linecap="round" stroke-linejoin="round" stroke="rgb(0%, 0%, 0%)" stroke-opacity="1" stroke-miterlimit="10" d="M 375.136719 170.582031 C 375.136719 173.191406 371.226562 173.191406 371.226562 170.582031 C 371.226562 167.976562 375.136719 167.976562 375.136719 170.582031 "/>
<path fill-rule="nonzero" fill="rgb(0%, 0%, 0%)" fill-opacity="1" stroke-width="0.708661" stroke-linecap="round" stroke-linejoin="round" stroke="rgb(0%, 0%, 0%)" stroke-opacity="1" stroke-miterlimit="10" d="M 512.703125 240.042969 C 512.703125 242.648438 508.792969 242.648438 508.792969 240.042969 C 508.792969 237.433594 512.703125 237.433594 512.703125 240.042969 "/>
<path fill-rule="nonzero" fill="rgb(0%, 0%, 0%)" fill-opacity="1" stroke-width="0.708661" stroke-linecap="round" stroke-linejoin="round" stroke="rgb(0%, 0%, 0%)" stroke-opacity="1" stroke-miterlimit="10" d="M 488.871094 196.453125 C 488.871094 199.058594 484.960938 199.058594 484.960938 196.453125 C 484.960938 193.847656 488.871094 193.847656 488.871094 196.453125 "/>
<path fill-rule="nonzero" fill="rgb(0%, 0%, 0%)" fill-opacity="1" stroke-width="0.708661" stroke-linecap="round" stroke-linejoin="round" stroke="rgb(0%, 0%, 0%)" stroke-opacity="1" stroke-miterlimit="10" d="M 528.089844 105.3125 C 528.089844 107.917969 524.179688 107.917969 524.179688 105.3125 C 524.179688 102.703125 528.089844 102.703125 528.089844 105.3125 "/>
<path fill-rule="nonzero" fill="rgb(0%, 0%, 0%)" fill-opacity="1" stroke-width="0.708661" stroke-linecap="round" stroke-linejoin="round" stroke="rgb(0%, 0%, 0%)" stroke-opacity="1" stroke-miterlimit="10" d="M 363.257812 241.898438 C 363.257812 244.503906 359.347656 244.503906 359.347656 241.898438 C 359.347656 239.289062 363.257812 239.289062 363.257812 241.898438 "/>
<path fill-rule="nonzero" fill="rgb(0%, 0%, 0%)" fill-opacity="1" stroke-width="0.708661" stroke-linecap="round" stroke-linejoin="round" stroke="rgb(0%, 0%, 0%)" stroke-opacity="1" stroke-miterlimit="10" d="M 358.007812 123.152344 C 358.007812 125.757812 354.097656 125.757812 354.097656 123.152344 C 354.097656 120.546875 358.007812 120.546875 358.007812 123.152344 "/>
<path fill-rule="nonzero" fill="rgb(0%, 0%, 0%)" fill-opacity="1" stroke-width="0.708661" stroke-linecap="round" stroke-linejoin="round" stroke="rgb(0%, 0%, 0%)" stroke-opacity="1" stroke-miterlimit="10" d="M 434.023438 124.621094 C 434.023438 127.226562 430.113281 127.226562 430.113281 124.621094 C 430.113281 122.011719 434.023438 122.011719 434.023438 124.621094 "/>
<path fill-rule="nonzero" fill="rgb(0%, 0%, 0%)" fill-opacity="1" stroke-width="0.708661" stroke-linecap="round" stroke-linejoin="round" stroke="rgb(0%, 0%, 0%)" stroke-opacity="1" stroke-miterlimit="10" d="M 416.535156 212.21875 C 416.535156 214.824219 412.625 214.824219 412.625 212.21875 C 412.625 209.613281 416.535156 209.613281 416.535156 212.21875 "/>
<path fill-rule="nonzero" fill="rgb(0%, 0%, 0%)" fill-opacity="1" stroke-width="0.708661" stroke-linecap="round" stroke-linejoin="round" stroke="rgb(0%, 0%, 0%)" stroke-opacity="1" stroke-miterlimit="10" d="M 346.761719 114.765625 C 346.761719 117.371094 342.851562 117.371094 342.851562 114.765625 C 342.851562 112.15625 346.761719 112.15625 346.761719 114.765625 "/>
<path fill-rule="nonzero" fill="rgb(0%, 0%, 0%)" fill-opacity="1" stroke-width="0.708661" stroke-linecap="round" stroke-linejoin="round" stroke="rgb(0%, 0%, 0%)" stroke-opacity="1" stroke-miterlimit="10" d="M 388.84375 194.425781 C 388.84375 197.03125 384.933594 197.03125 384.933594 194.425781 C 384.933594 191.816406 388.84375 191.816406 388.84375 194.425781 "/>
<path fill-rule="nonzero" fill="rgb(0%, 0%, 0%)" fill-opacity="1" stroke-width="0.708661" stroke-linecap="round" stroke-linejoin="round" stroke="rgb(0%, 0%, 0%)" stroke-opacity="1" stroke-miterlimit="10" d="M 455.199219 236.292969 C 455.199219 238.902344 451.289062 238.902344 451.289062 236.292969 C 451.289062 233.6875 455.199219 233.6875 455.199219 236.292969 "/>
<path fill-rule="nonzero" fill="rgb(0%, 0%, 0%)" fill-opacity="1" stroke-width="0.708661" stroke-linecap="round" stroke-linejoin="round" stroke="rgb(0%, 0%, 0%)" stroke-opacity="1" stroke-miterlimit="10" d="M 440.851562 189.792969 C 440.851562 192.398438 436.941406 192.398438 436.941406 189.792969 C 436.941406 187.1875 440.851562 187.1875 440.851562 189.792969 "/>
<path fill-rule="nonzero" fill="rgb(0%, 0%, 0%)" fill-opacity="1" stroke-width="0.708661" stroke-linecap="round" stroke-linejoin="round" stroke="rgb(0%, 0%, 0%)" stroke-opacity="1" stroke-miterlimit="10" d="M 425.652344 134.660156 C 425.652344 137.265625 421.742188 137.265625 421.742188 134.660156 C 421.742188 132.050781 425.652344 132.050781 425.652344 134.660156 "/>
<path fill-rule="nonzero" fill="rgb(0%, 0%, 0%)" fill-opacity="1" stroke-width="0.708661" stroke-linecap="round" stroke-linejoin="round" stroke="rgb(0%, 0%, 0%)" stroke-opacity="1" stroke-miterlimit="10" d="M 487.394531 153.855469 C 487.394531 156.460938 483.484375 156.460938 483.484375 153.855469 C 483.484375 151.25 487.394531 151.25 487.394531 153.855469 "/>
<path fill-rule="nonzero" fill="rgb(0%, 0%, 0%)" fill-opacity="1" stroke-width="0.708661" stroke-linecap="round" stroke-linejoin="round" stroke="rgb(0%, 0%, 0%)" stroke-opacity="1" stroke-miterlimit="10" d="M 431.574219 188.742188 C 431.574219 191.347656 427.664062 191.347656 427.664062 188.742188 C 427.664062 186.136719 431.574219 186.136719 431.574219 188.742188 "/>
<path fill-rule="nonzero" fill="rgb(0%, 0%, 0%)" fill-opacity="1" stroke-width="0.708661" stroke-linecap="round" stroke-linejoin="round" stroke="rgb(0%, 0%, 0%)" stroke-opacity="1" stroke-miterlimit="10" d="M 536.097656 177.816406 C 536.097656 180.421875 532.191406 180.421875 532.191406 177.816406 C 532.191406 175.210938 536.097656 175.210938 536.097656 177.816406 "/>
<path fill-rule="nonzero" fill="rgb(0%, 0%, 0%)" fill-opacity="1" stroke-width="0.708661" stroke-linecap="round" stroke-linejoin="round" stroke="rgb(0%, 0%, 0%)" stroke-opacity="1" stroke-miterlimit="10" d="M 398.644531 242.105469 C 398.644531 244.714844 394.734375 244.714844 394.734375 242.105469 C 394.734375 239.5 398.644531 239.5 398.644531 242.105469 "/>
<path fill-rule="nonzero" fill="rgb(0%, 0%, 0%)" fill-opacity="1" stroke-width="0.708661" stroke-linecap="round" stroke-linejoin="round" stroke="rgb(0%, 0%, 0%)" stroke-opacity="1" stroke-miterlimit="10" d="M 351.132812 195.847656 C 351.132812 198.453125 347.222656 198.453125 347.222656 195.847656 C 347.222656 193.238281 351.132812 193.238281 351.132812 195.847656 "/>
<path fill-rule="nonzero" fill="rgb(0%, 0%, 0%)" fill-opacity="1" stroke-width="0.708661" stroke-linecap="round" stroke-linejoin="round" stroke="rgb(0%, 0%, 0%)" stroke-opacity="1" stroke-miterlimit="10" d="M 439.476562 186.46875 C 439.476562 189.074219 435.566406 189.074219 435.566406 186.46875 C 435.566406 183.863281 439.476562 183.863281 439.476562 186.46875 "/>
<path fill-rule="nonzero" fill="rgb(0%, 0%, 0%)" fill-opacity="1" stroke-width="0.708661" stroke-linecap="round" stroke-linejoin="round" stroke="rgb(0%, 0%, 0%)" stroke-opacity="1" stroke-miterlimit="10" d="M 573.046875 98.304688 C 573.046875 100.910156 569.136719 100.910156 569.136719 98.304688 C 569.136719 95.699219 573.046875 95.699219 573.046875 98.304688 "/>
<path fill-rule="nonzero" fill="rgb(0%, 0%, 0%)" fill-opacity="1" stroke-width="0.708661" stroke-linecap="round" stroke-linejoin="round" stroke="rgb(0%, 0%, 0%)" stroke-opacity="1" stroke-miterlimit="10" d="M 193.699219 224.117188 C 193.699219 226.722656 189.789062 226.722656 189.789062 224.117188 C 189.789062 221.511719 193.699219 221.511719 193.699219 224.117188 "/>
<path fill-rule="nonzero" fill="rgb(0%, 0%, 0%)" fill-opacity="1" stroke-width="0.708661" stroke-linecap="round" stroke-linejoin="round" stroke="rgb(0%, 0%, 0%)" stroke-opacity="1" stroke-miterlimit="10" d="M 455.621094 139.871094 C 455.621094 142.476562 451.710938 142.476562 451.710938 139.871094 C 451.710938 137.261719 455.621094 137.261719 455.621094 139.871094 "/>
<path fill-rule="nonzero" fill="rgb(0%, 0%, 0%)" fill-opacity="1" stroke-width="0.708661" stroke-linecap="round" stroke-linejoin="round" stroke="rgb(0%, 0%, 0%)" stroke-opacity="1" stroke-miterlimit="10" d="M 360.082031 227.074219 C 360.082031 229.679688 356.171875 229.679688 356.171875 227.074219 C 356.171875 224.46875 360.082031 224.46875 360.082031 227.074219 "/>
<path fill-rule="nonzero" fill="rgb(0%, 0%, 0%)" fill-opacity="1" stroke-width="0.708661" stroke-linecap="round" stroke-linejoin="round" stroke="rgb(0%, 0%, 0%)" stroke-opacity="1" stroke-miterlimit="10" d="M 595.550781 101.574219 C 595.550781 104.183594 591.640625 104.183594 591.640625 101.574219 C 591.640625 98.96875 595.550781 98.96875 595.550781 101.574219 "/>
<path fill-rule="nonzero" fill="rgb(0%, 0%, 0%)" fill-opacity="1" stroke-width="0.708661" stroke-linecap="round" stroke-linejoin="round" stroke="rgb(0%, 0%, 0%)" stroke-opacity="1" stroke-miterlimit="10" d="M 489.390625 141.828125 C 489.390625 144.433594 485.480469 144.433594 485.480469 141.828125 C 485.480469 139.222656 489.390625 139.222656 489.390625 141.828125 "/>
<path fill-rule="nonzero" fill="rgb(0%, 0%, 0%)" fill-opacity="1" stroke-width="0.708661" stroke-linecap="round" stroke-linejoin="round" stroke="rgb(0%, 0%, 0%)" stroke-opacity="1" stroke-miterlimit="10" d="M 422.15625 186.710938 C 422.15625 189.316406 418.246094 189.316406 418.246094 186.710938 C 418.246094 184.105469 422.15625 184.105469 422.15625 186.710938 "/>
<path fill-rule="nonzero" fill="rgb(0%, 0%, 0%)" fill-opacity="1" stroke-width="0.708661" stroke-linecap="round" stroke-linejoin="round" stroke="rgb(0%, 0%, 0%)" stroke-opacity="1" stroke-miterlimit="10" d="M 342.121094 209.667969 C 342.121094 212.273438 338.214844 212.273438 338.214844 209.667969 C 338.214844 207.0625 342.121094 207.0625 342.121094 209.667969 "/>
<path fill-rule="nonzero" fill="rgb(0%, 0%, 0%)" fill-opacity="1" stroke-width="0.708661" stroke-linecap="round" stroke-linejoin="round" stroke="rgb(0%, 0%, 0%)" stroke-opacity="1" stroke-miterlimit="10" d="M 534.265625 57.203125 C 534.265625 59.808594 530.355469 59.808594 530.355469 57.203125 C 530.355469 54.597656 534.265625 54.597656 534.265625 57.203125 "/>
<path fill-rule="nonzero" fill="rgb(0%, 0%, 0%)" fill-opacity="1" stroke-width="0.708661" stroke-linecap="round" stroke-linejoin="round" stroke="rgb(0%, 0%, 0%)" stroke-opacity="1" stroke-miterlimit="10" d="M 255.144531 203.105469 C 255.144531 205.714844 251.234375 205.714844 251.234375 203.105469 C 251.234375 200.5 255.144531 200.5 255.144531 203.105469 "/>
<path fill-rule="nonzero" fill="rgb(0%, 0%, 0%)" fill-opacity="1" stroke-width="0.708661" stroke-linecap="round" stroke-linejoin="round" stroke="rgb(0%, 0%, 0%)" stroke-opacity="1" stroke-miterlimit="10" d="M 268.304688 271.695312 C 268.304688 274.300781 264.394531 274.300781 264.394531 271.695312 C 264.394531 269.089844 268.304688 269.089844 268.304688 271.695312 "/>
<path fill-rule="nonzero" fill="rgb(0%, 0%, 0%)" fill-opacity="1" stroke-width="0.708661" stroke-linecap="round" stroke-linejoin="round" stroke="rgb(0%, 0%, 0%)" stroke-opacity="1" stroke-miterlimit="10" d="M 433.066406 110.007812 C 433.066406 112.613281 429.15625 112.613281 429.15625 110.007812 C 429.15625 107.398438 433.066406 107.398438 433.066406 110.007812 "/>
<path fill-rule="nonzero" fill="rgb(0%, 0%, 0%)" fill-opacity="1" stroke-width="0.708661" stroke-linecap="round" stroke-linejoin="round" stroke="rgb(0%, 0%, 0%)" stroke-opacity="1" stroke-miterlimit="10" d="M 332.675781 206.449219 C 332.675781 209.058594 328.769531 209.058594 328.769531 206.449219 C 328.769531 203.84375 332.675781 203.84375 332.675781 206.449219 "/>
<path fill-rule="nonzero" fill="rgb(0%, 0%, 0%)" fill-opacity="1" stroke-width="0.708661" stroke-linecap="round" stroke-linejoin="round" stroke="rgb(0%, 0%, 0%)" stroke-opacity="1" stroke-miterlimit="10" d="M 473.441406 158.457031 C 473.441406 161.0625 469.53125 161.0625 469.53125 158.457031 C 469.53125 155.851562 473.441406 155.851562 473.441406 158.457031 "/>
<path fill-rule="nonzero" fill="rgb(0%, 0%, 0%)" fill-opacity="1" stroke-width="0.708661" stroke-linecap="round" stroke-linejoin="round" stroke="rgb(0%, 0%, 0%)" stroke-opacity="1" stroke-miterlimit="10" d="M 459.109375 282.667969 C 459.109375 285.277344 455.199219 285.277344 455.199219 282.667969 C 455.199219 280.0625 459.109375 280.0625 459.109375 282.667969 "/>
<path fill-rule="nonzero" fill="rgb(0%, 0%, 0%)" fill-opacity="1" stroke-width="0.708661" stroke-linecap="round" stroke-linejoin="round" stroke="rgb(0%, 0%, 0%)" stroke-opacity="1" stroke-miterlimit="10" d="M 402.558594 231.578125 C 402.558594 234.1875 398.648438 234.1875 398.648438 231.578125 C 398.648438 228.972656 402.558594 228.972656 402.558594 231.578125 "/>
<path fill-rule="nonzero" fill="rgb(0%, 0%, 0%)" fill-opacity="1" stroke-width="0.708661" stroke-linecap="round" stroke-linejoin="round" stroke="rgb(0%, 0%, 0%)" stroke-opacity="1" stroke-miterlimit="10" d="M 500.292969 116.808594 C 500.292969 119.414062 496.382812 119.414062 496.382812 116.808594 C 496.382812 114.203125 500.292969 114.203125 500.292969 116.808594 "/>
<path fill-rule="nonzero" fill="rgb(0%, 0%, 0%)" fill-opacity="1" stroke-width="0.708661" stroke-linecap="round" stroke-linejoin="round" stroke="rgb(0%, 0%, 0%)" stroke-opacity="1" stroke-miterlimit="10" d="M 606.125 126.433594 C 606.125 129.039062 602.214844 129.039062 602.214844 126.433594 C 602.214844 123.828125 606.125 123.828125 606.125 126.433594 "/>
<path fill-rule="nonzero" fill="rgb(0%, 0%, 0%)" fill-opacity="1" stroke-width="0.708661" stroke-linecap="round" stroke-linejoin="round" stroke="rgb(0%, 0%, 0%)" stroke-opacity="1" stroke-miterlimit="10" d="M 443.625 209.925781 C 443.625 212.53125 439.714844 212.53125 439.714844 209.925781 C 439.714844 207.316406 443.625 207.316406 443.625 209.925781 "/>
<path fill-rule="nonzero" fill="rgb(0%, 0%, 0%)" fill-opacity="1" stroke-width="0.708661" stroke-linecap="round" stroke-linejoin="round" stroke="rgb(0%, 0%, 0%)" stroke-opacity="1" stroke-miterlimit="10" d="M 471.695312 109.980469 C 471.695312 112.585938 467.785156 112.585938 467.785156 109.980469 C 467.785156 107.375 471.695312 107.375 471.695312 109.980469 "/>
<path fill-rule="nonzero" fill="rgb(0%, 0%, 0%)" fill-opacity="1" stroke-width="0.708661" stroke-linecap="round" stroke-linejoin="round" stroke="rgb(0%, 0%, 0%)" stroke-opacity="1" stroke-miterlimit="10" d="M 470.078125 125.957031 C 470.078125 128.5625 466.167969 128.5625 466.167969 125.957031 C 466.167969 123.351562 470.078125 123.351562 470.078125 125.957031 "/>
<path fill-rule="nonzero" fill="rgb(0%, 0%, 0%)" fill-opacity="1" stroke-width="0.708661" stroke-linecap="round" stroke-linejoin="round" stroke="rgb(0%, 0%, 0%)" stroke-opacity="1" stroke-miterlimit="10" d="M 479.9375 112.417969 C 479.9375 115.023438 476.027344 115.023438 476.027344 112.417969 C 476.027344 109.8125 479.9375 109.8125 479.9375 112.417969 "/>
<path fill-rule="nonzero" fill="rgb(0%, 0%, 0%)" fill-opacity="1" stroke-width="0.708661" stroke-linecap="round" stroke-linejoin="round" stroke="rgb(0%, 0%, 0%)" stroke-opacity="1" stroke-miterlimit="10" d="M 431.328125 221.910156 C 431.328125 224.519531 427.417969 224.519531 427.417969 221.910156 C 427.417969 219.304688 431.328125 219.304688 431.328125 221.910156 "/>
<path fill-rule="nonzero" fill="rgb(0%, 0%, 0%)" fill-opacity="1" stroke-width="0.708661" stroke-linecap="round" stroke-linejoin="round" stroke="rgb(0%, 0%, 0%)" stroke-opacity="1" stroke-miterlimit="10" d="M 595.070312 190.261719 C 595.070312 192.867188 591.160156 192.867188 591.160156 190.261719 C 591.160156 187.65625 595.070312 187.65625 595.070312 190.261719 "/>
<path fill-rule="nonzero" fill="rgb(0%, 0%, 0%)" fill-opacity="1" stroke-width="0.708661" stroke-linecap="round" stroke-linejoin="round" stroke="rgb(0%, 0%, 0%)" stroke-opacity="1" stroke-miterlimit="10" d="M 402.003906 208.75 C 402.003906 211.359375 398.09375 211.359375 398.09375 208.75 C 398.09375 206.144531 402.003906 206.144531 402.003906 208.75 "/>
<path fill-rule="nonzero" fill="rgb(0%, 0%, 0%)" fill-opacity="1" stroke-width="0.708661" stroke-linecap="round" stroke-linejoin="round" stroke="rgb(0%, 0%, 0%)" stroke-opacity="1" stroke-miterlimit="10" d="M 467.808594 188.828125 C 467.808594 191.433594 463.898438 191.433594 463.898438 188.828125 C 463.898438 186.21875 467.808594 186.21875 467.808594 188.828125 "/>
<path fill-rule="nonzero" fill="rgb(0%, 0%, 0%)" fill-opacity="1" stroke-width="0.708661" stroke-linecap="round" stroke-linejoin="round" stroke="rgb(0%, 0%, 0%)" stroke-opacity="1" stroke-miterlimit="10" d="M 547.785156 158.089844 C 547.785156 160.695312 543.875 160.695312 543.875 158.089844 C 543.875 155.484375 547.785156 155.484375 547.785156 158.089844 "/>
<path fill-rule="nonzero" fill="rgb(0%, 0%, 0%)" fill-opacity="1" stroke-width="0.708661" stroke-linecap="round" stroke-linejoin="round" stroke="rgb(0%, 0%, 0%)" stroke-opacity="1" stroke-miterlimit="10" d="M 211.972656 108.816406 C 211.972656 111.425781 208.0625 111.425781 208.0625 108.816406 C 208.0625 106.210938 211.972656 106.210938 211.972656 108.816406 "/>
<path fill-rule="nonzero" fill="rgb(0%, 0%, 0%)" fill-opacity="1" stroke-width="0.708661" stroke-linecap="round" stroke-linejoin="round" stroke="rgb(0%, 0%, 0%)" stroke-opacity="1" stroke-miterlimit="10" d="M 618.132812 126.550781 C 618.132812 129.15625 614.222656 129.15625 614.222656 126.550781 C 614.222656 123.945312 618.132812 123.945312 618.132812 126.550781 "/>
<path fill-rule="nonzero" fill="rgb(0%, 0%, 0%)" fill-opacity="1" stroke-width="0.708661" stroke-linecap="round" stroke-linejoin="round" stroke="rgb(0%, 0%, 0%)" stroke-opacity="1" stroke-miterlimit="10" d="M 334.25 226.324219 C 334.25 228.929688 330.339844 228.929688 330.339844 226.324219 C 330.339844 223.714844 334.25 223.714844 334.25 226.324219 "/>
<path fill-rule="nonzero" fill="rgb(0%, 0%, 0%)" fill-opacity="1" stroke-width="0.708661" stroke-linecap="round" stroke-linejoin="round" stroke="rgb(0%, 0%, 0%)" stroke-opacity="1" stroke-miterlimit="10" d="M 416.839844 209.121094 C 416.839844 211.726562 412.929688 211.726562 412.929688 209.121094 C 412.929688 206.515625 416.839844 206.515625 416.839844 209.121094 "/>
<path fill-rule="nonzero" fill="rgb(0%, 0%, 0%)" fill-opacity="1" stroke-width="0.708661" stroke-linecap="round" stroke-linejoin="round" stroke="rgb(0%, 0%, 0%)" stroke-opacity="1" stroke-miterlimit="10" d="M 530.800781 81.007812 C 530.800781 83.613281 526.890625 83.613281 526.890625 81.007812 C 526.890625 78.402344 530.800781 78.402344 530.800781 81.007812 "/>
<path fill-rule="nonzero" fill="rgb(0%, 0%, 0%)" fill-opacity="1" stroke-width="0.708661" stroke-linecap="round" stroke-linejoin="round" stroke="rgb(0%, 0%, 0%)" stroke-opacity="1" stroke-miterlimit="10" d="M 505.21875 73.378906 C 505.21875 75.988281 501.308594 75.988281 501.308594 73.378906 C 501.308594 70.773438 505.21875 70.773438 505.21875 73.378906 "/>
<path fill-rule="nonzero" fill="rgb(0%, 0%, 0%)" fill-opacity="1" stroke-width="0.708661" stroke-linecap="round" stroke-linejoin="round" stroke="rgb(0%, 0%, 0%)" stroke-opacity="1" stroke-miterlimit="10" d="M 437.523438 174.964844 C 437.523438 177.570312 433.613281 177.570312 433.613281 174.964844 C 433.613281 172.359375 437.523438 172.359375 437.523438 174.964844 "/>
<path fill-rule="nonzero" fill="rgb(0%, 0%, 0%)" fill-opacity="1" stroke-width="0.708661" stroke-linecap="round" stroke-linejoin="round" stroke="rgb(0%, 0%, 0%)" stroke-opacity="1" stroke-miterlimit="10" d="M 510.152344 217.417969 C 510.152344 220.023438 506.242188 220.023438 506.242188 217.417969 C 506.242188 214.808594 510.152344 214.808594 510.152344 217.417969 "/>
<path fill-rule="nonzero" fill="rgb(0%, 0%, 0%)" fill-opacity="1" stroke-width="0.708661" stroke-linecap="round" stroke-linejoin="round" stroke="rgb(0%, 0%, 0%)" stroke-opacity="1" stroke-miterlimit="10" d="M 527.25 83.292969 C 527.25 85.898438 523.339844 85.898438 523.339844 83.292969 C 523.339844 80.6875 527.25 80.6875 527.25 83.292969 "/>
<path fill-rule="nonzero" fill="rgb(0%, 0%, 0%)" fill-opacity="1" stroke-width="0.708661" stroke-linecap="round" stroke-linejoin="round" stroke="rgb(0%, 0%, 0%)" stroke-opacity="1" stroke-miterlimit="10" d="M 302.210938 173.183594 C 302.210938 175.792969 298.300781 175.792969 298.300781 173.183594 C 298.300781 170.578125 302.210938 170.578125 302.210938 173.183594 "/>
<path fill-rule="nonzero" fill="rgb(0%, 0%, 0%)" fill-opacity="1" stroke-width="0.708661" stroke-linecap="round" stroke-linejoin="round" stroke="rgb(0%, 0%, 0%)" stroke-opacity="1" stroke-miterlimit="10" d="M 426.386719 137.394531 C 426.386719 140 422.476562 140 422.476562 137.394531 C 422.476562 134.789062 426.386719 134.789062 426.386719 137.394531 "/>
<path fill-rule="nonzero" fill="rgb(0%, 0%, 0%)" fill-opacity="1" stroke-width="0.708661" stroke-linecap="round" stroke-linejoin="round" stroke="rgb(0%, 0%, 0%)" stroke-opacity="1" stroke-miterlimit="10" d="M 146.050781 225.183594 C 146.050781 227.789062 142.140625 227.789062 142.140625 225.183594 C 142.140625 222.578125 146.050781 222.578125 146.050781 225.183594 "/>
<path fill-rule="nonzero" fill="rgb(0%, 0%, 0%)" fill-opacity="1" stroke-width="0.708661" stroke-linecap="round" stroke-linejoin="round" stroke="rgb(0%, 0%, 0%)" stroke-opacity="1" stroke-miterlimit="10" d="M 102.890625 271.695312 C 102.890625 274.300781 98.980469 274.300781 98.980469 271.695312 C 98.980469 269.089844 102.890625 269.089844 102.890625 271.695312 "/>
<path fill-rule="nonzero" fill="rgb(0%, 0%, 0%)" fill-opacity="1" stroke-width="0.708661" stroke-linecap="round" stroke-linejoin="round" stroke="rgb(0%, 0%, 0%)" stroke-opacity="1" stroke-miterlimit="10" d="M 474.738281 258.558594 C 474.738281 261.164062 470.828125 261.164062 470.828125 258.558594 C 470.828125 255.949219 474.738281 255.949219 474.738281 258.558594 "/>
<path fill-rule="nonzero" fill="rgb(0%, 0%, 0%)" fill-opacity="1" stroke-width="0.708661" stroke-linecap="round" stroke-linejoin="round" stroke="rgb(0%, 0%, 0%)" stroke-opacity="1" stroke-miterlimit="10" d="M 549.457031 236.347656 C 549.457031 238.953125 545.546875 238.953125 545.546875 236.347656 C 545.546875 233.738281 549.457031 233.738281 549.457031 236.347656 "/>
<path fill-rule="nonzero" fill="rgb(0%, 0%, 0%)" fill-opacity="1" stroke-width="0.708661" stroke-linecap="round" stroke-linejoin="round" stroke="rgb(0%, 0%, 0%)" stroke-opacity="1" stroke-miterlimit="10" d="M 347.851562 126.214844 C 347.851562 128.824219 343.941406 128.824219 343.941406 126.214844 C 343.941406 123.609375 347.851562 123.609375 347.851562 126.214844 "/>
<path fill-rule="nonzero" fill="rgb(0%, 0%, 0%)" fill-opacity="1" stroke-width="0.708661" stroke-linecap="round" stroke-linejoin="round" stroke="rgb(0%, 0%, 0%)" stroke-opacity="1" stroke-miterlimit="10" d="M 320.648438 204.039062 C 320.648438 206.644531 316.738281 206.644531 316.738281 204.039062 C 316.738281 201.433594 320.648438 201.433594 320.648438 204.039062 "/>
<path fill-rule="nonzero" fill="rgb(0%, 0%, 0%)" fill-opacity="1" stroke-width="0.708661" stroke-linecap="round" stroke-linejoin="round" stroke="rgb(0%, 0%, 0%)" stroke-opacity="1" stroke-miterlimit="10" d="M 542.015625 173.734375 C 542.015625 176.34375 538.105469 176.34375 538.105469 173.734375 C 538.105469 171.128906 542.015625 171.128906 542.015625 173.734375 "/>
<path fill-rule="nonzero" fill="rgb(0%, 0%, 0%)" fill-opacity="1" stroke-width="0.708661" stroke-linecap="round" stroke-linejoin="round" stroke="rgb(0%, 0%, 0%)" stroke-opacity="1" stroke-miterlimit="10" d="M 379.195312 227.785156 C 379.195312 230.390625 375.285156 230.390625 375.285156 227.785156 C 375.285156 225.179688 379.195312 225.179688 379.195312 227.785156 "/>
<path fill-rule="nonzero" fill="rgb(0%, 0%, 0%)" fill-opacity="1" stroke-width="0.708661" stroke-linecap="round" stroke-linejoin="round" stroke="rgb(0%, 0%, 0%)" stroke-opacity="1" stroke-miterlimit="10" d="M 539.472656 125.925781 C 539.472656 128.53125 535.5625 128.53125 535.5625 125.925781 C 535.5625 123.316406 539.472656 123.316406 539.472656 125.925781 "/>
<path fill-rule="nonzero" fill="rgb(0%, 0%, 0%)" fill-opacity="1" stroke-width="0.708661" stroke-linecap="round" stroke-linejoin="round" stroke="rgb(0%, 0%, 0%)" stroke-opacity="1" stroke-miterlimit="10" d="M 100.976562 205.476562 C 100.976562 208.082031 97.066406 208.082031 97.066406 205.476562 C 97.066406 202.871094 100.976562 202.871094 100.976562 205.476562 "/>
<path fill-rule="nonzero" fill="rgb(0%, 0%, 0%)" fill-opacity="1" stroke-width="0.708661" stroke-linecap="round" stroke-linejoin="round" stroke="rgb(0%, 0%, 0%)" stroke-opacity="1" stroke-miterlimit="10" d="M 412.332031 237.792969 C 412.332031 240.398438 408.421875 240.398438 408.421875 237.792969 C 408.421875 235.1875 412.332031 235.1875 412.332031 237.792969 "/>
<path fill-rule="nonzero" fill="rgb(0%, 0%, 0%)" fill-opacity="1" stroke-width="0.708661" stroke-linecap="round" stroke-linejoin="round" stroke="rgb(0%, 0%, 0%)" stroke-opacity="1" stroke-miterlimit="10" d="M 337.15625 180.449219 C 337.15625 183.054688 333.246094 183.054688 333.246094 180.449219 C 333.246094 177.84375 337.15625 177.84375 337.15625 180.449219 "/>
<path fill-rule="nonzero" fill="rgb(0%, 0%, 0%)" fill-opacity="1" stroke-width="0.708661" stroke-linecap="round" stroke-linejoin="round" stroke="rgb(0%, 0%, 0%)" stroke-opacity="1" stroke-miterlimit="10" d="M 162.320312 193.238281 C 162.320312 195.84375 158.410156 195.84375 158.410156 193.238281 C 158.410156 190.632812 162.320312 190.632812 162.320312 193.238281 "/>
<path fill-rule="nonzero" fill="rgb(0%, 0%, 0%)" fill-opacity="1" stroke-width="0.708661" stroke-linecap="round" stroke-linejoin="round" stroke="rgb(0%, 0%, 0%)" stroke-opacity="1" stroke-miterlimit="10" d="M 384.878906 100.132812 C 384.878906 102.742188 380.96875 102.742188 380.96875 100.132812 C 380.96875 97.527344 384.878906 97.527344 384.878906 100.132812 "/>
<path fill-rule="nonzero" fill="rgb(0%, 0%, 0%)" fill-opacity="1" stroke-width="0.708661" stroke-linecap="round" stroke-linejoin="round" stroke="rgb(0%, 0%, 0%)" stroke-opacity="1" stroke-miterlimit="10" d="M 408.65625 212.589844 C 408.65625 215.195312 404.746094 215.195312 404.746094 212.589844 C 404.746094 209.984375 408.65625 209.984375 408.65625 212.589844 "/>
<path fill-rule="nonzero" fill="rgb(0%, 0%, 0%)" fill-opacity="1" stroke-width="0.708661" stroke-linecap="round" stroke-linejoin="round" stroke="rgb(0%, 0%, 0%)" stroke-opacity="1" stroke-miterlimit="10" d="M 514.644531 115.886719 C 514.644531 118.492188 510.738281 118.492188 510.738281 115.886719 C 510.738281 113.28125 514.644531 113.28125 514.644531 115.886719 "/>
<path fill-rule="nonzero" fill="rgb(0%, 0%, 0%)" fill-opacity="1" stroke-width="0.708661" stroke-linecap="round" stroke-linejoin="round" stroke="rgb(0%, 0%, 0%)" stroke-opacity="1" stroke-miterlimit="10" d="M 193.292969 227.792969 C 193.292969 230.402344 189.382812 230.402344 189.382812 227.792969 C 189.382812 225.1875 193.292969 225.1875 193.292969 227.792969 "/>
<path fill-rule="nonzero" fill="rgb(0%, 0%, 0%)" fill-opacity="1" stroke-width="0.708661" stroke-linecap="round" stroke-linejoin="round" stroke="rgb(0%, 0%, 0%)" stroke-opacity="1" stroke-miterlimit="10" d="M 468.804688 257.503906 C 468.804688 260.109375 464.894531 260.109375 464.894531 257.503906 C 464.894531 254.898438 468.804688 254.898438 468.804688 257.503906 "/>
<path fill-rule="nonzero" fill="rgb(0%, 0%, 0%)" fill-opacity="1" stroke-width="0.708661" stroke-linecap="round" stroke-linejoin="round" stroke="rgb(0%, 0%, 0%)" stroke-opacity="1" stroke-miterlimit="10" d="M 591.75 179.269531 C 591.75 181.875 587.839844 181.875 587.839844 179.269531 C 587.839844 176.660156 591.75 176.660156 591.75 179.269531 "/>
<path fill-rule="nonzero" fill="rgb(0%, 0%, 0%)" fill-opacity="1" stroke-width="0.708661" stroke-linecap="round" stroke-linejoin="round" stroke="rgb(0%, 0%, 0%)" stroke-opacity="1" stroke-miterlimit="10" d="M 418.910156 175.175781 C 418.910156 177.78125 415 177.78125 415 175.175781 C 415 172.570312 418.910156 172.570312 418.910156 175.175781 "/>
<path fill-rule="nonzero" fill="rgb(0%, 0%, 0%)" fill-opacity="1" stroke-width="0.708661" stroke-linecap="round" stroke-linejoin="round" stroke="rgb(0%, 0%, 0%)" stroke-opacity="1" stroke-miterlimit="10" d="M 591.214844 113.898438 C 591.214844 116.503906 587.304688 116.503906 587.304688 113.898438 C 587.304688 111.289062 591.214844 111.289062 591.214844 113.898438 "/>
<path fill-rule="nonzero" fill="rgb(0%, 0%, 0%)" fill-opacity="1" stroke-width="0.708661" stroke-linecap="round" stroke-linejoin="round" stroke="rgb(0%, 0%, 0%)" stroke-opacity="1" stroke-miterlimit="10" d="M 283.730469 234.828125 C 283.730469 237.433594 279.820312 237.433594 279.820312 234.828125 C 279.820312 232.21875 283.730469 232.21875 283.730469 234.828125 "/>
<path fill-rule="nonzero" fill="rgb(0%, 0%, 0%)" fill-opacity="1" stroke-width="0.708661" stroke-linecap="round" stroke-linejoin="round" stroke="rgb(0%, 0%, 0%)" stroke-opacity="1" stroke-miterlimit="10" d="M 372.421875 173.277344 C 372.421875 175.882812 368.511719 175.882812 368.511719 173.277344 C 368.511719 170.667969 372.421875 170.667969 372.421875 173.277344 "/>
<path fill-rule="nonzero" fill="rgb(0%, 0%, 0%)" fill-opacity="1" stroke-width="0.708661" stroke-linecap="round" stroke-linejoin="round" stroke="rgb(0%, 0%, 0%)" stroke-opacity="1" stroke-miterlimit="10" d="M 550.304688 166.5625 C 550.304688 169.167969 546.394531 169.167969 546.394531 166.5625 C 546.394531 163.953125 550.304688 163.953125 550.304688 166.5625 "/>
<path fill-rule="nonzero" fill="rgb(0%, 0%, 0%)" fill-opacity="1" stroke-width="0.708661" stroke-linecap="round" stroke-linejoin="round" stroke="rgb(0%, 0%, 0%)" stroke-opacity="1" stroke-miterlimit="10" d="M 353.894531 78.820312 C 353.894531 81.425781 349.988281 81.425781 349.988281 78.820312 C 349.988281 76.214844 353.894531 76.214844 353.894531 78.820312 "/>
<path fill-rule="nonzero" fill="rgb(0%, 0%, 0%)" fill-opacity="1" stroke-width="0.708661" stroke-linecap="round" stroke-linejoin="round" stroke="rgb(0%, 0%, 0%)" stroke-opacity="1" stroke-miterlimit="10" d="M 479.429688 142.023438 C 479.429688 144.628906 475.519531 144.628906 475.519531 142.023438 C 475.519531 139.417969 479.429688 139.417969 479.429688 142.023438 "/>
<path fill-rule="nonzero" fill="rgb(0%, 0%, 0%)" fill-opacity="1" stroke-width="0.708661" stroke-linecap="round" stroke-linejoin="round" stroke="rgb(0%, 0%, 0%)" stroke-opacity="1" stroke-miterlimit="10" d="M 374.785156 166.957031 C 374.785156 169.5625 370.875 169.5625 370.875 166.957031 C 370.875 164.351562 374.785156 164.351562 374.785156 166.957031 "/>
<path fill-rule="nonzero" fill="rgb(0%, 0%, 0%)" fill-opacity="1" stroke-width="0.708661" stroke-linecap="round" stroke-linejoin="round" stroke="rgb(0%, 0%, 0%)" stroke-opacity="1" stroke-miterlimit="10" d="M 326.710938 122.453125 C 326.710938 125.0625 322.800781 125.0625 322.800781 122.453125 C 322.800781 119.847656 326.710938 119.847656 326.710938 122.453125 "/>
<path fill-rule="nonzero" fill="rgb(0%, 0%, 0%)" fill-opacity="1" stroke-width="0.708661" stroke-linecap="round" stroke-linejoin="round" stroke="rgb(0%, 0%, 0%)" stroke-opacity="1" stroke-miterlimit="10" d="M 579.316406 162.617188 C 579.316406 165.226562 575.40625 165.226562 575.40625 162.617188 C 575.40625 160.011719 579.316406 160.011719 579.316406 162.617188 "/>
<path fill-rule="nonzero" fill="rgb(0%, 0%, 0%)" fill-opacity="1" stroke-width="0.708661" stroke-linecap="round" stroke-linejoin="round" stroke="rgb(0%, 0%, 0%)" stroke-opacity="1" stroke-miterlimit="10" d="M 588.757812 117.042969 C 588.757812 119.648438 584.851562 119.648438 584.851562 117.042969 C 584.851562 114.4375 588.757812 114.4375 588.757812 117.042969 "/>
<path fill-rule="nonzero" fill="rgb(0%, 0%, 0%)" fill-opacity="1" stroke-width="0.708661" stroke-linecap="round" stroke-linejoin="round" stroke="rgb(0%, 0%, 0%)" stroke-opacity="1" stroke-miterlimit="10" d="M 370.382812 223.058594 C 370.382812 225.664062 366.472656 225.664062 366.472656 223.058594 C 366.472656 220.449219 370.382812 220.449219 370.382812 223.058594 "/>
<path fill-rule="nonzero" fill="rgb(0%, 0%, 0%)" fill-opacity="1" stroke-width="0.708661" stroke-linecap="round" stroke-linejoin="round" stroke="rgb(0%, 0%, 0%)" stroke-opacity="1" stroke-miterlimit="10" d="M 410.746094 186.617188 C 410.746094 189.222656 406.835938 189.222656 406.835938 186.617188 C 406.835938 184.011719 410.746094 184.011719 410.746094 186.617188 "/>
<path fill-rule="nonzero" fill="rgb(0%, 0%, 0%)" fill-opacity="1" stroke-width="0.708661" stroke-linecap="round" stroke-linejoin="round" stroke="rgb(0%, 0%, 0%)" stroke-opacity="1" stroke-miterlimit="10" d="M 442.566406 175.382812 C 442.566406 177.988281 438.65625 177.988281 438.65625 175.382812 C 438.65625 172.777344 442.566406 172.777344 442.566406 175.382812 "/>
<path fill-rule="nonzero" fill="rgb(0%, 0%, 0%)" fill-opacity="1" stroke-width="0.708661" stroke-linecap="round" stroke-linejoin="round" stroke="rgb(0%, 0%, 0%)" stroke-opacity="1" stroke-miterlimit="10" d="M 680.523438 110.09375 C 680.523438 112.699219 676.613281 112.699219 676.613281 110.09375 C 676.613281 107.484375 680.523438 107.484375 680.523438 110.09375 "/>
<path fill-rule="nonzero" fill="rgb(0%, 0%, 0%)" fill-opacity="1" stroke-width="0.708661" stroke-linecap="round" stroke-linejoin="round" stroke="rgb(0%, 0%, 0%)" stroke-opacity="1" stroke-miterlimit="10" d="M 167.414062 261.132812 C 167.414062 263.738281 163.503906 263.738281 163.503906 261.132812 C 163.503906 258.527344 167.414062 258.527344 167.414062 261.132812 "/>
<path fill-rule="nonzero" fill="rgb(0%, 0%, 0%)" fill-opacity="1" stroke-width="0.708661" stroke-linecap="round" stroke-linejoin="round" stroke="rgb(0%, 0%, 0%)" stroke-opacity="1" stroke-miterlimit="10" d="M 427.867188 25.320312 C 427.867188 27.925781 423.957031 27.925781 423.957031 25.320312 C 423.957031 22.714844 427.867188 22.714844 427.867188 25.320312 "/>
<path fill-rule="nonzero" fill="rgb(0%, 0%, 0%)" fill-opacity="1" stroke-width="0.708661" stroke-linecap="round" stroke-linejoin="round" stroke="rgb(0%, 0%, 0%)" stroke-opacity="1" stroke-miterlimit="10" d="M 637.855469 182.90625 C 637.855469 185.511719 633.945312 185.511719 633.945312 182.90625 C 633.945312 180.300781 637.855469 180.300781 637.855469 182.90625 "/>
<path fill-rule="nonzero" fill="rgb(0%, 0%, 0%)" fill-opacity="1" stroke-width="0.708661" stroke-linecap="round" stroke-linejoin="round" stroke="rgb(0%, 0%, 0%)" stroke-opacity="1" stroke-miterlimit="10" d="M 511.441406 202.339844 C 511.441406 204.945312 507.53125 204.945312 507.53125 202.339844 C 507.53125 199.734375 511.441406 199.734375 511.441406 202.339844 "/>
<path fill-rule="nonzero" fill="rgb(0%, 0%, 0%)" fill-opacity="1" stroke-width="0.708661" stroke-linecap="round" stroke-linejoin="round" stroke="rgb(0%, 0%, 0%)" stroke-opacity="1" stroke-miterlimit="10" d="M 298.957031 167.261719 C 298.957031 169.867188 295.046875 169.867188 295.046875 167.261719 C 295.046875 164.65625 298.957031 164.65625 298.957031 167.261719 "/>
<path fill-rule="nonzero" fill="rgb(0%, 0%, 0%)" fill-opacity="1" stroke-width="0.708661" stroke-linecap="round" stroke-linejoin="round" stroke="rgb(0%, 0%, 0%)" stroke-opacity="1" stroke-miterlimit="10" d="M 394.542969 184.507812 C 394.542969 187.113281 390.632812 187.113281 390.632812 184.507812 C 390.632812 181.902344 394.542969 181.902344 394.542969 184.507812 "/>
<path fill-rule="nonzero" fill="rgb(0%, 0%, 0%)" fill-opacity="1" stroke-width="0.708661" stroke-linecap="round" stroke-linejoin="round" stroke="rgb(0%, 0%, 0%)" stroke-opacity="1" stroke-miterlimit="10" d="M 289.289062 235.164062 C 289.289062 237.769531 285.382812 237.769531 285.382812 235.164062 C 285.382812 232.558594 289.289062 232.558594 289.289062 235.164062 "/>
<path fill-rule="nonzero" fill="rgb(30.196078%, 30.196078%, 30.196078%)" fill-opacity="1" d="M 57.96875 273.835938 L 57.964844 274.007812 L 57.957031 274.179688 L 57.941406 274.351562 L 57.921875 274.515625 L 57.894531 274.679688 L 57.863281 274.839844 L 57.828125 275 L 57.785156 275.152344 L 57.738281 275.304688 L 57.683594 275.457031 L 57.625 275.601562 L 57.5625 275.742188 L 57.492188 275.878906 L 57.417969 276.011719 L 57.335938 276.140625 L 57.246094 276.265625 L 57.152344 276.386719 L 57.050781 276.503906 L 56.945312 276.617188 L 56.835938 276.726562 L 56.71875 276.832031 L 56.59375 276.929688 L 56.464844 277.027344 L 56.328125 277.117188 L 56.1875 277.203125 L 56.039062 277.285156 L 55.882812 277.363281 L 55.722656 277.433594 L 55.554688 277.503906 L 55.378906 277.566406 L 55.199219 277.621094 L 55.011719 277.675781 L 54.816406 277.71875 L 54.617188 277.757812 L 54.410156 277.792969 L 54.195312 277.820312 L 53.976562 277.839844 L 53.75 277.855469 L 53.519531 277.863281 L 53.28125 277.867188 L 53.039062 277.863281 L 52.808594 277.855469 L 52.582031 277.839844 L 52.363281 277.820312 L 52.148438 277.792969 L 51.941406 277.757812 L 51.742188 277.71875 L 51.546875 277.675781 L 51.359375 277.621094 L 51.179688 277.566406 L 51.007812 277.503906 L 50.839844 277.433594 L 50.679688 277.363281 L 50.523438 277.289062 L 50.375 277.207031 L 50.230469 277.121094 L 50.09375 277.03125 L 49.960938 276.9375 L 49.835938 276.839844 L 49.714844 276.734375 L 49.601562 276.625 L 49.496094 276.511719 L 49.394531 276.394531 L 49.300781 276.273438 L 49.210938 276.148438 L 49.128906 276.019531 L 49.050781 275.886719 L 48.980469 275.75 L 48.914062 275.609375 L 48.855469 275.464844 L 48.804688 275.316406 L 48.757812 275.164062 L 48.714844 275.007812 L 48.679688 274.851562 L 48.625 274.53125 L 48.605469 274.363281 L 48.59375 274.195312 L 48.585938 274.027344 L 48.582031 273.855469 L 48.589844 273.558594 L 48.601562 273.417969 L 48.617188 273.28125 L 48.636719 273.144531 L 48.664062 273.011719 L 48.691406 272.882812 L 48.726562 272.757812 L 48.765625 272.636719 L 48.808594 272.515625 L 48.855469 272.402344 L 48.90625 272.289062 L 48.960938 272.179688 L 49.019531 272.074219 L 49.078125 271.972656 L 49.140625 271.875 L 49.207031 271.777344 L 49.277344 271.683594 L 49.347656 271.597656 L 49.421875 271.511719 L 49.5 271.425781 L 49.664062 271.269531 L 49.75 271.195312 L 49.835938 271.125 L 49.925781 271.058594 L 50.015625 270.996094 L 50.203125 270.878906 L 50.300781 270.828125 L 50.402344 270.777344 L 50.5 270.730469 L 50.601562 270.683594 L 50.804688 270.605469 L 50.910156 270.574219 L 51.011719 270.542969 L 51.222656 270.496094 L 51.328125 270.476562 L 51.328125 270.4375 L 51.210938 270.40625 L 51.101562 270.375 L 50.992188 270.339844 L 50.882812 270.300781 L 50.78125 270.257812 L 50.675781 270.210938 L 50.578125 270.164062 L 50.480469 270.113281 L 50.382812 270.054688 L 50.292969 269.996094 L 50.203125 269.933594 L 50.117188 269.871094 L 50.035156 269.804688 L 49.953125 269.734375 L 49.875 269.664062 L 49.800781 269.589844 L 49.730469 269.515625 L 49.660156 269.4375 L 49.59375 269.355469 L 49.53125 269.273438 L 49.46875 269.1875 L 49.359375 269.007812 L 49.308594 268.917969 L 49.261719 268.824219 L 49.214844 268.726562 L 49.171875 268.628906 L 49.132812 268.53125 L 49.09375 268.429688 L 49.0625 268.328125 L 49.03125 268.222656 L 49.003906 268.117188 L 48.980469 268.011719 L 48.960938 267.902344 L 48.929688 267.683594 L 48.917969 267.574219 L 48.910156 267.460938 L 48.90625 267.347656 L 48.90625 267.089844 L 48.914062 266.949219 L 48.929688 266.808594 L 48.949219 266.667969 L 48.972656 266.53125 L 49.003906 266.398438 L 49.039062 266.265625 L 49.078125 266.132812 L 49.125 266.003906 L 49.179688 265.875 L 49.238281 265.75 L 49.300781 265.625 L 49.371094 265.503906 L 49.445312 265.386719 L 49.527344 265.273438 L 49.613281 265.164062 L 49.703125 265.054688 L 49.800781 264.949219 L 49.902344 264.851562 L 50.007812 264.753906 L 50.121094 264.65625 L 50.238281 264.566406 L 50.359375 264.480469 L 50.488281 264.398438 L 50.621094 264.316406 L 50.757812 264.246094 L 50.902344 264.175781 L 51.050781 264.109375 L 51.207031 264.046875 L 51.367188 263.992188 L 51.53125 263.9375 L 51.699219 263.890625 L 51.875 263.847656 L 52.054688 263.808594 L 52.238281 263.777344 L 52.429688 263.753906 L 52.625 263.734375 L 52.824219 263.71875 L 53.03125 263.710938 L 53.242188 263.707031 L 53.460938 263.710938 L 53.675781 263.71875 L 53.886719 263.734375 L 54.089844 263.753906 L 54.289062 263.777344 L 54.480469 263.808594 L 54.664062 263.847656 L 54.84375 263.890625 L 55.015625 263.9375 L 55.183594 263.992188 L 55.347656 264.050781 L 55.503906 264.113281 L 55.65625 264.179688 L 55.800781 264.25 L 55.941406 264.324219 L 56.074219 264.40625 L 56.203125 264.488281 L 56.324219 264.574219 L 56.441406 264.667969 L 56.550781 264.761719 L 56.65625 264.859375 L 56.757812 264.960938 L 56.855469 265.066406 L 56.941406 265.171875 L 57.027344 265.28125 L 57.105469 265.398438 L 57.179688 265.515625 L 57.246094 265.632812 L 57.304688 265.757812 L 57.363281 265.886719 L 57.410156 266.015625 L 57.457031 266.148438 L 57.496094 266.28125 L 57.53125 266.414062 L 57.558594 266.550781 L 57.582031 266.6875 L 57.601562 266.828125 L 57.613281 266.96875 L 57.621094 267.109375 L 57.625 267.253906 L 57.625 267.367188 L 57.617188 267.476562 L 57.609375 267.589844 L 57.597656 267.699219 L 57.582031 267.808594 L 57.566406 267.914062 L 57.542969 268.023438 L 57.519531 268.128906 L 57.492188 268.234375 L 57.460938 268.335938 L 57.425781 268.441406 L 57.390625 268.539062 L 57.351562 268.640625 L 57.308594 268.738281 L 57.265625 268.832031 L 57.164062 269.019531 L 57.109375 269.109375 L 57.050781 269.199219 L 56.992188 269.285156 L 56.929688 269.367188 L 56.863281 269.449219 L 56.792969 269.527344 L 56.722656 269.601562 L 56.648438 269.675781 L 56.570312 269.746094 L 56.488281 269.816406 L 56.40625 269.882812 L 56.320312 269.945312 L 56.230469 270.007812 L 56.042969 270.117188 L 55.945312 270.167969 L 55.847656 270.214844 L 55.742188 270.253906 L 55.636719 270.296875 L 55.527344 270.332031 L 55.417969 270.363281 L 55.183594 270.417969 L 55.183594 270.457031 L 55.300781 270.476562 L 55.417969 270.5 L 55.535156 270.53125 L 55.644531 270.5625 L 55.757812 270.59375 L 55.867188 270.632812 L 55.976562 270.675781 L 56.082031 270.71875 L 56.183594 270.765625 L 56.289062 270.816406 L 56.484375 270.925781 L 56.578125 270.984375 L 56.671875 271.046875 L 56.761719 271.113281 L 56.847656 271.183594 L 56.929688 271.257812 L 57.011719 271.335938 L 57.167969 271.5 L 57.238281 271.585938 L 57.308594 271.675781 L 57.375 271.769531 L 57.4375 271.863281 L 57.5 271.960938 L 57.609375 272.171875 L 57.660156 272.277344 L 57.707031 272.390625 L 57.753906 272.507812 L 57.792969 272.625 L 57.828125 272.746094 L 57.863281 272.871094 L 57.890625 273 L 57.914062 273.132812 L 57.933594 273.265625 L 57.949219 273.402344 L 57.957031 273.542969 L 57.964844 273.6875 Z M 55.800781 267.351562 L 55.796875 267.246094 L 55.792969 267.148438 L 55.785156 267.046875 L 55.777344 266.949219 L 55.765625 266.855469 L 55.75 266.761719 L 55.730469 266.667969 L 55.710938 266.578125 L 55.6875 266.488281 L 55.664062 266.402344 L 55.636719 266.320312 L 55.605469 266.238281 L 55.570312 266.15625 L 55.53125 266.078125 L 55.492188 266.003906 L 55.398438 265.863281 L 55.347656 265.796875 L 55.292969 265.734375 L 55.234375 265.671875 L 55.171875 265.609375 L 55.105469 265.550781 L 55.035156 265.496094 L 54.960938 265.445312 L 54.882812 265.394531 L 54.800781 265.347656 L 54.71875 265.304688 L 54.539062 265.226562 L 54.441406 265.191406 L 54.238281 265.128906 L 54.128906 265.101562 L 54.015625 265.078125 L 53.898438 265.058594 L 53.773438 265.042969 L 53.648438 265.03125 L 53.515625 265.023438 L 53.242188 265.015625 L 53.105469 265.019531 L 52.972656 265.023438 L 52.84375 265.03125 L 52.71875 265.042969 L 52.601562 265.058594 L 52.484375 265.078125 L 52.375 265.101562 L 52.269531 265.128906 L 52.167969 265.160156 L 52.070312 265.191406 L 51.972656 265.226562 L 51.882812 265.265625 L 51.796875 265.304688 L 51.710938 265.347656 L 51.632812 265.394531 L 51.554688 265.445312 L 51.480469 265.496094 L 51.410156 265.550781 L 51.339844 265.609375 L 51.277344 265.671875 L 51.21875 265.734375 L 51.164062 265.796875 L 51.109375 265.863281 L 51.015625 266.003906 L 50.972656 266.078125 L 50.933594 266.15625 L 50.898438 266.238281 L 50.867188 266.320312 L 50.839844 266.402344 L 50.8125 266.488281 L 50.789062 266.578125 L 50.769531 266.667969 L 50.75 266.761719 L 50.734375 266.855469 L 50.722656 266.949219 L 50.714844 267.046875 L 50.707031 267.148438 L 50.703125 267.246094 L 50.703125 267.433594 L 50.710938 267.597656 L 50.71875 267.683594 L 50.726562 267.765625 L 50.738281 267.851562 L 50.753906 267.933594 L 50.769531 268.019531 L 50.808594 268.191406 L 50.832031 268.277344 L 50.859375 268.359375 L 50.921875 268.523438 L 51 268.679688 L 51.09375 268.828125 L 51.144531 268.902344 L 51.199219 268.972656 L 51.257812 269.039062 L 51.320312 269.105469 L 51.390625 269.171875 L 51.460938 269.234375 L 51.535156 269.292969 L 51.617188 269.347656 L 51.703125 269.402344 L 51.789062 269.453125 L 51.882812 269.5 L 51.980469 269.546875 L 52.082031 269.589844 L 52.191406 269.628906 L 52.304688 269.664062 L 52.425781 269.691406 L 52.550781 269.714844 L 52.679688 269.738281 L 52.816406 269.753906 L 52.957031 269.761719 L 53.105469 269.769531 L 53.261719 269.773438 L 53.421875 269.769531 L 53.578125 269.761719 L 53.726562 269.753906 L 53.871094 269.738281 L 54.007812 269.714844 L 54.136719 269.691406 L 54.257812 269.664062 L 54.375 269.628906 L 54.484375 269.589844 L 54.589844 269.546875 L 54.6875 269.5 L 54.78125 269.453125 L 54.871094 269.402344 L 54.957031 269.347656 L 55.035156 269.292969 L 55.109375 269.234375 L 55.179688 269.171875 L 55.246094 269.105469 L 55.304688 269.039062 L 55.359375 268.972656 L 55.414062 268.902344 L 55.507812 268.753906 L 55.546875 268.679688 L 55.585938 268.601562 L 55.617188 268.523438 L 55.648438 268.441406 L 55.695312 268.277344 L 55.757812 267.933594 L 55.765625 267.851562 L 55.777344 267.765625 L 55.785156 267.683594 L 55.792969 267.597656 L 55.796875 267.515625 L 55.796875 267.433594 Z M 56.140625 273.667969 L 56.140625 273.570312 L 56.136719 273.472656 L 56.128906 273.375 L 56.105469 273.179688 L 56.074219 272.992188 L 56.054688 272.898438 L 56.03125 272.804688 L 56.003906 272.710938 L 55.976562 272.621094 L 55.941406 272.527344 L 55.90625 272.441406 L 55.863281 272.355469 L 55.820312 272.273438 L 55.769531 272.191406 L 55.71875 272.113281 L 55.660156 272.035156 L 55.601562 271.964844 L 55.535156 271.890625 L 55.464844 271.820312 L 55.394531 271.753906 L 55.316406 271.6875 L 55.230469 271.625 L 55.144531 271.566406 L 54.957031 271.457031 L 54.855469 271.40625 L 54.746094 271.359375 L 54.636719 271.316406 L 54.523438 271.273438 L 54.402344 271.234375 L 54.277344 271.199219 L 54.144531 271.171875 L 54.007812 271.148438 L 53.867188 271.125 L 53.71875 271.109375 L 53.566406 271.101562 L 53.40625 271.09375 L 53.242188 271.089844 L 53.089844 271.09375 L 52.941406 271.101562 L 52.796875 271.109375 L 52.660156 271.125 L 52.523438 271.148438 L 52.394531 271.171875 L 52.269531 271.199219 L 52.148438 271.234375 L 52.035156 271.273438 L 51.921875 271.316406 L 51.816406 271.359375 L 51.714844 271.40625 L 51.617188 271.457031 L 51.523438 271.511719 L 51.433594 271.566406 L 51.347656 271.625 L 51.265625 271.6875 L 51.1875 271.753906 L 51.113281 271.820312 L 51.042969 271.890625 L 50.917969 272.039062 L 50.859375 272.117188 L 50.804688 272.199219 L 50.753906 272.28125 L 50.707031 272.367188 L 50.664062 272.453125 L 50.625 272.542969 L 50.554688 272.730469 L 50.523438 272.824219 L 50.5 272.921875 L 50.476562 273.015625 L 50.453125 273.113281 L 50.421875 273.308594 L 50.414062 273.40625 L 50.40625 273.507812 L 50.398438 273.605469 L 50.398438 273.832031 L 50.40625 273.957031 L 50.421875 274.199219 L 50.4375 274.316406 L 50.453125 274.429688 L 50.5 274.65625 L 50.523438 274.761719 L 50.554688 274.871094 L 50.589844 274.972656 L 50.625 275.070312 L 50.664062 275.167969 L 50.710938 275.261719 L 50.757812 275.351562 L 50.808594 275.441406 L 50.863281 275.527344 L 50.921875 275.609375 L 50.988281 275.691406 L 51.054688 275.769531 L 51.125 275.839844 L 51.199219 275.910156 L 51.277344 275.976562 L 51.359375 276.039062 L 51.449219 276.097656 L 51.539062 276.152344 L 51.636719 276.207031 L 51.738281 276.257812 L 51.84375 276.300781 L 51.953125 276.34375 L 52.066406 276.382812 L 52.183594 276.417969 L 52.304688 276.449219 L 52.433594 276.476562 L 52.566406 276.5 L 52.703125 276.515625 L 52.84375 276.53125 L 52.992188 276.542969 L 53.144531 276.546875 L 53.300781 276.550781 L 53.457031 276.546875 L 53.609375 276.542969 L 53.757812 276.53125 L 53.898438 276.515625 L 54.035156 276.5 L 54.167969 276.476562 L 54.296875 276.449219 L 54.417969 276.417969 L 54.535156 276.382812 L 54.648438 276.34375 L 54.753906 276.300781 L 54.855469 276.257812 L 54.957031 276.207031 L 55.050781 276.152344 L 55.140625 276.097656 L 55.226562 276.039062 L 55.308594 275.976562 L 55.382812 275.910156 L 55.457031 275.839844 L 55.527344 275.769531 L 55.589844 275.691406 L 55.652344 275.609375 L 55.707031 275.527344 L 55.761719 275.441406 L 55.808594 275.351562 L 55.855469 275.257812 L 55.894531 275.164062 L 55.933594 275.066406 L 55.964844 274.964844 L 55.996094 274.859375 L 56.023438 274.75 L 56.046875 274.640625 L 56.070312 274.527344 L 56.089844 274.410156 L 56.105469 274.292969 L 56.128906 274.050781 L 56.136719 273.925781 L 56.140625 273.796875 Z M 56.140625 273.667969 "/>
<path fill-rule="nonzero" fill="rgb(30.196078%, 30.196078%, 30.196078%)" fill-opacity="1" d="M 57.890625 218.4375 L 57.886719 218.800781 L 57.875 219.15625 L 57.855469 219.5 L 57.832031 219.835938 L 57.800781 220.160156 L 57.761719 220.480469 L 57.714844 220.789062 L 57.664062 221.089844 L 57.605469 221.378906 L 57.539062 221.660156 L 57.464844 221.929688 L 57.386719 222.191406 L 57.304688 222.445312 L 57.214844 222.6875 L 57.121094 222.921875 L 57.019531 223.148438 L 56.910156 223.363281 L 56.796875 223.570312 L 56.675781 223.765625 L 56.550781 223.957031 L 56.417969 224.132812 L 56.28125 224.304688 L 56.140625 224.464844 L 55.988281 224.617188 L 55.835938 224.757812 L 55.675781 224.890625 L 55.511719 225.015625 L 55.339844 225.128906 L 55.160156 225.234375 L 54.980469 225.332031 L 54.792969 225.417969 L 54.601562 225.496094 L 54.40625 225.566406 L 54.207031 225.625 L 54.003906 225.675781 L 53.792969 225.71875 L 53.578125 225.75 L 53.359375 225.773438 L 53.136719 225.785156 L 52.910156 225.792969 L 52.75 225.789062 L 52.597656 225.785156 L 52.449219 225.777344 L 52.300781 225.765625 L 52.15625 225.75 L 52.015625 225.730469 L 51.878906 225.710938 L 51.742188 225.683594 L 51.609375 225.65625 L 51.484375 225.625 L 51.355469 225.59375 L 51.113281 225.515625 L 50.996094 225.472656 L 50.769531 225.371094 L 50.660156 225.316406 L 50.554688 225.257812 L 50.449219 225.195312 L 50.351562 225.128906 L 50.25 225.058594 L 50.15625 224.984375 L 50.0625 224.902344 L 49.976562 224.820312 L 49.886719 224.734375 L 49.804688 224.644531 L 49.722656 224.546875 L 49.648438 224.449219 L 49.570312 224.347656 L 49.429688 224.128906 L 49.363281 224.011719 L 49.300781 223.890625 L 49.242188 223.765625 L 49.183594 223.636719 L 49.074219 223.363281 L 49.023438 223.21875 L 48.976562 223.074219 L 48.933594 222.921875 L 50.613281 222.65625 L 50.671875 222.828125 L 50.734375 222.992188 L 50.804688 223.148438 L 50.878906 223.292969 L 50.960938 223.429688 L 51.050781 223.554688 L 51.144531 223.671875 L 51.246094 223.777344 L 51.351562 223.875 L 51.464844 223.964844 L 51.582031 224.042969 L 51.710938 224.113281 L 51.84375 224.175781 L 51.980469 224.226562 L 52.125 224.273438 L 52.273438 224.308594 L 52.433594 224.339844 L 52.59375 224.359375 L 52.761719 224.371094 L 52.9375 224.375 L 53.078125 224.371094 L 53.21875 224.363281 L 53.355469 224.347656 L 53.488281 224.324219 L 53.617188 224.292969 L 53.746094 224.257812 L 53.875 224.214844 L 53.996094 224.164062 L 54.117188 224.105469 L 54.238281 224.042969 L 54.355469 223.972656 L 54.46875 223.894531 L 54.578125 223.808594 L 54.683594 223.71875 L 54.785156 223.617188 L 54.882812 223.515625 L 54.980469 223.402344 L 55.070312 223.285156 L 55.160156 223.160156 L 55.242188 223.027344 L 55.324219 222.890625 L 55.402344 222.746094 L 55.476562 222.59375 L 55.546875 222.433594 L 55.617188 222.269531 L 55.679688 222.097656 L 55.738281 221.917969 L 55.796875 221.730469 L 55.847656 221.539062 L 55.898438 221.339844 L 55.941406 221.132812 L 55.980469 220.917969 L 56.019531 220.699219 L 56.050781 220.46875 L 56.078125 220.234375 L 56.101562 219.992188 L 56.121094 219.746094 L 56.132812 219.488281 L 56.144531 219.226562 L 56.152344 218.957031 L 56.109375 219.046875 L 56.0625 219.136719 L 55.960938 219.308594 L 55.90625 219.390625 L 55.847656 219.472656 L 55.722656 219.628906 L 55.65625 219.703125 L 55.585938 219.777344 L 55.4375 219.917969 L 55.363281 219.984375 L 55.207031 220.109375 L 55.125 220.171875 L 55.039062 220.230469 L 54.953125 220.285156 L 54.863281 220.339844 L 54.773438 220.390625 L 54.683594 220.4375 L 54.589844 220.484375 L 54.402344 220.570312 L 54.304688 220.609375 L 54.207031 220.644531 L 54.003906 220.714844 L 53.902344 220.742188 L 53.796875 220.773438 L 53.691406 220.796875 L 53.480469 220.835938 L 53.375 220.851562 L 53.265625 220.867188 L 53.160156 220.878906 L 53.054688 220.886719 L 52.945312 220.894531 L 52.839844 220.898438 L 52.734375 220.898438 L 52.546875 220.894531 L 52.363281 220.886719 L 52.1875 220.871094 L 52.011719 220.847656 L 51.839844 220.816406 L 51.671875 220.78125 L 51.507812 220.738281 L 51.34375 220.6875 L 51.1875 220.628906 L 51.035156 220.566406 L 50.886719 220.496094 L 50.742188 220.417969 L 50.601562 220.339844 L 50.335938 220.160156 L 50.210938 220.0625 L 50.089844 219.960938 L 49.972656 219.851562 L 49.863281 219.738281 L 49.753906 219.621094 L 49.652344 219.496094 L 49.550781 219.367188 L 49.457031 219.234375 L 49.371094 219.097656 L 49.285156 218.953125 L 49.207031 218.804688 L 49.128906 218.652344 L 49.058594 218.496094 L 48.996094 218.332031 L 48.933594 218.164062 L 48.878906 217.992188 L 48.832031 217.8125 L 48.789062 217.632812 L 48.753906 217.449219 L 48.722656 217.257812 L 48.695312 217.066406 L 48.675781 216.871094 L 48.660156 216.671875 L 48.652344 216.46875 L 48.652344 216.050781 L 48.664062 215.84375 L 48.679688 215.640625 L 48.699219 215.441406 L 48.726562 215.246094 L 48.757812 215.058594 L 48.800781 214.871094 L 48.84375 214.6875 L 48.894531 214.511719 L 48.953125 214.335938 L 49.019531 214.167969 L 49.089844 214.003906 L 49.164062 213.84375 L 49.246094 213.691406 L 49.335938 213.542969 L 49.425781 213.398438 L 49.523438 213.261719 L 49.628906 213.128906 L 49.738281 213.003906 L 49.851562 212.882812 L 49.972656 212.761719 L 50.097656 212.652344 L 50.226562 212.542969 L 50.363281 212.441406 L 50.503906 212.347656 L 50.648438 212.257812 L 50.800781 212.171875 L 50.957031 212.09375 L 51.121094 212.019531 L 51.289062 211.953125 L 51.460938 211.890625 L 51.640625 211.835938 L 51.824219 211.789062 L 52.011719 211.746094 L 52.203125 211.710938 L 52.398438 211.683594 L 52.601562 211.660156 L 52.804688 211.644531 L 53.015625 211.632812 L 53.230469 211.632812 L 53.679688 211.648438 L 54.105469 211.699219 L 54.507812 211.785156 L 54.886719 211.902344 L 55.246094 212.054688 L 55.582031 212.242188 L 55.898438 212.464844 L 56.191406 212.71875 L 56.460938 213.007812 L 56.707031 213.332031 L 56.933594 213.6875 L 57.132812 214.078125 L 57.308594 214.503906 L 57.464844 214.964844 L 57.59375 215.457031 L 57.699219 215.984375 L 57.78125 216.546875 L 57.839844 217.144531 L 57.878906 217.773438 Z M 55.976562 216.738281 L 55.972656 216.585938 L 55.96875 216.4375 L 55.957031 216.289062 L 55.945312 216.144531 L 55.929688 216 L 55.90625 215.855469 L 55.882812 215.714844 L 55.855469 215.578125 L 55.824219 215.4375 L 55.753906 215.171875 L 55.710938 215.039062 L 55.667969 214.914062 L 55.566406 214.671875 L 55.511719 214.558594 L 55.453125 214.445312 L 55.390625 214.335938 L 55.324219 214.234375 L 55.253906 214.132812 L 55.179688 214.035156 L 55.105469 213.941406 L 55.027344 213.851562 L 54.941406 213.765625 L 54.855469 213.6875 L 54.765625 213.609375 L 54.675781 213.539062 L 54.578125 213.472656 L 54.476562 213.410156 L 54.375 213.351562 L 54.269531 213.292969 L 54.160156 213.246094 L 54.046875 213.199219 L 53.933594 213.164062 L 53.8125 213.128906 L 53.691406 213.105469 L 53.566406 213.082031 L 53.308594 213.058594 L 53.046875 213.058594 L 52.921875 213.066406 L 52.800781 213.078125 L 52.683594 213.09375 L 52.570312 213.113281 L 52.457031 213.136719 L 52.34375 213.167969 L 52.238281 213.199219 L 52.132812 213.238281 L 52.03125 213.28125 L 51.929688 213.328125 L 51.832031 213.378906 L 51.738281 213.433594 L 51.648438 213.492188 L 51.5625 213.554688 L 51.476562 213.621094 L 51.394531 213.691406 L 51.316406 213.765625 L 51.242188 213.84375 L 51.171875 213.925781 L 51.101562 214.011719 L 51.035156 214.097656 L 50.972656 214.1875 L 50.914062 214.285156 L 50.859375 214.382812 L 50.804688 214.484375 L 50.753906 214.589844 L 50.707031 214.703125 L 50.664062 214.816406 L 50.625 214.933594 L 50.554688 215.175781 L 50.527344 215.300781 L 50.503906 215.429688 L 50.484375 215.5625 L 50.46875 215.695312 L 50.453125 215.832031 L 50.445312 215.972656 L 50.4375 216.261719 L 50.4375 216.398438 L 50.445312 216.535156 L 50.453125 216.667969 L 50.464844 216.800781 L 50.496094 217.058594 L 50.542969 217.308594 L 50.570312 217.429688 L 50.605469 217.550781 L 50.640625 217.667969 L 50.679688 217.78125 L 50.722656 217.894531 L 50.769531 218 L 50.820312 218.105469 L 50.929688 218.308594 L 51.054688 218.496094 L 51.121094 218.585938 L 51.191406 218.667969 L 51.265625 218.75 L 51.339844 218.828125 L 51.503906 218.96875 L 51.589844 219.035156 L 51.679688 219.101562 L 51.773438 219.160156 L 51.871094 219.214844 L 51.972656 219.269531 L 52.074219 219.316406 L 52.179688 219.355469 L 52.289062 219.394531 L 52.402344 219.425781 L 52.519531 219.453125 L 52.761719 219.492188 L 52.890625 219.503906 L 53.019531 219.511719 L 53.25 219.511719 L 53.445312 219.496094 L 53.542969 219.484375 L 53.644531 219.472656 L 53.742188 219.453125 L 53.839844 219.429688 L 53.941406 219.40625 L 54.039062 219.378906 L 54.140625 219.347656 L 54.238281 219.3125 L 54.335938 219.273438 L 54.433594 219.230469 L 54.621094 219.136719 L 54.710938 219.082031 L 54.796875 219.027344 L 54.882812 218.96875 L 54.964844 218.90625 L 55.046875 218.839844 L 55.128906 218.769531 L 55.203125 218.695312 L 55.277344 218.617188 L 55.351562 218.535156 L 55.417969 218.453125 L 55.484375 218.363281 L 55.542969 218.273438 L 55.601562 218.179688 L 55.660156 218.082031 L 55.710938 217.980469 L 55.761719 217.871094 L 55.804688 217.761719 L 55.84375 217.644531 L 55.878906 217.527344 L 55.910156 217.40625 L 55.933594 217.28125 L 55.964844 217.015625 L 55.972656 216.878906 Z M 55.976562 216.738281 "/>
<path fill-rule="nonzero" fill="rgb(30.196078%, 30.196078%, 30.196078%)" fill-opacity="1" d="M 38.113281 173.519531 L 38.113281 172.027344 L 41.621094 172.027344 L 41.621094 161.441406 L 38.515625 163.65625 L 38.515625 161.996094 L 41.765625 159.761719 L 43.386719 159.761719 L 43.386719 172.027344 L 46.738281 172.027344 L 46.738281 173.519531 Z M 38.113281 173.519531 "/>
<path fill-rule="nonzero" fill="rgb(30.196078%, 30.196078%, 30.196078%)" fill-opacity="1" d="M 58.054688 166.636719 L 58.050781 167.023438 L 58.039062 167.402344 L 58.019531 167.769531 L 57.992188 168.121094 L 57.960938 168.460938 L 57.917969 168.789062 L 57.867188 169.105469 L 57.8125 169.40625 L 57.746094 169.695312 L 57.675781 169.976562 L 57.597656 170.238281 L 57.515625 170.492188 L 57.425781 170.738281 L 57.332031 170.972656 L 57.230469 171.195312 L 57.125 171.410156 L 57.015625 171.613281 L 56.898438 171.804688 L 56.777344 171.988281 L 56.648438 172.164062 L 56.515625 172.324219 L 56.382812 172.476562 L 56.242188 172.617188 L 56.09375 172.75 L 55.945312 172.875 L 55.789062 172.988281 L 55.632812 173.09375 L 55.46875 173.191406 L 55.296875 173.277344 L 55.125 173.355469 L 54.949219 173.421875 L 54.769531 173.484375 L 54.585938 173.539062 L 54.402344 173.585938 L 54.21875 173.625 L 54.027344 173.65625 L 53.835938 173.683594 L 53.644531 173.699219 L 53.449219 173.710938 L 53.25 173.714844 L 53.050781 173.710938 L 52.851562 173.699219 L 52.660156 173.683594 L 52.46875 173.65625 L 52.277344 173.625 L 52.09375 173.585938 L 51.910156 173.539062 L 51.726562 173.484375 L 51.550781 173.421875 L 51.375 173.355469 L 51.203125 173.277344 L 51.035156 173.191406 L 50.875 173.09375 L 50.714844 172.988281 L 50.5625 172.875 L 50.414062 172.75 L 50.269531 172.617188 L 50.128906 172.476562 L 49.992188 172.324219 L 49.863281 172.164062 L 49.738281 171.992188 L 49.617188 171.808594 L 49.503906 171.617188 L 49.394531 171.414062 L 49.292969 171.203125 L 49.195312 170.980469 L 49.101562 170.746094 L 49.015625 170.503906 L 48.933594 170.25 L 48.855469 169.984375 L 48.785156 169.707031 L 48.726562 169.417969 L 48.671875 169.113281 L 48.625 168.796875 L 48.585938 168.46875 L 48.550781 168.128906 L 48.527344 167.773438 L 48.507812 167.40625 L 48.496094 167.027344 L 48.496094 166.226562 L 48.507812 165.832031 L 48.527344 165.453125 L 48.550781 165.085938 L 48.585938 164.734375 L 48.625 164.398438 L 48.671875 164.078125 L 48.726562 163.769531 L 48.785156 163.476562 L 48.855469 163.199219 L 48.933594 162.929688 L 49.015625 162.671875 L 49.101562 162.425781 L 49.195312 162.191406 L 49.296875 161.96875 L 49.398438 161.757812 L 49.507812 161.554688 L 49.625 161.367188 L 49.746094 161.1875 L 49.871094 161.019531 L 50.003906 160.863281 L 50.136719 160.714844 L 50.277344 160.578125 L 50.425781 160.449219 L 50.574219 160.332031 L 50.730469 160.222656 L 50.886719 160.125 L 51.050781 160.035156 L 51.222656 159.957031 L 51.394531 159.886719 L 51.570312 159.824219 L 51.753906 159.765625 L 51.9375 159.71875 L 52.121094 159.675781 L 52.3125 159.636719 L 52.503906 159.609375 L 52.703125 159.585938 L 52.902344 159.566406 L 53.101562 159.558594 L 53.308594 159.554688 L 53.503906 159.558594 L 53.699219 159.566406 L 53.890625 159.585938 L 54.078125 159.609375 L 54.261719 159.636719 L 54.445312 159.675781 L 54.628906 159.71875 L 54.804688 159.765625 L 54.980469 159.824219 L 55.15625 159.886719 L 55.324219 159.957031 L 55.492188 160.035156 L 55.65625 160.125 L 55.8125 160.222656 L 55.96875 160.332031 L 56.117188 160.449219 L 56.261719 160.578125 L 56.402344 160.714844 L 56.535156 160.863281 L 56.667969 161.019531 L 56.792969 161.1875 L 56.914062 161.367188 L 57.03125 161.554688 L 57.140625 161.757812 L 57.246094 161.96875 L 57.34375 162.191406 L 57.4375 162.425781 L 57.523438 162.671875 L 57.605469 162.929688 L 57.683594 163.199219 L 57.753906 163.476562 L 57.816406 163.769531 L 57.875 164.078125 L 57.921875 164.398438 L 57.960938 164.734375 L 57.996094 165.085938 L 58.023438 165.453125 L 58.039062 165.832031 L 58.050781 166.226562 Z M 56.269531 166.636719 L 56.265625 166.3125 L 56.261719 166 L 56.25 165.699219 L 56.238281 165.410156 L 56.21875 165.132812 L 56.199219 164.867188 L 56.171875 164.609375 L 56.144531 164.367188 L 56.109375 164.132812 L 56.074219 163.910156 L 56.03125 163.695312 L 55.988281 163.492188 L 55.9375 163.292969 L 55.886719 163.105469 L 55.832031 162.929688 L 55.769531 162.757812 L 55.707031 162.597656 L 55.640625 162.449219 L 55.570312 162.304688 L 55.496094 162.171875 L 55.417969 162.046875 L 55.335938 161.925781 L 55.253906 161.816406 L 55.164062 161.710938 L 55.070312 161.617188 L 54.976562 161.527344 L 54.878906 161.449219 L 54.773438 161.375 L 54.667969 161.3125 L 54.558594 161.253906 L 54.449219 161.203125 L 54.332031 161.15625 L 54.214844 161.113281 L 54.097656 161.078125 L 53.847656 161.023438 L 53.714844 161.003906 L 53.582031 160.992188 L 53.449219 160.984375 L 53.308594 160.980469 L 53.164062 160.984375 L 53.019531 160.992188 L 52.878906 161.003906 L 52.742188 161.023438 L 52.609375 161.050781 L 52.480469 161.078125 L 52.355469 161.113281 L 52.234375 161.15625 L 52.117188 161.203125 L 52 161.253906 L 51.890625 161.3125 L 51.78125 161.378906 L 51.675781 161.453125 L 51.574219 161.535156 L 51.476562 161.621094 L 51.382812 161.71875 L 51.292969 161.824219 L 51.207031 161.933594 L 51.125 162.054688 L 51.042969 162.183594 L 50.96875 162.316406 L 50.898438 162.457031 L 50.832031 162.609375 L 50.769531 162.769531 L 50.707031 162.9375 L 50.652344 163.117188 L 50.601562 163.304688 L 50.550781 163.5 L 50.507812 163.707031 L 50.46875 163.921875 L 50.429688 164.140625 L 50.398438 164.375 L 50.367188 164.621094 L 50.34375 164.875 L 50.320312 165.140625 L 50.304688 165.417969 L 50.289062 165.707031 L 50.28125 166.003906 L 50.273438 166.3125 L 50.273438 166.945312 L 50.28125 167.246094 L 50.289062 167.539062 L 50.304688 167.820312 L 50.320312 168.09375 L 50.34375 168.355469 L 50.367188 168.605469 L 50.398438 168.847656 L 50.429688 169.078125 L 50.46875 169.300781 L 50.511719 169.515625 L 50.554688 169.71875 L 50.605469 169.914062 L 50.660156 170.101562 L 50.714844 170.28125 L 50.777344 170.449219 L 50.839844 170.613281 L 50.90625 170.765625 L 50.980469 170.914062 L 51.054688 171.050781 L 51.132812 171.175781 L 51.214844 171.296875 L 51.300781 171.410156 L 51.390625 171.515625 L 51.484375 171.613281 L 51.582031 171.703125 L 51.679688 171.789062 L 51.785156 171.863281 L 51.890625 171.933594 L 52 171.996094 L 52.113281 172.050781 L 52.230469 172.097656 L 52.347656 172.140625 L 52.46875 172.175781 L 52.597656 172.207031 L 52.722656 172.234375 L 52.855469 172.253906 L 52.992188 172.269531 L 53.128906 172.277344 L 53.269531 172.28125 L 53.40625 172.277344 L 53.542969 172.269531 L 53.671875 172.253906 L 53.800781 172.234375 L 53.929688 172.207031 L 54.050781 172.175781 L 54.171875 172.140625 L 54.292969 172.097656 L 54.40625 172.050781 L 54.519531 171.996094 L 54.628906 171.933594 L 54.734375 171.863281 L 54.839844 171.789062 L 54.9375 171.703125 L 55.03125 171.613281 L 55.125 171.515625 L 55.214844 171.410156 L 55.296875 171.296875 L 55.378906 171.175781 L 55.457031 171.050781 L 55.535156 170.914062 L 55.605469 170.765625 L 55.675781 170.613281 L 55.738281 170.449219 L 55.800781 170.28125 L 55.859375 170.101562 L 55.914062 169.914062 L 55.964844 169.71875 L 56.011719 169.515625 L 56.054688 169.300781 L 56.09375 169.078125 L 56.128906 168.847656 L 56.164062 168.605469 L 56.191406 168.355469 L 56.214844 168.09375 L 56.234375 167.820312 L 56.25 167.539062 L 56.257812 167.246094 L 56.265625 166.945312 Z M 56.269531 166.636719 "/>
<path fill-rule="nonzero" fill="rgb(30.196078%, 30.196078%, 30.196078%)" fill-opacity="1" d="M 38.113281 121.445312 L 38.113281 119.949219 L 41.621094 119.949219 L 41.621094 109.363281 L 38.515625 111.582031 L 38.515625 109.921875 L 41.765625 107.683594 L 43.386719 107.683594 L 43.386719 119.949219 L 46.738281 119.949219 L 46.738281 121.445312 Z M 38.113281 121.445312 "/>
<path fill-rule="nonzero" fill="rgb(30.196078%, 30.196078%, 30.196078%)" fill-opacity="1" d="M 49.238281 121.445312 L 49.238281 119.949219 L 52.742188 119.949219 L 52.742188 109.363281 L 49.636719 111.582031 L 49.636719 109.921875 L 52.890625 107.683594 L 54.511719 107.683594 L 54.511719 119.949219 L 57.859375 119.949219 L 57.859375 121.445312 Z M 49.238281 121.445312 "/>
<path fill-rule="nonzero" fill="rgb(30.196078%, 30.196078%, 30.196078%)" fill-opacity="1" d="M 38.113281 69.367188 L 38.113281 67.871094 L 41.621094 67.871094 L 41.621094 57.285156 L 38.515625 59.503906 L 38.515625 57.84375 L 41.765625 55.605469 L 43.386719 55.605469 L 43.386719 67.871094 L 46.738281 67.871094 L 46.738281 69.367188 Z M 38.113281 69.367188 "/>
<path fill-rule="nonzero" fill="rgb(30.196078%, 30.196078%, 30.196078%)" fill-opacity="1" d="M 48.71875 69.367188 L 48.71875 68.125 L 48.820312 67.902344 L 48.925781 67.679688 L 49.039062 67.464844 L 49.152344 67.257812 L 49.269531 67.050781 L 49.394531 66.855469 L 49.523438 66.660156 L 49.652344 66.472656 L 49.789062 66.292969 L 49.929688 66.113281 L 50.074219 65.941406 L 50.222656 65.769531 L 50.371094 65.601562 L 50.667969 65.28125 L 50.820312 65.125 L 50.976562 64.96875 L 51.128906 64.820312 L 51.285156 64.675781 L 51.445312 64.53125 L 51.601562 64.390625 L 51.757812 64.253906 L 51.917969 64.113281 L 52.386719 63.714844 L 52.542969 63.585938 L 52.695312 63.460938 L 52.851562 63.335938 L 53.007812 63.214844 L 53.3125 62.972656 L 53.460938 62.851562 L 53.75 62.609375 L 54.023438 62.367188 L 54.15625 62.246094 L 54.414062 62.003906 L 54.535156 61.882812 L 54.652344 61.757812 L 54.765625 61.636719 L 54.875 61.511719 L 54.976562 61.382812 L 55.074219 61.257812 L 55.167969 61.128906 L 55.257812 60.996094 L 55.339844 60.867188 L 55.417969 60.734375 L 55.492188 60.597656 L 55.558594 60.460938 L 55.617188 60.320312 L 55.667969 60.175781 L 55.710938 60.027344 L 55.746094 59.875 L 55.773438 59.71875 L 55.792969 59.558594 L 55.804688 59.394531 L 55.808594 59.230469 L 55.808594 59.113281 L 55.800781 59 L 55.792969 58.890625 L 55.78125 58.785156 L 55.765625 58.679688 L 55.746094 58.578125 L 55.722656 58.480469 L 55.667969 58.292969 L 55.632812 58.203125 L 55.597656 58.117188 L 55.554688 58.03125 L 55.46875 57.867188 L 55.367188 57.71875 L 55.25 57.578125 L 55.191406 57.515625 L 55.125 57.453125 L 55.058594 57.394531 L 54.988281 57.339844 L 54.914062 57.285156 L 54.835938 57.234375 L 54.757812 57.1875 L 54.675781 57.144531 L 54.59375 57.105469 L 54.507812 57.070312 L 54.417969 57.035156 L 54.230469 56.972656 L 54.136719 56.949219 L 53.941406 56.902344 L 53.839844 56.886719 L 53.734375 56.871094 L 53.628906 56.863281 L 53.410156 56.847656 L 53.195312 56.847656 L 53.089844 56.851562 L 52.988281 56.859375 L 52.785156 56.882812 L 52.6875 56.898438 L 52.589844 56.917969 L 52.492188 56.941406 L 52.398438 56.964844 L 52.304688 56.992188 L 52.210938 57.023438 L 52.125 57.058594 L 52.035156 57.09375 L 51.953125 57.132812 L 51.867188 57.175781 L 51.789062 57.222656 L 51.707031 57.269531 L 51.632812 57.320312 L 51.554688 57.375 L 51.484375 57.433594 L 51.410156 57.492188 L 51.34375 57.554688 L 51.277344 57.621094 L 51.152344 57.761719 L 51.09375 57.835938 L 51.039062 57.914062 L 50.984375 57.996094 L 50.933594 58.078125 L 50.886719 58.164062 L 50.84375 58.253906 L 50.804688 58.34375 L 50.765625 58.4375 L 50.730469 58.53125 L 50.703125 58.632812 L 50.671875 58.734375 L 50.648438 58.839844 L 50.628906 58.945312 L 50.609375 59.058594 L 50.59375 59.171875 L 48.796875 59.003906 L 48.816406 58.859375 L 48.839844 58.710938 L 48.871094 58.566406 L 48.90625 58.425781 L 48.945312 58.285156 L 48.988281 58.148438 L 49.035156 58.007812 L 49.085938 57.875 L 49.144531 57.742188 L 49.207031 57.609375 L 49.273438 57.480469 L 49.421875 57.230469 L 49.503906 57.113281 L 49.589844 56.996094 L 49.683594 56.882812 L 49.777344 56.773438 L 49.878906 56.667969 L 49.984375 56.566406 L 50.097656 56.464844 L 50.210938 56.367188 L 50.332031 56.277344 L 50.457031 56.1875 L 50.585938 56.101562 L 50.71875 56.023438 L 50.855469 55.945312 L 51 55.875 L 51.144531 55.808594 L 51.296875 55.742188 L 51.453125 55.683594 L 51.617188 55.632812 L 51.785156 55.582031 L 51.957031 55.539062 L 52.132812 55.503906 L 52.316406 55.472656 L 52.503906 55.449219 L 52.695312 55.425781 L 52.890625 55.414062 L 53.09375 55.40625 L 53.300781 55.402344 L 53.699219 55.410156 L 53.894531 55.425781 L 54.082031 55.441406 L 54.269531 55.464844 L 54.449219 55.488281 L 54.625 55.523438 L 54.796875 55.558594 L 55.125 55.644531 L 55.28125 55.699219 L 55.433594 55.753906 L 55.582031 55.8125 L 55.726562 55.878906 L 55.863281 55.949219 L 55.996094 56.023438 L 56.121094 56.101562 L 56.242188 56.1875 L 56.359375 56.277344 L 56.472656 56.367188 L 56.582031 56.46875 L 56.683594 56.570312 L 56.78125 56.675781 L 56.875 56.789062 L 56.964844 56.902344 L 57.046875 57.023438 L 57.121094 57.148438 L 57.195312 57.277344 L 57.261719 57.414062 L 57.324219 57.550781 L 57.378906 57.691406 L 57.429688 57.839844 L 57.472656 57.992188 L 57.511719 58.148438 L 57.542969 58.308594 L 57.570312 58.472656 L 57.589844 58.640625 L 57.605469 58.8125 L 57.613281 58.988281 L 57.617188 59.171875 L 57.613281 59.308594 L 57.605469 59.445312 L 57.59375 59.582031 L 57.574219 59.714844 L 57.550781 59.847656 L 57.523438 59.980469 L 57.492188 60.109375 L 57.453125 60.238281 L 57.410156 60.363281 L 57.363281 60.488281 L 57.3125 60.613281 L 57.257812 60.738281 L 57.199219 60.859375 L 57.074219 61.101562 L 56.933594 61.335938 L 56.859375 61.453125 L 56.78125 61.566406 L 56.699219 61.679688 L 56.527344 61.90625 L 56.4375 62.019531 L 56.347656 62.128906 L 56.253906 62.238281 L 56.15625 62.347656 L 56.054688 62.457031 L 55.953125 62.5625 L 55.742188 62.773438 L 55.628906 62.878906 L 55.519531 62.984375 L 55.40625 63.089844 L 55.296875 63.195312 L 55.179688 63.296875 L 55.066406 63.402344 L 54.949219 63.503906 L 54.835938 63.605469 L 54.714844 63.707031 L 54.480469 63.910156 L 54.359375 64.007812 L 54.238281 64.109375 L 54.121094 64.207031 L 54 64.308594 L 53.878906 64.40625 L 53.757812 64.507812 L 53.636719 64.605469 L 53.519531 64.707031 L 53.277344 64.902344 L 53.15625 65.003906 L 52.921875 65.199219 L 52.695312 65.394531 L 52.582031 65.496094 L 52.363281 65.691406 L 52.253906 65.792969 L 52.148438 65.890625 L 52.046875 65.992188 L 51.949219 66.09375 L 51.847656 66.195312 L 51.660156 66.398438 L 51.390625 66.703125 L 51.308594 66.808594 L 51.144531 67.011719 L 51.070312 67.117188 L 51 67.222656 L 50.933594 67.328125 L 50.871094 67.433594 L 50.808594 67.542969 L 50.753906 67.652344 L 50.652344 67.871094 L 57.832031 67.871094 L 57.832031 69.367188 Z M 48.71875 69.367188 "/>
<path fill-rule="nonzero" fill="rgb(30.196078%, 30.196078%, 30.196078%)" fill-opacity="1" d="M 162.9375 315.972656 L 162.9375 314.410156 L 167.820312 314.410156 L 167.820312 315.972656 Z M 162.9375 315.972656 "/>
<path fill-rule="nonzero" fill="rgb(30.196078%, 30.196078%, 30.196078%)" fill-opacity="1" d="M 169.714844 320.503906 L 169.714844 319.265625 L 169.816406 319.039062 L 169.921875 318.820312 L 170.03125 318.605469 L 170.148438 318.394531 L 170.265625 318.191406 L 170.390625 317.992188 L 170.515625 317.800781 L 170.648438 317.613281 L 170.785156 317.429688 L 170.925781 317.253906 L 171.070312 317.078125 L 171.367188 316.742188 L 171.515625 316.578125 L 171.664062 316.417969 L 171.816406 316.261719 L 171.972656 316.109375 L 172.125 315.960938 L 172.28125 315.8125 L 172.441406 315.671875 L 172.753906 315.390625 L 172.914062 315.253906 L 173.070312 315.117188 L 173.226562 314.984375 L 173.539062 314.726562 L 173.691406 314.597656 L 173.847656 314.476562 L 174.003906 314.351562 L 174.308594 314.109375 L 174.457031 313.988281 L 174.746094 313.746094 L 175.019531 313.503906 L 175.152344 313.382812 L 175.410156 313.140625 L 175.53125 313.019531 L 175.648438 312.898438 L 175.761719 312.773438 L 175.871094 312.648438 L 175.972656 312.519531 L 176.070312 312.394531 L 176.164062 312.265625 L 176.253906 312.136719 L 176.335938 312.003906 L 176.414062 311.871094 L 176.488281 311.738281 L 176.554688 311.597656 L 176.613281 311.457031 L 176.664062 311.3125 L 176.707031 311.164062 L 176.742188 311.011719 L 176.769531 310.855469 L 176.789062 310.695312 L 176.800781 310.535156 L 176.804688 310.367188 L 176.804688 310.253906 L 176.796875 310.140625 L 176.789062 310.03125 L 176.777344 309.921875 L 176.761719 309.820312 L 176.742188 309.71875 L 176.71875 309.621094 L 176.691406 309.523438 L 176.664062 309.433594 L 176.59375 309.253906 L 176.550781 309.167969 L 176.507812 309.085938 L 176.464844 309.007812 L 176.414062 308.929688 L 176.363281 308.855469 L 176.304688 308.785156 L 176.1875 308.652344 L 176.121094 308.589844 L 176.054688 308.53125 L 175.984375 308.476562 L 175.910156 308.421875 L 175.753906 308.328125 L 175.589844 308.242188 L 175.503906 308.207031 L 175.414062 308.171875 L 175.320312 308.140625 L 175.132812 308.085938 L 175.035156 308.0625 L 174.9375 308.042969 L 174.835938 308.023438 L 174.625 308 L 174.515625 307.992188 L 174.296875 307.984375 L 174.085938 307.992188 L 173.882812 308.007812 L 173.78125 308.023438 L 173.683594 308.039062 L 173.488281 308.078125 L 173.300781 308.132812 L 173.207031 308.164062 L 173.121094 308.195312 L 173.03125 308.234375 L 172.949219 308.273438 L 172.863281 308.316406 L 172.785156 308.359375 L 172.703125 308.410156 L 172.628906 308.460938 L 172.550781 308.515625 L 172.480469 308.570312 L 172.40625 308.632812 L 172.339844 308.695312 L 172.273438 308.761719 L 172.210938 308.828125 L 172.148438 308.902344 L 172.089844 308.976562 L 171.980469 309.132812 L 171.929688 309.21875 L 171.882812 309.304688 L 171.839844 309.390625 L 171.800781 309.480469 L 171.761719 309.574219 L 171.726562 309.671875 L 171.699219 309.769531 L 171.667969 309.871094 L 171.644531 309.976562 L 171.605469 310.195312 L 171.589844 310.308594 L 169.792969 310.144531 L 169.8125 309.996094 L 169.835938 309.851562 L 169.867188 309.707031 L 169.902344 309.5625 L 169.941406 309.421875 L 169.984375 309.285156 L 170.03125 309.148438 L 170.082031 309.011719 L 170.140625 308.878906 L 170.203125 308.746094 L 170.269531 308.617188 L 170.34375 308.492188 L 170.417969 308.371094 L 170.5 308.25 L 170.585938 308.132812 L 170.773438 307.914062 L 170.875 307.804688 L 170.980469 307.703125 L 171.207031 307.507812 L 171.328125 307.414062 L 171.453125 307.324219 L 171.582031 307.242188 L 171.714844 307.160156 L 171.851562 307.085938 L 171.996094 307.011719 L 172.140625 306.945312 L 172.292969 306.882812 L 172.449219 306.824219 L 172.613281 306.769531 L 172.78125 306.722656 L 172.953125 306.679688 L 173.128906 306.640625 L 173.3125 306.609375 L 173.5 306.585938 L 173.691406 306.566406 L 173.886719 306.550781 L 174.089844 306.542969 L 174.296875 306.539062 L 174.496094 306.542969 L 174.695312 306.550781 L 174.890625 306.5625 L 175.078125 306.578125 L 175.265625 306.601562 L 175.445312 306.628906 L 175.621094 306.660156 L 175.792969 306.695312 L 175.957031 306.738281 L 176.121094 306.785156 L 176.277344 306.835938 L 176.429688 306.890625 L 176.578125 306.953125 L 176.722656 307.015625 L 176.859375 307.085938 L 176.992188 307.160156 L 177.117188 307.242188 L 177.238281 307.324219 L 177.355469 307.414062 L 177.46875 307.507812 L 177.578125 307.605469 L 177.679688 307.707031 L 177.777344 307.8125 L 177.871094 307.925781 L 177.960938 308.042969 L 178.042969 308.160156 L 178.117188 308.285156 L 178.191406 308.417969 L 178.257812 308.550781 L 178.320312 308.6875 L 178.375 308.832031 L 178.425781 308.976562 L 178.46875 309.128906 L 178.507812 309.285156 L 178.539062 309.445312 L 178.566406 309.609375 L 178.585938 309.777344 L 178.601562 309.949219 L 178.609375 310.128906 L 178.613281 310.308594 L 178.609375 310.449219 L 178.601562 310.585938 L 178.589844 310.71875 L 178.570312 310.851562 L 178.546875 310.984375 L 178.519531 311.117188 L 178.488281 311.246094 L 178.449219 311.375 L 178.40625 311.503906 L 178.359375 311.628906 L 178.308594 311.753906 L 178.253906 311.875 L 178.195312 311.996094 L 178.070312 312.238281 L 177.929688 312.472656 L 177.855469 312.589844 L 177.777344 312.707031 L 177.695312 312.820312 L 177.609375 312.933594 L 177.523438 313.042969 L 177.433594 313.15625 L 177.34375 313.265625 L 177.25 313.375 L 177.152344 313.484375 L 177.050781 313.59375 L 176.949219 313.699219 L 176.84375 313.808594 L 176.738281 313.914062 L 176.625 314.019531 L 176.515625 314.125 L 176.402344 314.226562 L 176.292969 314.332031 L 176.175781 314.433594 L 176.0625 314.539062 L 175.945312 314.640625 L 175.832031 314.746094 L 175.710938 314.847656 L 175.59375 314.949219 L 175.476562 315.046875 L 175.355469 315.148438 L 175.234375 315.246094 L 175.117188 315.347656 L 174.996094 315.445312 L 174.875 315.546875 L 174.753906 315.644531 L 174.632812 315.746094 L 174.515625 315.84375 L 174.394531 315.945312 L 174.152344 316.140625 L 173.917969 316.335938 L 173.804688 316.433594 L 173.691406 316.535156 L 173.578125 316.632812 L 173.46875 316.730469 L 173.359375 316.832031 L 173.25 316.929688 L 173.144531 317.03125 L 173.042969 317.128906 L 172.945312 317.230469 L 172.84375 317.332031 L 172.65625 317.535156 L 172.476562 317.738281 L 172.386719 317.84375 L 172.222656 318.046875 L 172.140625 318.152344 L 172.066406 318.253906 L 171.996094 318.359375 L 171.929688 318.464844 L 171.867188 318.574219 L 171.804688 318.679688 L 171.75 318.789062 L 171.699219 318.898438 L 171.648438 319.011719 L 178.828125 319.011719 L 178.828125 320.503906 Z M 169.714844 320.503906 "/>
<path fill-rule="nonzero" fill="rgb(30.196078%, 30.196078%, 30.196078%)" fill-opacity="1" d="M 300.214844 315.972656 L 300.214844 314.410156 L 305.097656 314.410156 L 305.097656 315.972656 Z M 300.214844 315.972656 "/>
<path fill-rule="nonzero" fill="rgb(30.196078%, 30.196078%, 30.196078%)" fill-opacity="1" d="M 307.511719 320.503906 L 307.511719 319.011719 L 311.015625 319.011719 L 311.015625 308.425781 L 307.910156 310.640625 L 307.910156 308.980469 L 311.164062 306.746094 L 312.785156 306.746094 L 312.785156 319.011719 L 316.132812 319.011719 L 316.132812 320.503906 Z M 307.511719 320.503906 "/>
<path fill-rule="nonzero" fill="rgb(30.196078%, 30.196078%, 30.196078%)" fill-opacity="1" d="M 450.277344 313.621094 L 450.273438 314.011719 L 450.261719 314.386719 L 450.242188 314.753906 L 450.214844 315.105469 L 450.183594 315.445312 L 450.140625 315.773438 L 450.089844 316.089844 L 450.035156 316.390625 L 449.96875 316.683594 L 449.898438 316.960938 L 449.820312 317.222656 L 449.738281 317.480469 L 449.648438 317.722656 L 449.554688 317.957031 L 449.453125 318.179688 L 449.347656 318.394531 L 449.238281 318.597656 L 449.121094 318.792969 L 449 318.972656 L 448.871094 319.148438 L 448.738281 319.308594 L 448.605469 319.460938 L 448.464844 319.601562 L 448.316406 319.738281 L 448.167969 319.859375 L 448.011719 319.976562 L 447.855469 320.078125 L 447.691406 320.175781 L 447.519531 320.261719 L 447.347656 320.339844 L 447.171875 320.40625 L 446.992188 320.46875 L 446.808594 320.523438 L 446.625 320.570312 L 446.441406 320.609375 L 446.25 320.640625 L 446.058594 320.667969 L 445.867188 320.6875 L 445.671875 320.695312 L 445.472656 320.699219 L 445.273438 320.695312 L 445.074219 320.6875 L 444.882812 320.667969 L 444.691406 320.640625 L 444.5 320.609375 L 444.316406 320.570312 L 444.132812 320.523438 L 443.949219 320.46875 L 443.773438 320.40625 L 443.597656 320.339844 L 443.425781 320.261719 L 443.257812 320.175781 L 443.097656 320.078125 L 442.9375 319.976562 L 442.785156 319.859375 L 442.636719 319.738281 L 442.492188 319.601562 L 442.351562 319.460938 L 442.214844 319.308594 L 442.085938 319.148438 L 441.960938 318.976562 L 441.839844 318.792969 L 441.726562 318.601562 L 441.617188 318.402344 L 441.515625 318.1875 L 441.417969 317.964844 L 441.324219 317.730469 L 441.238281 317.488281 L 441.15625 317.234375 L 441.078125 316.96875 L 441.007812 316.691406 L 440.949219 316.402344 L 440.894531 316.097656 L 440.847656 315.78125 L 440.808594 315.453125 L 440.773438 315.113281 L 440.75 314.757812 L 440.730469 314.390625 L 440.71875 314.011719 L 440.71875 313.210938 L 440.730469 312.816406 L 440.75 312.4375 L 440.773438 312.070312 L 440.808594 311.71875 L 440.847656 311.382812 L 440.894531 311.0625 L 440.949219 310.753906 L 441.007812 310.460938 L 441.078125 310.183594 L 441.15625 309.914062 L 441.238281 309.65625 L 441.324219 309.414062 L 441.417969 309.179688 L 441.519531 308.953125 L 441.621094 308.742188 L 441.730469 308.542969 L 441.847656 308.351562 L 441.96875 308.171875 L 442.09375 308.003906 L 442.226562 307.847656 L 442.359375 307.699219 L 442.5 307.5625 L 442.648438 307.433594 L 442.796875 307.316406 L 442.953125 307.207031 L 443.109375 307.109375 L 443.273438 307.019531 L 443.445312 306.941406 L 443.617188 306.871094 L 443.792969 306.808594 L 443.976562 306.753906 L 444.160156 306.703125 L 444.34375 306.660156 L 444.535156 306.621094 L 444.726562 306.59375 L 444.925781 306.570312 L 445.125 306.554688 L 445.324219 306.542969 L 445.53125 306.539062 L 445.726562 306.542969 L 445.921875 306.554688 L 446.113281 306.570312 L 446.300781 306.59375 L 446.484375 306.621094 L 446.667969 306.660156 L 446.851562 306.703125 L 447.027344 306.753906 L 447.203125 306.808594 L 447.378906 306.871094 L 447.546875 306.941406 L 447.714844 307.019531 L 447.878906 307.109375 L 448.035156 307.207031 L 448.191406 307.316406 L 448.339844 307.433594 L 448.484375 307.5625 L 448.625 307.699219 L 448.757812 307.847656 L 448.890625 308.003906 L 449.015625 308.171875 L 449.136719 308.351562 L 449.253906 308.542969 L 449.363281 308.742188 L 449.46875 308.953125 L 449.566406 309.179688 L 449.660156 309.414062 L 449.746094 309.65625 L 449.828125 309.914062 L 449.90625 310.183594 L 449.976562 310.460938 L 450.039062 310.753906 L 450.09375 311.0625 L 450.144531 311.382812 L 450.183594 311.71875 L 450.21875 312.070312 L 450.242188 312.4375 L 450.261719 312.816406 L 450.273438 313.210938 Z M 448.492188 313.621094 L 448.488281 313.296875 L 448.484375 312.984375 L 448.472656 312.6875 L 448.460938 312.398438 L 448.441406 312.117188 L 448.421875 311.851562 L 448.394531 311.597656 L 448.367188 311.351562 L 448.332031 311.117188 L 448.296875 310.894531 L 448.253906 310.679688 L 448.210938 310.476562 L 448.160156 310.28125 L 448.109375 310.09375 L 448.054688 309.914062 L 447.992188 309.746094 L 447.929688 309.585938 L 447.863281 309.433594 L 447.792969 309.289062 L 447.71875 309.15625 L 447.640625 309.03125 L 447.558594 308.910156 L 447.472656 308.800781 L 447.386719 308.695312 L 447.292969 308.601562 L 447.199219 308.511719 L 447.097656 308.433594 L 446.996094 308.359375 L 446.890625 308.296875 L 446.78125 308.238281 L 446.671875 308.1875 L 446.554688 308.140625 L 446.320312 308.0625 L 446.070312 308.007812 L 445.804688 307.976562 L 445.671875 307.96875 L 445.53125 307.964844 L 445.382812 307.96875 L 445.242188 307.976562 L 445.101562 307.992188 L 444.964844 308.007812 L 444.832031 308.035156 L 444.703125 308.0625 L 444.578125 308.101562 L 444.457031 308.140625 L 444.335938 308.1875 L 444.222656 308.238281 L 444.109375 308.296875 L 444.003906 308.363281 L 443.898438 308.4375 L 443.796875 308.519531 L 443.699219 308.609375 L 443.605469 308.703125 L 443.515625 308.808594 L 443.429688 308.921875 L 443.34375 309.039062 L 443.265625 309.167969 L 443.191406 309.300781 L 443.121094 309.441406 L 443.054688 309.59375 L 442.992188 309.753906 L 442.929688 309.921875 L 442.875 310.101562 L 442.824219 310.289062 L 442.773438 310.484375 L 442.730469 310.691406 L 442.691406 310.90625 L 442.652344 311.128906 L 442.621094 311.359375 L 442.589844 311.605469 L 442.566406 311.859375 L 442.542969 312.125 L 442.527344 312.402344 L 442.511719 312.691406 L 442.503906 312.988281 L 442.496094 313.300781 L 442.496094 313.929688 L 442.503906 314.234375 L 442.511719 314.523438 L 442.527344 314.804688 L 442.542969 315.078125 L 442.566406 315.339844 L 442.589844 315.589844 L 442.621094 315.832031 L 442.652344 316.0625 L 442.691406 316.285156 L 442.730469 316.5 L 442.777344 316.703125 L 442.828125 316.898438 L 442.882812 317.085938 L 442.9375 317.265625 L 443 317.4375 L 443.0625 317.597656 L 443.128906 317.75 L 443.199219 317.898438 L 443.277344 318.035156 L 443.355469 318.160156 L 443.4375 318.28125 L 443.523438 318.394531 L 443.613281 318.5 L 443.707031 318.597656 L 443.804688 318.6875 L 443.902344 318.773438 L 444.007812 318.851562 L 444.113281 318.917969 L 444.222656 318.980469 L 444.335938 319.035156 L 444.453125 319.082031 L 444.570312 319.125 L 444.691406 319.164062 L 444.820312 319.195312 L 444.945312 319.21875 L 445.078125 319.238281 L 445.214844 319.253906 L 445.351562 319.261719 L 445.492188 319.265625 L 445.628906 319.261719 L 445.765625 319.253906 L 445.894531 319.238281 L 446.023438 319.21875 L 446.152344 319.195312 L 446.273438 319.164062 L 446.394531 319.125 L 446.515625 319.082031 L 446.628906 319.035156 L 446.742188 318.980469 L 446.851562 318.917969 L 446.957031 318.851562 L 447.058594 318.773438 L 447.160156 318.6875 L 447.253906 318.597656 L 447.347656 318.5 L 447.433594 318.394531 L 447.519531 318.28125 L 447.601562 318.160156 L 447.679688 318.035156 L 447.757812 317.898438 L 447.828125 317.75 L 447.898438 317.597656 L 447.960938 317.4375 L 448.023438 317.265625 L 448.082031 317.085938 L 448.136719 316.898438 L 448.1875 316.703125 L 448.234375 316.5 L 448.277344 316.285156 L 448.316406 316.0625 L 448.351562 315.832031 L 448.386719 315.589844 L 448.414062 315.339844 L 448.4375 315.078125 L 448.457031 314.804688 L 448.472656 314.523438 L 448.480469 314.234375 L 448.488281 313.929688 Z M 448.492188 313.621094 "/>
<path fill-rule="nonzero" fill="rgb(30.196078%, 30.196078%, 30.196078%)" fill-opacity="1" d="M 578.738281 320.503906 L 578.738281 319.011719 L 582.242188 319.011719 L 582.242188 308.425781 L 579.136719 310.640625 L 579.136719 308.980469 L 582.390625 306.746094 L 584.011719 306.746094 L 584.011719 319.011719 L 587.359375 319.011719 L 587.359375 320.503906 Z M 578.738281 320.503906 "/>
<path fill-rule="nonzero" fill="rgb(0%, 0%, 0%)" fill-opacity="1" d="M 391.617188 343.394531 L 388.777344 339.058594 L 385.914062 343.394531 L 384.019531 343.394531 L 387.78125 337.964844 L 384.195312 332.828125 L 386.140625 332.828125 L 388.777344 336.941406 L 391.394531 332.828125 L 393.355469 332.828125 L 389.773438 337.945312 L 393.582031 343.394531 Z M 391.617188 343.394531 "/>
<path fill-rule="nonzero" fill="rgb(0%, 0%, 0%)" fill-opacity="1" d="M 26.214844 153.097656 L 26.589844 153.246094 L 26.769531 153.320312 L 26.949219 153.398438 L 27.121094 153.472656 L 27.292969 153.550781 L 27.457031 153.625 L 27.621094 153.703125 L 27.933594 153.859375 L 28.230469 154.015625 L 28.375 154.097656 L 28.511719 154.179688 L 28.644531 154.265625 L 28.773438 154.351562 L 28.898438 154.441406 L 29.015625 154.53125 L 29.242188 154.71875 L 29.347656 154.816406 L 29.449219 154.914062 L 29.636719 155.117188 L 29.722656 155.222656 L 29.800781 155.332031 L 29.875 155.441406 L 29.945312 155.550781 L 30.011719 155.667969 L 30.070312 155.78125 L 30.125 155.902344 L 30.175781 156.023438 L 30.21875 156.148438 L 30.257812 156.277344 L 30.289062 156.414062 L 30.316406 156.546875 L 30.335938 156.6875 L 30.351562 156.832031 L 30.359375 156.980469 L 30.363281 157.128906 L 30.363281 157.324219 L 30.359375 157.386719 L 30.359375 157.449219 L 30.355469 157.511719 L 30.355469 157.570312 L 30.34375 157.746094 L 30.339844 157.800781 L 30.335938 157.859375 L 30.304688 158.09375 L 30.28125 158.21875 L 30.269531 158.277344 L 30.257812 158.339844 L 28.9375 158.339844 L 28.941406 158.304688 L 28.949219 158.265625 L 28.953125 158.226562 L 28.957031 158.183594 L 28.960938 158.144531 L 28.96875 158.058594 L 28.972656 158.011719 L 28.972656 157.96875 L 28.984375 157.828125 L 28.988281 157.785156 L 28.988281 157.746094 L 28.992188 157.703125 L 28.992188 157.664062 L 28.996094 157.625 L 28.996094 157.519531 L 28.992188 157.367188 L 28.972656 157.214844 L 28.945312 157.066406 L 28.902344 156.921875 L 28.851562 156.777344 L 28.789062 156.632812 L 28.714844 156.492188 L 28.628906 156.355469 L 28.53125 156.21875 L 28.421875 156.085938 L 28.296875 155.953125 L 28.164062 155.824219 L 28.011719 155.703125 L 27.851562 155.582031 L 27.671875 155.460938 L 27.484375 155.347656 L 27.277344 155.238281 L 27.0625 155.128906 L 26.828125 155.023438 L 26.585938 154.921875 L 26.164062 154.757812 L 15.648438 158.945312 L 15.648438 157.070312 L 21.488281 154.84375 L 21.539062 154.824219 L 21.597656 154.804688 L 21.660156 154.78125 L 21.792969 154.734375 L 21.867188 154.710938 L 21.941406 154.683594 L 22.019531 154.65625 L 22.101562 154.628906 L 22.191406 154.601562 L 22.277344 154.570312 L 22.367188 154.539062 L 22.453125 154.507812 L 22.542969 154.476562 L 22.628906 154.445312 L 22.71875 154.417969 L 22.804688 154.386719 L 22.894531 154.355469 L 22.980469 154.328125 L 23.070312 154.296875 L 23.15625 154.265625 L 23.242188 154.238281 L 23.324219 154.207031 L 23.40625 154.179688 L 23.640625 154.097656 L 23.714844 154.074219 L 23.789062 154.046875 L 23.859375 154.023438 L 23.925781 154.003906 L 23.988281 153.980469 L 24.046875 153.964844 L 24.097656 153.945312 L 24.144531 153.933594 L 24.1875 153.917969 L 24.222656 153.910156 L 24.253906 153.898438 L 24.277344 153.894531 L 24.300781 153.886719 L 24.277344 153.882812 L 24.246094 153.871094 L 24.214844 153.863281 L 24.179688 153.851562 L 24.140625 153.839844 L 24.097656 153.824219 L 24.046875 153.808594 L 23.996094 153.789062 L 23.941406 153.773438 L 23.878906 153.75 L 23.679688 153.679688 L 23.609375 153.652344 L 23.539062 153.628906 L 23.46875 153.601562 L 23.394531 153.578125 L 23.320312 153.550781 L 23.242188 153.523438 L 23.167969 153.496094 L 23.089844 153.46875 L 23.007812 153.4375 L 22.929688 153.410156 L 22.851562 153.378906 L 22.773438 153.351562 L 22.695312 153.320312 L 22.613281 153.292969 L 22.535156 153.261719 L 22.457031 153.234375 L 22.375 153.203125 L 22.21875 153.148438 L 22.070312 153.09375 L 22 153.070312 L 21.867188 153.023438 L 21.804688 153 L 21.742188 152.980469 L 21.683594 152.960938 L 15.648438 150.890625 L 15.648438 149.035156 Z M 26.214844 153.097656 "/>
</svg>
