<?xml version="1.0" encoding="UTF-8"?>
<svg xmlns="http://www.w3.org/2000/svg" xmlns:xlink="http://www.w3.org/1999/xlink" width="720" height="360" viewBox="0 0 720 360">
<rect x="-72" y="-36" width="864" height="432" fill="rgb(100%, 100%, 100%)" fill-opacity="1"/>
<path fill-rule="nonzero" fill="rgb(82.745098%, 82.745098%, 82.745098%)" fill-opacity="1" d="M 111.601562 203.871094 L 345.199219 203.871094 L 345.199219 145.546875 L 111.601562 145.546875 Z M 111.601562 203.871094 "/>
<path fill="none" stroke-width="2.25" stroke-linecap="butt" stroke-linejoin="round" stroke="rgb(0%, 0%, 0%)" stroke-opacity="1" stroke-miterlimit="10" d="M 111.601562 169.679688 L 345.199219 169.679688 "/>
<path fill="none" stroke-width="0.75" stroke-linecap="round" stroke-linejoin="round" stroke="rgb(0%, 0%, 0%)" stroke-opacity="1" stroke-dasharray="3 3" stroke-miterlimit="10" d="M 228.398438 265.699219 L 228.398438 203.871094 "/>
<path fill="none" stroke-width="0.75" stroke-linecap="round" stroke-linejoin="round" stroke="rgb(0%, 0%, 0%)" stroke-opacity="1" stroke-dasharray="3 3" stroke-miterlimit="10" d="M 228.398438 67.464844 L 228.398438 145.546875 "/>
<path fill="none" stroke-width="0.75" stroke-linecap="round" stroke-linejoin="round" stroke="rgb(0%, 0%, 0%)" stroke-opacity="1" stroke-miterlimit="10" d="M 170 265.699219 L 286.800781 265.699219 "/>
<path fill="none" stroke-width="0.75" stroke-linecap="round" stroke-linejoin="round" stroke="rgb(0%, 0%, 0%)" stroke-opacity="1" stroke-miterlimit="10" d="M 170 67.464844 L 286.800781 67.464844 "/>
<path fill="none" stroke-width="0.75" stroke-linecap="round" stroke-linejoin="round" stroke="rgb(0%, 0%, 0%)" stroke-opacity="1" stroke-miterlimit="10" d="M 111.601562 203.871094 L 345.199219 203.871094 L 345.199219 145.546875 L 111.601562 145.546875 Z M 111.601562 203.871094 "/>
<path fill-rule="nonzero" fill="rgb(82.745098%, 82.745098%, 82.745098%)" fill-opacity="1" d="M 403.601562 187.523438 L 637.199219 187.523438 L 637.199219 141.730469 L 403.601562 141.730469 Z M 403.601562 187.523438 "/>
<path fill="none" stroke-width="2.25" stroke-linecap="butt" stroke-linejoin="round" stroke="rgb(0%, 0%, 0%)" stroke-opacity="1" stroke-miterlimit="10" d="M 403.601562 170.878906 L 637.199219 170.878906 "/>
<path fill="none" stroke-width="0.75" stroke-linecap="round" stroke-linejoin="round" stroke="rgb(0%, 0%, 0%)" stroke-opacity="1" stroke-dasharray="3 3" stroke-miterlimit="10" d="M 520.398438 234.335938 L 520.398438 187.523438 "/>
<path fill="none" stroke-width="0.75" stroke-linecap="round" stroke-linejoin="round" stroke="rgb(0%, 0%, 0%)" stroke-opacity="1" stroke-dasharray="3 3" stroke-miterlimit="10" d="M 520.398438 83.21875 L 520.398438 141.730469 "/>
<path fill="none" stroke-width="0.75" stroke-linecap="round" stroke-linejoin="round" stroke="rgb(0%, 0%, 0%)" stroke-opacity="1" stroke-miterlimit="10" d="M 462 234.335938 L 578.800781 234.335938 "/>
<path fill="none" stroke-width="0.75" stroke-linecap="round" stroke-linejoin="round" stroke="rgb(0%, 0%, 0%)" stroke-opacity="1" stroke-miterlimit="10" d="M 462 83.21875 L 578.800781 83.21875 "/>
<path fill="none" stroke-width="0.75" stroke-linecap="round" stroke-linejoin="round" stroke="rgb(0%, 0%, 0%)" stroke-opacity="1" stroke-miterlimit="10" d="M 403.601562 187.523438 L 637.199219 187.523438 L 637.199219 141.730469 L 403.601562 141.730469 Z M 403.601562 187.523438 "/>
<path fill="none" stroke-width="0.75" stroke-linecap="round" stroke-linejoin="round" stroke="rgb(0%, 0%, 0%)" stroke-opacity="1" stroke-miterlimit="10" d="M 523.101562 278.132812 C 523.101562 281.734375 517.699219 281.734375 517.699219 278.132812 C 517.699219 274.535156 523.101562 274.535156 523.101562 278.132812 "/>
<path fill="none" stroke-width="0.75" stroke-linecap="round" stroke-linejoin="round" stroke="rgb(0%, 0%, 0%)" stroke-opacity="1" stroke-miterlimit="10" d="M 228.398438 286.558594 L 520.398438 286.558594 "/>
<path fill="none" stroke-width="0.75" stroke-linecap="round" stroke-linejoin="round" stroke="rgb(0%, 0%, 0%)" stroke-opacity="1" stroke-miterlimit="10" d="M 228.398438 286.558594 L 228.398438 293.761719 "/>
<path fill="none" stroke-width="0.75" stroke-linecap="round" stroke-linejoin="round" stroke="rgb(0%, 0%, 0%)" stroke-opacity="1" stroke-miterlimit="10" d="M 520.398438 286.558594 L 520.398438 293.761719 "/>
<path fill-rule="nonzero" fill="rgb(0%, 0%, 0%)" fill-opacity="1" d="M 231.269531 308.347656 L 231.265625 308.582031 L 231.257812 308.808594 L 231.246094 309.027344 L 231.230469 309.242188 L 231.210938 309.445312 L 231.1875 309.640625 L 231.15625 309.832031 L 231.121094 310.011719 L 231.082031 310.1875 L 231.039062 310.351562 L 230.992188 310.511719 L 230.945312 310.664062 L 230.890625 310.8125 L 230.835938 310.953125 L 230.773438 311.085938 L 230.710938 311.214844 L 230.644531 311.335938 L 230.574219 311.453125 L 230.5 311.5625 L 230.425781 311.664062 L 230.34375 311.761719 L 230.265625 311.855469 L 230.09375 312.019531 L 230.003906 312.09375 L 229.910156 312.160156 L 229.8125 312.226562 L 229.714844 312.28125 L 229.613281 312.335938 L 229.511719 312.378906 L 229.402344 312.421875 L 229.296875 312.457031 L 229.1875 312.492188 L 229.078125 312.519531 L 228.964844 312.542969 L 228.851562 312.5625 L 228.738281 312.578125 L 228.621094 312.589844 L 228.386719 312.597656 L 228.265625 312.59375 L 228.148438 312.589844 L 228.03125 312.578125 L 227.914062 312.5625 L 227.800781 312.542969 L 227.691406 312.519531 L 227.582031 312.492188 L 227.472656 312.457031 L 227.367188 312.421875 L 227.15625 312.335938 L 226.960938 312.226562 L 226.863281 312.160156 L 226.773438 312.09375 L 226.683594 312.019531 L 226.511719 311.855469 L 226.429688 311.761719 L 226.351562 311.664062 L 226.277344 311.5625 L 226.207031 311.453125 L 226.136719 311.339844 L 226.074219 311.21875 L 226.011719 311.089844 L 225.953125 310.957031 L 225.894531 310.816406 L 225.84375 310.671875 L 225.792969 310.515625 L 225.75 310.359375 L 225.707031 310.191406 L 225.671875 310.019531 L 225.636719 309.835938 L 225.609375 309.644531 L 225.585938 309.449219 L 225.566406 309.246094 L 225.550781 309.03125 L 225.539062 308.8125 L 225.535156 308.585938 L 225.53125 308.347656 L 225.535156 308.105469 L 225.539062 307.867188 L 225.550781 307.640625 L 225.566406 307.421875 L 225.585938 307.210938 L 225.609375 307.007812 L 225.636719 306.8125 L 225.671875 306.628906 L 225.707031 306.453125 L 225.75 306.285156 L 225.792969 306.125 L 225.84375 305.972656 L 225.898438 305.824219 L 225.953125 305.683594 L 226.011719 305.550781 L 226.074219 305.421875 L 226.140625 305.300781 L 226.210938 305.1875 L 226.28125 305.082031 L 226.359375 304.980469 L 226.4375 304.886719 L 226.519531 304.796875 L 226.601562 304.714844 L 226.691406 304.636719 L 226.78125 304.566406 L 226.871094 304.5 L 226.96875 304.441406 L 227.066406 304.390625 L 227.167969 304.34375 L 227.273438 304.300781 L 227.378906 304.261719 L 227.597656 304.199219 L 227.707031 304.171875 L 227.824219 304.152344 L 227.9375 304.132812 L 228.054688 304.117188 L 228.296875 304.101562 L 228.539062 304.101562 L 228.652344 304.109375 L 228.769531 304.117188 L 228.882812 304.132812 L 229.101562 304.171875 L 229.210938 304.199219 L 229.320312 304.230469 L 229.425781 304.261719 L 229.527344 304.300781 L 229.632812 304.34375 L 229.730469 304.390625 L 229.828125 304.441406 L 229.921875 304.5 L 230.015625 304.566406 L 230.105469 304.636719 L 230.191406 304.714844 L 230.277344 304.796875 L 230.359375 304.886719 L 230.4375 304.980469 L 230.511719 305.082031 L 230.585938 305.1875 L 230.652344 305.300781 L 230.71875 305.421875 L 230.78125 305.550781 L 230.839844 305.683594 L 230.898438 305.824219 L 230.949219 305.972656 L 231 306.125 L 231.046875 306.285156 L 231.085938 306.453125 L 231.125 306.628906 L 231.160156 306.8125 L 231.1875 307.007812 L 231.210938 307.210938 L 231.234375 307.421875 L 231.25 307.640625 L 231.257812 307.867188 L 231.265625 308.105469 Z M 230.195312 308.347656 L 230.195312 308.15625 L 230.191406 307.96875 L 230.183594 307.789062 L 230.175781 307.613281 L 230.167969 307.449219 L 230.152344 307.289062 L 230.136719 307.132812 L 230.121094 306.988281 L 230.101562 306.847656 L 230.078125 306.714844 L 230.054688 306.585938 L 230.027344 306.460938 L 230 306.34375 L 229.96875 306.234375 L 229.933594 306.125 L 229.898438 306.023438 L 229.859375 305.925781 L 229.820312 305.835938 L 229.777344 305.75 L 229.734375 305.671875 L 229.6875 305.59375 L 229.636719 305.523438 L 229.585938 305.457031 L 229.535156 305.394531 L 229.476562 305.335938 L 229.421875 305.285156 L 229.363281 305.238281 L 229.300781 305.191406 L 229.234375 305.15625 L 229.171875 305.121094 L 229.105469 305.089844 L 228.964844 305.035156 L 228.894531 305.015625 L 228.820312 304.996094 L 228.664062 304.972656 L 228.585938 304.964844 L 228.503906 304.957031 L 228.332031 304.957031 L 228.246094 304.964844 L 228.164062 304.972656 L 228 304.996094 L 227.925781 305.015625 L 227.847656 305.035156 L 227.777344 305.0625 L 227.703125 305.089844 L 227.636719 305.121094 L 227.570312 305.15625 L 227.503906 305.195312 L 227.441406 305.238281 L 227.378906 305.289062 L 227.320312 305.34375 L 227.265625 305.398438 L 227.210938 305.460938 L 227.109375 305.601562 L 227.0625 305.675781 L 227.015625 305.757812 L 226.972656 305.84375 L 226.933594 305.933594 L 226.894531 306.03125 L 226.859375 306.132812 L 226.828125 306.238281 L 226.796875 306.351562 L 226.765625 306.46875 L 226.738281 306.589844 L 226.714844 306.71875 L 226.691406 306.855469 L 226.671875 306.992188 L 226.65625 307.140625 L 226.640625 307.292969 L 226.628906 307.453125 L 226.617188 307.617188 L 226.609375 307.792969 L 226.601562 307.972656 L 226.597656 308.15625 L 226.597656 308.535156 L 226.601562 308.71875 L 226.617188 309.0625 L 226.628906 309.222656 L 226.640625 309.378906 L 226.65625 309.53125 L 226.671875 309.675781 L 226.691406 309.816406 L 226.714844 309.949219 L 226.742188 310.078125 L 226.769531 310.199219 L 226.796875 310.316406 L 226.832031 310.429688 L 226.863281 310.535156 L 226.902344 310.636719 L 226.9375 310.734375 L 226.980469 310.828125 L 227.023438 310.914062 L 227.066406 310.996094 L 227.113281 311.074219 L 227.214844 311.214844 L 227.269531 311.277344 L 227.382812 311.390625 L 227.445312 311.441406 L 227.503906 311.488281 L 227.636719 311.566406 L 227.703125 311.597656 L 227.773438 311.628906 L 227.84375 311.652344 L 227.917969 311.675781 L 227.992188 311.695312 L 228.148438 311.71875 L 228.230469 311.730469 L 228.3125 311.734375 L 228.480469 311.734375 L 228.558594 311.730469 L 228.640625 311.71875 L 228.714844 311.707031 L 228.792969 311.695312 L 228.867188 311.675781 L 228.9375 311.652344 L 229.011719 311.628906 L 229.078125 311.597656 L 229.148438 311.566406 L 229.210938 311.527344 L 229.277344 311.488281 L 229.339844 311.441406 L 229.398438 311.390625 L 229.511719 311.277344 L 229.5625 311.214844 L 229.664062 311.074219 L 229.710938 310.996094 L 229.753906 310.914062 L 229.800781 310.828125 L 229.839844 310.734375 L 229.878906 310.636719 L 229.917969 310.535156 L 229.949219 310.429688 L 229.984375 310.316406 L 230.011719 310.199219 L 230.042969 310.078125 L 230.066406 309.949219 L 230.089844 309.816406 L 230.113281 309.675781 L 230.132812 309.53125 L 230.148438 309.378906 L 230.164062 309.222656 L 230.175781 309.0625 L 230.191406 308.71875 L 230.195312 308.535156 Z M 230.195312 308.347656 "/>
<path fill-rule="nonzero" fill="rgb(0%, 0%, 0%)" fill-opacity="1" d="M 517.976562 312.480469 L 517.976562 311.582031 L 520.082031 311.582031 L 520.082031 305.230469 L 518.21875 306.5625 L 518.21875 305.566406 L 520.167969 304.222656 L 521.140625 304.222656 L 521.140625 311.582031 L 523.152344 311.582031 L 523.152344 312.480469 Z M 517.976562 312.480469 "/>
<path fill="none" stroke-width="0.75" stroke-linecap="round" stroke-linejoin="round" stroke="rgb(0%, 0%, 0%)" stroke-opacity="1" stroke-miterlimit="10" d="M 59.039062 278.042969 L 59.039062 63.882812 "/>
<path fill="none" stroke-width="0.75" stroke-linecap="round" stroke-linejoin="round" stroke="rgb(0%, 0%, 0%)" stroke-opacity="1" stroke-miterlimit="10" d="M 59.039062 278.042969 L 51.839844 278.042969 "/>
<path fill="none" stroke-width="0.75" stroke-linecap="round" stroke-linejoin="round" stroke="rgb(0%, 0%, 0%)" stroke-opacity="1" stroke-miterlimit="10" d="M 59.039062 242.347656 L 51.839844 242.347656 "/>
<path fill="none" stroke-width="0.75" stroke-linecap="round" stroke-linejoin="round" stroke="rgb(0%, 0%, 0%)" stroke-opacity="1" stroke-miterlimit="10" d="M 59.039062 206.65625 L 51.839844 206.65625 "/>
<path fill="none" stroke-width="0.75" stroke-linecap="round" stroke-linejoin="round" stroke="rgb(0%, 0%, 0%)" stroke-opacity="1" stroke-miterlimit="10" d="M 59.039062 170.960938 L 51.839844 170.960938 "/>
<path fill="none" stroke-width="0.75" stroke-linecap="round" stroke-linejoin="round" stroke="rgb(0%, 0%, 0%)" stroke-opacity="1" stroke-miterlimit="10" d="M 59.039062 135.269531 L 51.839844 135.269531 "/>
<path fill="none" stroke-width="0.75" stroke-linecap="round" stroke-linejoin="round" stroke="rgb(0%, 0%, 0%)" stroke-opacity="1" stroke-miterlimit="10" d="M 59.039062 99.574219 L 51.839844 99.574219 "/>
<path fill="none" stroke-width="0.75" stroke-linecap="round" stroke-linejoin="round" stroke="rgb(0%, 0%, 0%)" stroke-opacity="1" stroke-miterlimit="10" d="M 59.039062 63.882812 L 51.839844 63.882812 "/>
<path fill-rule="nonzero" fill="rgb(0%, 0%, 0%)" fill-opacity="1" d="M 39.042969 282.84375 L 38.105469 282.84375 L 38.105469 279.914062 L 39.042969 279.914062 Z M 39.042969 282.84375 "/>
<path fill-rule="nonzero" fill="rgb(0%, 0%, 0%)" fill-opacity="1" d="M 39.480469 273.234375 L 39.59375 273.238281 L 39.703125 273.242188 L 39.8125 273.25 L 39.914062 273.265625 L 40.019531 273.28125 L 40.117188 273.300781 L 40.3125 273.355469 L 40.402344 273.386719 L 40.496094 273.421875 L 40.582031 273.460938 L 40.667969 273.503906 L 40.75 273.546875 L 40.90625 273.648438 L 40.980469 273.703125 L 41.050781 273.761719 L 41.121094 273.824219 L 41.1875 273.890625 L 41.25 273.960938 L 41.367188 274.109375 L 41.421875 274.1875 L 41.472656 274.269531 L 41.519531 274.355469 L 41.566406 274.445312 L 41.609375 274.539062 L 41.648438 274.636719 L 41.71875 274.839844 L 41.75 274.945312 L 41.777344 275.054688 L 41.800781 275.167969 L 41.820312 275.28125 L 41.835938 275.398438 L 41.851562 275.519531 L 41.863281 275.644531 L 41.871094 275.773438 L 41.875 275.902344 L 41.878906 276.035156 L 41.875 276.1875 L 41.871094 276.332031 L 41.859375 276.472656 L 41.847656 276.609375 L 41.832031 276.742188 L 41.808594 276.871094 L 41.785156 276.992188 L 41.757812 277.109375 L 41.726562 277.222656 L 41.691406 277.332031 L 41.648438 277.433594 L 41.609375 277.53125 L 41.5625 277.628906 L 41.515625 277.71875 L 41.46875 277.804688 L 41.414062 277.890625 L 41.363281 277.972656 L 41.246094 278.121094 L 41.1875 278.191406 L 41.121094 278.257812 L 41.054688 278.320312 L 40.988281 278.378906 L 40.917969 278.4375 L 40.777344 278.539062 L 40.703125 278.585938 L 40.628906 278.625 L 40.472656 278.703125 L 40.308594 278.765625 L 40.144531 278.820312 L 40.0625 278.84375 L 39.976562 278.863281 L 39.894531 278.882812 L 39.722656 278.914062 L 39.640625 278.925781 L 39.539062 277.835938 L 39.605469 277.824219 L 39.730469 277.800781 L 39.792969 277.785156 L 39.851562 277.769531 L 40.027344 277.710938 L 40.136719 277.664062 L 40.191406 277.636719 L 40.242188 277.609375 L 40.292969 277.578125 L 40.339844 277.546875 L 40.433594 277.476562 L 40.476562 277.441406 L 40.519531 277.402344 L 40.558594 277.359375 L 40.601562 277.320312 L 40.707031 277.179688 L 40.742188 277.128906 L 40.769531 277.078125 L 40.800781 277.023438 L 40.828125 276.964844 L 40.875 276.847656 L 40.898438 276.785156 L 40.917969 276.722656 L 40.9375 276.65625 L 40.953125 276.585938 L 40.964844 276.515625 L 40.976562 276.441406 L 40.988281 276.363281 L 40.996094 276.285156 L 41.003906 276.121094 L 41.003906 276.035156 L 41 275.878906 L 40.988281 275.730469 L 40.96875 275.589844 L 40.941406 275.453125 L 40.90625 275.324219 L 40.863281 275.203125 L 40.8125 275.089844 L 40.753906 274.980469 L 40.6875 274.882812 L 40.613281 274.789062 L 40.527344 274.699219 L 40.4375 274.621094 L 40.339844 274.554688 L 40.238281 274.496094 L 40.125 274.445312 L 40.003906 274.402344 L 39.875 274.371094 L 39.738281 274.347656 L 39.597656 274.335938 L 39.445312 274.332031 L 39.355469 274.332031 L 39.269531 274.339844 L 39.1875 274.347656 L 39.109375 274.363281 L 39.035156 274.382812 L 38.960938 274.40625 L 38.894531 274.429688 L 38.832031 274.460938 L 38.769531 274.496094 L 38.714844 274.535156 L 38.65625 274.578125 L 38.554688 274.664062 L 38.507812 274.710938 L 38.421875 274.8125 L 38.34375 274.921875 L 38.28125 275.039062 L 38.25 275.101562 L 38.21875 275.160156 L 38.195312 275.222656 L 38.167969 275.289062 L 38.148438 275.351562 L 38.128906 275.417969 L 38.109375 275.488281 L 38.09375 275.554688 L 38.058594 275.765625 L 38.050781 275.835938 L 38.027344 276.035156 L 38.019531 276.160156 L 38.019531 276.222656 L 38.015625 276.285156 L 38.015625 276.945312 L 37.101562 276.945312 L 37.101562 276.308594 L 37.097656 276.25 L 37.097656 276.1875 L 37.09375 276.125 L 37.085938 276.066406 L 37.082031 276.003906 L 37.074219 275.941406 L 37.0625 275.875 L 37.054688 275.8125 L 37.042969 275.75 L 37.03125 275.683594 L 37.011719 275.621094 L 36.996094 275.558594 L 36.957031 275.441406 L 36.933594 275.382812 L 36.90625 275.324219 L 36.851562 275.214844 L 36.820312 275.164062 L 36.785156 275.109375 L 36.75 275.058594 L 36.710938 275.011719 L 36.671875 274.960938 L 36.628906 274.917969 L 36.582031 274.875 L 36.488281 274.796875 L 36.433594 274.757812 L 36.382812 274.722656 L 36.265625 274.660156 L 36.203125 274.632812 L 36.136719 274.609375 L 36.066406 274.589844 L 35.996094 274.574219 L 35.921875 274.5625 L 35.84375 274.554688 L 35.679688 274.546875 L 35.546875 274.550781 L 35.425781 274.5625 L 35.304688 274.582031 L 35.191406 274.609375 L 35.085938 274.644531 L 34.984375 274.6875 L 34.890625 274.738281 L 34.796875 274.796875 L 34.714844 274.867188 L 34.636719 274.941406 L 34.5625 275.019531 L 34.496094 275.109375 L 34.4375 275.207031 L 34.386719 275.308594 L 34.34375 275.421875 L 34.308594 275.542969 L 34.28125 275.667969 L 34.265625 275.800781 L 34.253906 275.945312 L 34.25 276.09375 L 34.25 276.230469 L 34.261719 276.363281 L 34.28125 276.488281 L 34.304688 276.609375 L 34.335938 276.726562 L 34.375 276.835938 L 34.421875 276.941406 L 34.476562 277.042969 L 34.539062 277.136719 L 34.605469 277.226562 L 34.679688 277.308594 L 34.761719 277.382812 L 34.847656 277.449219 L 34.9375 277.511719 L 35.035156 277.5625 L 35.140625 277.609375 L 35.25 277.648438 L 35.363281 277.679688 L 35.488281 277.707031 L 35.613281 277.722656 L 35.53125 278.785156 L 35.425781 278.769531 L 35.320312 278.75 L 35.21875 278.730469 L 35.117188 278.703125 L 35.023438 278.675781 L 34.929688 278.644531 L 34.835938 278.609375 L 34.664062 278.53125 L 34.582031 278.484375 L 34.503906 278.4375 L 34.425781 278.386719 L 34.351562 278.332031 L 34.28125 278.277344 L 34.148438 278.160156 L 34.085938 278.097656 L 34.023438 278.03125 L 33.96875 277.964844 L 33.914062 277.894531 L 33.863281 277.820312 L 33.8125 277.742188 L 33.765625 277.667969 L 33.679688 277.503906 L 33.640625 277.421875 L 33.605469 277.335938 L 33.574219 277.246094 L 33.542969 277.160156 L 33.515625 277.066406 L 33.445312 276.785156 L 33.414062 276.589844 L 33.402344 276.492188 L 33.386719 276.289062 L 33.382812 276.1875 L 33.382812 275.945312 L 33.386719 275.8125 L 33.398438 275.683594 L 33.410156 275.558594 L 33.425781 275.4375 L 33.445312 275.324219 L 33.46875 275.210938 L 33.492188 275.101562 L 33.523438 274.996094 L 33.558594 274.894531 L 33.628906 274.699219 L 33.671875 274.609375 L 33.714844 274.523438 L 33.757812 274.441406 L 33.808594 274.359375 L 33.910156 274.210938 L 34.027344 274.078125 L 34.085938 274.015625 L 34.148438 273.957031 L 34.210938 273.902344 L 34.277344 273.851562 L 34.34375 273.804688 L 34.414062 273.761719 L 34.488281 273.71875 L 34.5625 273.679688 L 34.636719 273.648438 L 34.71875 273.617188 L 34.796875 273.585938 L 34.960938 273.539062 L 35.042969 273.519531 L 35.128906 273.5 L 35.300781 273.476562 L 35.386719 273.46875 L 35.476562 273.464844 L 35.640625 273.464844 L 35.78125 273.472656 L 35.851562 273.480469 L 35.917969 273.488281 L 36.050781 273.511719 L 36.183594 273.542969 L 36.308594 273.582031 L 36.371094 273.605469 L 36.488281 273.660156 L 36.546875 273.691406 L 36.601562 273.722656 L 36.710938 273.792969 L 36.761719 273.832031 L 36.816406 273.875 L 36.863281 273.917969 L 36.914062 273.960938 L 36.960938 274.011719 L 37.003906 274.0625 L 37.050781 274.113281 L 37.089844 274.167969 L 37.132812 274.226562 L 37.171875 274.285156 L 37.210938 274.347656 L 37.25 274.414062 L 37.285156 274.476562 L 37.347656 274.617188 L 37.378906 274.691406 L 37.433594 274.847656 L 37.460938 274.929688 L 37.484375 275.015625 L 37.503906 275.101562 L 37.523438 275.191406 L 37.546875 275.191406 L 37.558594 275.09375 L 37.574219 274.996094 L 37.589844 274.90625 L 37.609375 274.8125 L 37.628906 274.726562 L 37.65625 274.640625 L 37.679688 274.558594 L 37.710938 274.476562 L 37.742188 274.398438 L 37.777344 274.324219 L 37.808594 274.253906 L 37.886719 274.113281 L 37.925781 274.050781 L 37.96875 273.988281 L 38.054688 273.871094 L 38.105469 273.816406 L 38.152344 273.765625 L 38.203125 273.714844 L 38.253906 273.667969 L 38.363281 273.582031 L 38.480469 273.503906 L 38.539062 273.472656 L 38.597656 273.4375 L 38.722656 273.382812 L 38.921875 273.3125 L 38.988281 273.296875 L 39.058594 273.277344 L 39.125 273.265625 L 39.195312 273.253906 L 39.335938 273.238281 L 39.410156 273.234375 Z M 39.480469 273.234375 "/>
<path fill-rule="nonzero" fill="rgb(0%, 0%, 0%)" fill-opacity="1" d="M 39.042969 247.152344 L 38.105469 247.152344 L 38.105469 244.222656 L 39.042969 244.222656 Z M 39.042969 247.152344 "/>
<path fill-rule="nonzero" fill="rgb(0%, 0%, 0%)" fill-opacity="1" d="M 41.761719 243.085938 L 41.015625 243.085938 L 40.878906 243.023438 L 40.75 242.960938 L 40.621094 242.894531 L 40.492188 242.824219 L 40.371094 242.753906 L 40.253906 242.679688 L 40.136719 242.601562 L 40.023438 242.523438 L 39.914062 242.441406 L 39.808594 242.359375 L 39.703125 242.269531 L 39.601562 242.183594 L 39.5 242.09375 L 39.402344 242.003906 L 39.214844 241.824219 L 39.121094 241.730469 L 39.03125 241.636719 L 38.773438 241.355469 L 38.691406 241.261719 L 38.609375 241.164062 L 38.527344 241.070312 L 38.292969 240.789062 L 38.214844 240.699219 L 38.140625 240.605469 L 38.070312 240.511719 L 37.996094 240.417969 L 37.921875 240.328125 L 37.851562 240.238281 L 37.777344 240.152344 L 37.707031 240.066406 L 37.558594 239.902344 L 37.488281 239.820312 L 37.414062 239.746094 L 37.34375 239.667969 L 37.269531 239.59375 L 37.195312 239.523438 L 37.046875 239.390625 L 36.96875 239.328125 L 36.894531 239.269531 L 36.738281 239.160156 L 36.582031 239.066406 L 36.5 239.019531 L 36.417969 238.980469 L 36.332031 238.945312 L 36.246094 238.914062 L 36.15625 238.890625 L 36.0625 238.867188 L 35.972656 238.851562 L 35.875 238.839844 L 35.777344 238.832031 L 35.609375 238.832031 L 35.539062 238.835938 L 35.476562 238.839844 L 35.410156 238.847656 L 35.347656 238.855469 L 35.289062 238.867188 L 35.171875 238.898438 L 35.117188 238.914062 L 35.0625 238.9375 L 35.007812 238.957031 L 34.957031 238.980469 L 34.910156 239.007812 L 34.859375 239.035156 L 34.816406 239.066406 L 34.769531 239.097656 L 34.726562 239.128906 L 34.6875 239.164062 L 34.648438 239.203125 L 34.613281 239.242188 L 34.574219 239.28125 L 34.511719 239.367188 L 34.480469 239.414062 L 34.425781 239.507812 L 34.402344 239.558594 L 34.382812 239.613281 L 34.359375 239.664062 L 34.34375 239.722656 L 34.324219 239.777344 L 34.308594 239.832031 L 34.292969 239.890625 L 34.28125 239.953125 L 34.273438 240.011719 L 34.261719 240.074219 L 34.257812 240.136719 L 34.25 240.269531 L 34.25 240.460938 L 34.257812 240.523438 L 34.261719 240.582031 L 34.269531 240.644531 L 34.304688 240.820312 L 34.320312 240.878906 L 34.335938 240.933594 L 34.375 241.042969 L 34.445312 241.195312 L 34.472656 241.242188 L 34.503906 241.289062 L 34.53125 241.335938 L 34.566406 241.382812 L 34.636719 241.46875 L 34.671875 241.507812 L 34.714844 241.550781 L 34.753906 241.585938 L 34.796875 241.625 L 34.84375 241.660156 L 34.9375 241.722656 L 35.039062 241.785156 L 35.089844 241.808594 L 35.144531 241.832031 L 35.203125 241.855469 L 35.257812 241.875 L 35.320312 241.894531 L 35.378906 241.910156 L 35.441406 241.925781 L 35.574219 241.949219 L 35.644531 241.960938 L 35.542969 243.039062 L 35.453125 243.027344 L 35.367188 243.011719 L 35.195312 242.972656 L 35.109375 242.949219 L 34.945312 242.894531 L 34.863281 242.863281 L 34.707031 242.792969 L 34.550781 242.707031 L 34.480469 242.664062 L 34.40625 242.613281 L 34.335938 242.5625 L 34.269531 242.507812 L 34.203125 242.449219 L 34.078125 242.324219 L 34.019531 242.257812 L 33.960938 242.1875 L 33.90625 242.117188 L 33.851562 242.042969 L 33.800781 241.964844 L 33.707031 241.800781 L 33.664062 241.714844 L 33.625 241.628906 L 33.585938 241.539062 L 33.550781 241.445312 L 33.519531 241.347656 L 33.488281 241.246094 L 33.441406 241.035156 L 33.421875 240.925781 L 33.410156 240.8125 L 33.394531 240.699219 L 33.386719 240.582031 L 33.382812 240.460938 L 33.382812 240.214844 L 33.386719 240.09375 L 33.394531 239.980469 L 33.417969 239.753906 L 33.433594 239.644531 L 33.453125 239.539062 L 33.476562 239.4375 L 33.5 239.339844 L 33.527344 239.242188 L 33.558594 239.144531 L 33.589844 239.054688 L 33.628906 238.964844 L 33.667969 238.878906 L 33.710938 238.796875 L 33.753906 238.71875 L 33.800781 238.640625 L 33.851562 238.570312 L 33.90625 238.5 L 33.960938 238.433594 L 34.019531 238.367188 L 34.082031 238.304688 L 34.144531 238.246094 L 34.210938 238.191406 L 34.28125 238.136719 L 34.429688 238.042969 L 34.585938 237.957031 L 34.671875 237.921875 L 34.753906 237.890625 L 34.84375 237.859375 L 34.933594 237.832031 L 35.027344 237.808594 L 35.125 237.789062 L 35.222656 237.773438 L 35.324219 237.761719 L 35.425781 237.753906 L 35.644531 237.746094 L 35.726562 237.746094 L 35.890625 237.761719 L 35.96875 237.769531 L 36.046875 237.785156 L 36.128906 237.800781 L 36.207031 237.820312 L 36.28125 237.84375 L 36.359375 237.871094 L 36.433594 237.898438 L 36.582031 237.960938 L 36.65625 237.996094 L 36.726562 238.03125 L 36.800781 238.070312 L 37.011719 238.199219 L 37.082031 238.246094 L 37.214844 238.347656 L 37.285156 238.398438 L 37.484375 238.5625 L 37.546875 238.621094 L 37.613281 238.683594 L 37.675781 238.742188 L 37.742188 238.804688 L 38.054688 239.136719 L 38.179688 239.277344 L 38.242188 239.34375 L 38.304688 239.414062 L 38.363281 239.484375 L 38.425781 239.558594 L 38.484375 239.628906 L 38.546875 239.699219 L 38.605469 239.773438 L 38.664062 239.84375 L 38.726562 239.914062 L 38.785156 239.988281 L 38.84375 240.058594 L 38.902344 240.132812 L 38.964844 240.203125 L 39.082031 240.351562 L 39.257812 240.5625 L 39.316406 240.628906 L 39.378906 240.699219 L 39.554688 240.898438 L 39.617188 240.964844 L 39.675781 241.027344 L 39.855469 241.207031 L 39.917969 241.261719 L 39.976562 241.320312 L 40.101562 241.429688 L 40.226562 241.53125 L 40.285156 241.582031 L 40.347656 241.628906 L 40.472656 241.714844 L 40.535156 241.753906 L 40.601562 241.792969 L 40.664062 241.828125 L 40.730469 241.863281 L 40.863281 241.925781 L 40.863281 237.617188 L 41.761719 237.617188 Z M 41.761719 243.085938 "/>
<path fill-rule="nonzero" fill="rgb(0%, 0%, 0%)" fill-opacity="1" d="M 39.042969 211.457031 L 38.105469 211.457031 L 38.105469 208.527344 L 39.042969 208.527344 Z M 39.042969 211.457031 "/>
<path fill-rule="nonzero" fill="rgb(0%, 0%, 0%)" fill-opacity="1" d="M 41.761719 207.082031 L 40.863281 207.082031 L 40.863281 204.976562 L 34.511719 204.976562 L 35.84375 206.839844 L 34.847656 206.839844 L 33.503906 204.890625 L 33.503906 203.917969 L 40.863281 203.917969 L 40.863281 201.90625 L 41.761719 201.90625 Z M 41.761719 207.082031 "/>
<path fill-rule="nonzero" fill="rgb(0%, 0%, 0%)" fill-opacity="1" d="M 37.628906 168.09375 L 37.863281 168.097656 L 38.089844 168.101562 L 38.308594 168.113281 L 38.519531 168.128906 L 38.726562 168.152344 L 38.921875 168.175781 L 39.109375 168.207031 L 39.292969 168.238281 L 39.464844 168.277344 L 39.632812 168.320312 L 39.792969 168.367188 L 39.945312 168.417969 L 40.089844 168.472656 L 40.230469 168.527344 L 40.367188 168.585938 L 40.617188 168.71875 L 40.730469 168.789062 L 40.839844 168.859375 L 40.945312 168.9375 L 41.042969 169.015625 L 41.132812 169.097656 L 41.21875 169.183594 L 41.300781 169.269531 L 41.375 169.359375 L 41.441406 169.453125 L 41.503906 169.546875 L 41.5625 169.644531 L 41.613281 169.746094 L 41.660156 169.851562 L 41.703125 169.957031 L 41.738281 170.066406 L 41.800781 170.285156 L 41.824219 170.394531 L 41.84375 170.507812 L 41.859375 170.625 L 41.875 170.859375 L 41.878906 170.976562 L 41.875 171.097656 L 41.859375 171.332031 L 41.84375 171.445312 L 41.824219 171.558594 L 41.800781 171.671875 L 41.738281 171.890625 L 41.703125 171.996094 L 41.660156 172.101562 L 41.613281 172.203125 L 41.5625 172.304688 L 41.503906 172.402344 L 41.441406 172.496094 L 41.375 172.589844 L 41.300781 172.679688 L 41.21875 172.765625 L 41.132812 172.851562 L 41.042969 172.929688 L 40.945312 173.007812 L 40.84375 173.085938 L 40.734375 173.15625 L 40.617188 173.222656 L 40.496094 173.289062 L 40.371094 173.351562 L 40.234375 173.410156 L 40.097656 173.464844 L 39.949219 173.519531 L 39.796875 173.566406 L 39.640625 173.613281 L 39.472656 173.65625 L 39.296875 173.691406 L 39.117188 173.722656 L 38.925781 173.753906 L 38.730469 173.777344 L 38.523438 173.796875 L 38.3125 173.8125 L 38.09375 173.820312 L 37.863281 173.828125 L 37.382812 173.828125 L 37.148438 173.820312 L 36.917969 173.8125 L 36.699219 173.796875 L 36.488281 173.777344 L 36.289062 173.753906 L 36.09375 173.722656 L 35.910156 173.691406 L 35.734375 173.65625 L 35.566406 173.613281 L 35.40625 173.566406 L 35.25 173.519531 L 35.105469 173.464844 L 34.964844 173.410156 L 34.828125 173.347656 L 34.703125 173.285156 L 34.582031 173.222656 L 34.46875 173.152344 L 34.359375 173.078125 L 34.261719 173.003906 L 34.164062 172.925781 L 34.078125 172.84375 L 33.996094 172.757812 L 33.917969 172.671875 L 33.847656 172.582031 L 33.78125 172.488281 L 33.722656 172.394531 L 33.667969 172.296875 L 33.621094 172.195312 L 33.542969 171.984375 L 33.507812 171.875 L 33.480469 171.765625 L 33.453125 171.652344 L 33.429688 171.539062 L 33.398438 171.304688 L 33.390625 171.1875 L 33.382812 171.066406 L 33.382812 170.824219 L 33.390625 170.707031 L 33.398438 170.59375 L 33.429688 170.367188 L 33.453125 170.257812 L 33.480469 170.148438 L 33.507812 170.042969 L 33.542969 169.9375 L 33.582031 169.832031 L 33.621094 169.730469 L 33.667969 169.628906 L 33.722656 169.535156 L 33.78125 169.4375 L 33.847656 169.347656 L 33.917969 169.257812 L 33.996094 169.171875 L 34.078125 169.085938 L 34.164062 169.003906 L 34.261719 168.925781 L 34.359375 168.851562 L 34.46875 168.777344 L 34.582031 168.707031 L 34.703125 168.644531 L 34.828125 168.578125 L 34.964844 168.519531 L 35.105469 168.464844 L 35.25 168.410156 L 35.40625 168.363281 L 35.566406 168.316406 L 35.734375 168.273438 L 35.910156 168.234375 L 36.09375 168.203125 L 36.289062 168.175781 L 36.488281 168.148438 L 36.699219 168.128906 L 36.917969 168.113281 L 37.148438 168.101562 L 37.382812 168.097656 Z M 37.628906 169.164062 L 37.4375 169.167969 L 37.25 169.171875 L 37.070312 169.175781 L 36.894531 169.183594 L 36.726562 169.195312 L 36.566406 169.207031 L 36.414062 169.222656 L 36.269531 169.242188 L 36.128906 169.261719 L 35.996094 169.28125 L 35.867188 169.308594 L 35.742188 169.335938 L 35.625 169.363281 L 35.511719 169.394531 L 35.40625 169.429688 L 35.304688 169.464844 L 35.207031 169.5 L 35.117188 169.542969 L 35.03125 169.585938 L 34.953125 169.628906 L 34.875 169.675781 L 34.804688 169.722656 L 34.738281 169.777344 L 34.675781 169.828125 L 34.617188 169.882812 L 34.515625 170 L 34.472656 170.0625 L 34.433594 170.125 L 34.371094 170.257812 L 34.339844 170.328125 L 34.316406 170.398438 L 34.296875 170.46875 L 34.277344 170.542969 L 34.261719 170.617188 L 34.25 170.695312 L 34.242188 170.777344 L 34.238281 170.859375 L 34.238281 171.03125 L 34.242188 171.117188 L 34.25 171.199219 L 34.261719 171.28125 L 34.277344 171.359375 L 34.296875 171.4375 L 34.316406 171.511719 L 34.339844 171.585938 L 34.402344 171.726562 L 34.4375 171.792969 L 34.476562 171.859375 L 34.519531 171.921875 L 34.621094 172.039062 L 34.679688 172.097656 L 34.742188 172.152344 L 34.808594 172.203125 L 34.882812 172.253906 L 34.957031 172.300781 L 35.121094 172.386719 L 35.214844 172.429688 L 35.308594 172.464844 L 35.410156 172.5 L 35.519531 172.535156 L 35.628906 172.566406 L 35.871094 172.621094 L 36 172.644531 L 36.132812 172.667969 L 36.273438 172.6875 L 36.421875 172.707031 L 36.574219 172.722656 L 36.734375 172.734375 L 36.898438 172.746094 L 37.070312 172.753906 L 37.25 172.757812 L 37.4375 172.761719 L 37.816406 172.761719 L 37.996094 172.757812 L 38.171875 172.753906 L 38.339844 172.746094 L 38.503906 172.734375 L 38.660156 172.722656 L 38.8125 172.707031 L 38.957031 172.6875 L 39.09375 172.667969 L 39.230469 172.644531 L 39.355469 172.621094 L 39.480469 172.59375 L 39.597656 172.5625 L 39.707031 172.53125 L 39.816406 172.496094 L 39.917969 172.460938 L 40.015625 172.421875 L 40.109375 172.382812 L 40.195312 172.339844 L 40.277344 172.292969 L 40.355469 172.246094 L 40.425781 172.195312 L 40.492188 172.144531 L 40.558594 172.089844 L 40.617188 172.035156 L 40.671875 171.976562 L 40.722656 171.917969 L 40.808594 171.792969 L 40.847656 171.726562 L 40.878906 171.660156 L 40.933594 171.519531 L 40.953125 171.445312 L 40.972656 171.367188 L 40.988281 171.292969 L 41 171.214844 L 41.015625 171.050781 L 41.015625 170.882812 L 41.007812 170.800781 L 41 170.722656 L 40.988281 170.644531 L 40.972656 170.570312 L 40.933594 170.421875 L 40.878906 170.28125 L 40.847656 170.214844 L 40.808594 170.148438 L 40.722656 170.023438 L 40.671875 169.964844 L 40.617188 169.90625 L 40.558594 169.851562 L 40.492188 169.800781 L 40.425781 169.746094 L 40.355469 169.699219 L 40.277344 169.652344 L 40.195312 169.605469 L 40.109375 169.5625 L 40.015625 169.523438 L 39.917969 169.484375 L 39.816406 169.445312 L 39.707031 169.410156 L 39.597656 169.378906 L 39.480469 169.347656 L 39.230469 169.292969 L 39.09375 169.269531 L 38.957031 169.25 L 38.8125 169.230469 L 38.660156 169.210938 L 38.503906 169.199219 L 38.339844 169.1875 L 38.171875 169.175781 L 37.996094 169.171875 L 37.816406 169.167969 Z M 37.628906 169.164062 "/>
<path fill-rule="nonzero" fill="rgb(0%, 0%, 0%)" fill-opacity="1" d="M 41.761719 137.691406 L 40.863281 137.691406 L 40.863281 135.585938 L 34.511719 135.585938 L 35.84375 137.449219 L 34.847656 137.449219 L 33.503906 135.5 L 33.503906 134.527344 L 40.863281 134.527344 L 40.863281 132.515625 L 41.761719 132.515625 Z M 41.761719 137.691406 "/>
<path fill-rule="nonzero" fill="rgb(0%, 0%, 0%)" fill-opacity="1" d="M 41.761719 102.308594 L 41.015625 102.308594 L 40.878906 102.246094 L 40.75 102.183594 L 40.621094 102.117188 L 40.492188 102.046875 L 40.371094 101.976562 L 40.136719 101.828125 L 40.023438 101.746094 L 39.914062 101.664062 L 39.808594 101.582031 L 39.703125 101.496094 L 39.5 101.316406 L 39.402344 101.226562 L 39.214844 101.046875 L 39.03125 100.863281 L 38.945312 100.769531 L 38.859375 100.671875 L 38.773438 100.578125 L 38.527344 100.296875 L 38.214844 99.921875 L 38.140625 99.828125 L 38.070312 99.734375 L 37.996094 99.644531 L 37.921875 99.550781 L 37.851562 99.464844 L 37.777344 99.375 L 37.707031 99.289062 L 37.558594 99.125 L 37.488281 99.046875 L 37.414062 98.96875 L 37.34375 98.890625 L 37.121094 98.679688 L 37.046875 98.617188 L 36.96875 98.554688 L 36.894531 98.496094 L 36.816406 98.4375 L 36.660156 98.335938 L 36.582031 98.289062 L 36.417969 98.203125 L 36.332031 98.167969 L 36.246094 98.140625 L 36.15625 98.113281 L 36.0625 98.09375 L 35.972656 98.074219 L 35.875 98.0625 L 35.679688 98.054688 L 35.609375 98.054688 L 35.539062 98.058594 L 35.476562 98.0625 L 35.410156 98.070312 L 35.347656 98.082031 L 35.230469 98.105469 L 35.171875 98.121094 L 35.0625 98.160156 L 35.007812 98.183594 L 34.957031 98.207031 L 34.910156 98.230469 L 34.859375 98.257812 L 34.816406 98.289062 L 34.769531 98.320312 L 34.726562 98.351562 L 34.6875 98.386719 L 34.648438 98.425781 L 34.613281 98.464844 L 34.574219 98.503906 L 34.511719 98.589844 L 34.480469 98.636719 L 34.453125 98.683594 L 34.425781 98.734375 L 34.402344 98.785156 L 34.382812 98.835938 L 34.359375 98.890625 L 34.34375 98.945312 L 34.324219 99 L 34.292969 99.117188 L 34.28125 99.175781 L 34.273438 99.238281 L 34.261719 99.296875 L 34.257812 99.363281 L 34.253906 99.425781 L 34.25 99.492188 L 34.25 99.683594 L 34.257812 99.746094 L 34.261719 99.808594 L 34.269531 99.867188 L 34.304688 100.042969 L 34.320312 100.101562 L 34.335938 100.15625 L 34.375 100.265625 L 34.445312 100.417969 L 34.472656 100.46875 L 34.503906 100.515625 L 34.53125 100.5625 L 34.671875 100.734375 L 34.714844 100.773438 L 34.753906 100.8125 L 34.796875 100.847656 L 34.890625 100.917969 L 34.9375 100.949219 L 34.988281 100.980469 L 35.089844 101.035156 L 35.144531 101.058594 L 35.203125 101.078125 L 35.257812 101.101562 L 35.320312 101.117188 L 35.378906 101.136719 L 35.441406 101.148438 L 35.507812 101.164062 L 35.574219 101.175781 L 35.644531 101.183594 L 35.542969 102.261719 L 35.453125 102.25 L 35.28125 102.21875 L 35.109375 102.171875 L 35.027344 102.148438 L 34.863281 102.085938 L 34.707031 102.015625 L 34.628906 101.976562 L 34.550781 101.933594 L 34.480469 101.886719 L 34.40625 101.835938 L 34.335938 101.785156 L 34.269531 101.730469 L 34.203125 101.671875 L 34.140625 101.613281 L 34.078125 101.546875 L 33.960938 101.414062 L 33.851562 101.265625 L 33.800781 101.1875 L 33.753906 101.109375 L 33.707031 101.027344 L 33.664062 100.941406 L 33.585938 100.761719 L 33.550781 100.667969 L 33.519531 100.570312 L 33.488281 100.46875 L 33.464844 100.367188 L 33.441406 100.261719 L 33.421875 100.152344 L 33.410156 100.039062 L 33.394531 99.921875 L 33.386719 99.804688 L 33.382812 99.683594 L 33.382812 99.4375 L 33.386719 99.320312 L 33.394531 99.203125 L 33.40625 99.089844 L 33.417969 98.980469 L 33.433594 98.871094 L 33.453125 98.765625 L 33.476562 98.660156 L 33.5 98.5625 L 33.527344 98.464844 L 33.589844 98.277344 L 33.667969 98.105469 L 33.753906 97.941406 L 33.800781 97.867188 L 33.851562 97.792969 L 33.90625 97.722656 L 33.960938 97.65625 L 34.019531 97.589844 L 34.082031 97.527344 L 34.144531 97.46875 L 34.210938 97.414062 L 34.28125 97.363281 L 34.355469 97.3125 L 34.429688 97.265625 L 34.507812 97.222656 L 34.585938 97.183594 L 34.671875 97.144531 L 34.753906 97.113281 L 34.84375 97.082031 L 34.933594 97.054688 L 35.027344 97.035156 L 35.125 97.015625 L 35.222656 97 L 35.324219 96.984375 L 35.425781 96.976562 L 35.644531 96.96875 L 35.808594 96.976562 L 35.890625 96.984375 L 36.046875 97.007812 L 36.128906 97.023438 L 36.207031 97.046875 L 36.28125 97.066406 L 36.359375 97.09375 L 36.433594 97.121094 L 36.582031 97.183594 L 36.65625 97.21875 L 36.726562 97.257812 L 36.800781 97.296875 L 36.871094 97.335938 L 36.941406 97.378906 L 37.082031 97.472656 L 37.148438 97.519531 L 37.214844 97.570312 L 37.285156 97.621094 L 37.417969 97.730469 L 37.484375 97.789062 L 37.546875 97.847656 L 37.613281 97.90625 L 37.675781 97.96875 L 37.742188 98.03125 L 37.804688 98.09375 L 37.992188 98.292969 L 38.054688 98.363281 L 38.117188 98.429688 L 38.304688 98.640625 L 38.363281 98.710938 L 38.425781 98.78125 L 38.484375 98.851562 L 38.546875 98.925781 L 38.664062 99.066406 L 38.726562 99.140625 L 38.785156 99.210938 L 38.84375 99.285156 L 38.902344 99.355469 L 38.964844 99.429688 L 39.023438 99.5 L 39.082031 99.574219 L 39.316406 99.855469 L 39.378906 99.921875 L 39.554688 100.121094 L 39.617188 100.1875 L 39.734375 100.3125 L 39.796875 100.371094 L 39.855469 100.429688 L 39.917969 100.488281 L 39.976562 100.542969 L 40.101562 100.652344 L 40.226562 100.753906 L 40.285156 100.804688 L 40.410156 100.898438 L 40.472656 100.9375 L 40.535156 100.980469 L 40.601562 101.019531 L 40.664062 101.054688 L 40.863281 101.148438 L 40.863281 96.839844 L 41.761719 96.839844 Z M 41.761719 102.308594 "/>
<path fill-rule="nonzero" fill="rgb(0%, 0%, 0%)" fill-opacity="1" d="M 39.480469 61.070312 L 39.59375 61.074219 L 39.703125 61.078125 L 39.8125 61.089844 L 39.914062 61.101562 L 40.019531 61.117188 L 40.214844 61.164062 L 40.3125 61.191406 L 40.402344 61.222656 L 40.496094 61.257812 L 40.582031 61.296875 L 40.667969 61.339844 L 40.75 61.382812 L 40.90625 61.484375 L 40.980469 61.539062 L 41.121094 61.664062 L 41.1875 61.730469 L 41.25 61.796875 L 41.367188 61.945312 L 41.421875 62.023438 L 41.472656 62.109375 L 41.519531 62.195312 L 41.566406 62.285156 L 41.609375 62.375 L 41.648438 62.472656 L 41.71875 62.675781 L 41.75 62.78125 L 41.777344 62.890625 L 41.800781 63.003906 L 41.820312 63.117188 L 41.851562 63.359375 L 41.863281 63.480469 L 41.871094 63.609375 L 41.875 63.738281 L 41.878906 63.871094 L 41.875 64.023438 L 41.871094 64.171875 L 41.859375 64.3125 L 41.847656 64.449219 L 41.832031 64.582031 L 41.808594 64.707031 L 41.785156 64.828125 L 41.757812 64.945312 L 41.726562 65.058594 L 41.691406 65.167969 L 41.648438 65.269531 L 41.609375 65.367188 L 41.5625 65.464844 L 41.46875 65.644531 L 41.414062 65.726562 L 41.363281 65.808594 L 41.304688 65.886719 L 41.246094 65.960938 L 41.1875 66.027344 L 41.121094 66.09375 L 40.988281 66.21875 L 40.847656 66.328125 L 40.777344 66.375 L 40.703125 66.421875 L 40.628906 66.464844 L 40.550781 66.503906 L 40.472656 66.539062 L 40.308594 66.601562 L 40.144531 66.65625 L 40.0625 66.679688 L 39.976562 66.699219 L 39.894531 66.71875 L 39.722656 66.75 L 39.640625 66.761719 L 39.539062 65.671875 L 39.605469 65.660156 L 39.730469 65.636719 L 39.792969 65.621094 L 39.851562 65.605469 L 39.910156 65.585938 L 39.96875 65.570312 L 40.027344 65.546875 L 40.191406 65.476562 L 40.242188 65.445312 L 40.292969 65.417969 L 40.339844 65.382812 L 40.386719 65.351562 L 40.433594 65.316406 L 40.519531 65.238281 L 40.601562 65.15625 L 40.636719 65.113281 L 40.671875 65.066406 L 40.742188 64.964844 L 40.769531 64.914062 L 40.800781 64.859375 L 40.828125 64.804688 L 40.851562 64.746094 L 40.898438 64.621094 L 40.917969 64.558594 L 40.9375 64.492188 L 40.953125 64.421875 L 40.964844 64.351562 L 40.976562 64.277344 L 40.988281 64.199219 L 40.996094 64.121094 L 41 64.042969 L 41.003906 63.957031 L 41.003906 63.871094 L 41 63.714844 L 40.988281 63.566406 L 40.96875 63.425781 L 40.941406 63.289062 L 40.90625 63.164062 L 40.863281 63.039062 L 40.8125 62.925781 L 40.753906 62.820312 L 40.6875 62.71875 L 40.613281 62.625 L 40.527344 62.539062 L 40.4375 62.460938 L 40.339844 62.390625 L 40.238281 62.332031 L 40.125 62.28125 L 40.003906 62.242188 L 39.875 62.207031 L 39.738281 62.1875 L 39.597656 62.171875 L 39.445312 62.167969 L 39.355469 62.167969 L 39.269531 62.175781 L 39.1875 62.1875 L 39.109375 62.199219 L 39.035156 62.21875 L 38.960938 62.242188 L 38.894531 62.269531 L 38.832031 62.296875 L 38.769531 62.332031 L 38.714844 62.371094 L 38.65625 62.414062 L 38.554688 62.5 L 38.507812 62.546875 L 38.421875 62.648438 L 38.34375 62.757812 L 38.28125 62.875 L 38.21875 63 L 38.195312 63.0625 L 38.167969 63.125 L 38.109375 63.324219 L 38.09375 63.390625 L 38.058594 63.601562 L 38.050781 63.671875 L 38.027344 63.871094 L 38.023438 63.9375 L 38.019531 64 L 38.019531 64.0625 L 38.015625 64.121094 L 38.015625 64.78125 L 37.101562 64.78125 L 37.101562 64.148438 L 37.097656 64.085938 L 37.097656 64.023438 L 37.09375 63.964844 L 37.085938 63.902344 L 37.082031 63.839844 L 37.074219 63.777344 L 37.0625 63.714844 L 37.054688 63.648438 L 37.03125 63.523438 L 37.011719 63.457031 L 36.996094 63.398438 L 36.976562 63.335938 L 36.957031 63.277344 L 36.933594 63.21875 L 36.90625 63.164062 L 36.878906 63.105469 L 36.851562 63.054688 L 36.820312 63 L 36.785156 62.945312 L 36.75 62.894531 L 36.671875 62.800781 L 36.628906 62.753906 L 36.582031 62.710938 L 36.488281 62.632812 L 36.433594 62.59375 L 36.382812 62.558594 L 36.265625 62.496094 L 36.203125 62.46875 L 36.136719 62.449219 L 36.066406 62.429688 L 35.996094 62.414062 L 35.921875 62.398438 L 35.84375 62.390625 L 35.679688 62.382812 L 35.546875 62.386719 L 35.425781 62.398438 L 35.304688 62.417969 L 35.191406 62.445312 L 35.085938 62.484375 L 34.984375 62.527344 L 34.890625 62.578125 L 34.796875 62.636719 L 34.714844 62.703125 L 34.636719 62.777344 L 34.5625 62.859375 L 34.496094 62.945312 L 34.4375 63.042969 L 34.386719 63.148438 L 34.34375 63.257812 L 34.308594 63.378906 L 34.28125 63.503906 L 34.265625 63.640625 L 34.253906 63.78125 L 34.25 63.929688 L 34.25 64.066406 L 34.261719 64.199219 L 34.28125 64.324219 L 34.304688 64.445312 L 34.335938 64.5625 L 34.375 64.671875 L 34.421875 64.777344 L 34.476562 64.878906 L 34.539062 64.972656 L 34.605469 65.0625 L 34.679688 65.144531 L 34.761719 65.21875 L 34.847656 65.285156 L 34.9375 65.347656 L 35.035156 65.402344 L 35.140625 65.445312 L 35.25 65.484375 L 35.363281 65.519531 L 35.488281 65.542969 L 35.613281 65.558594 L 35.53125 66.621094 L 35.320312 66.589844 L 35.117188 66.542969 L 35.023438 66.515625 L 34.835938 66.445312 L 34.75 66.410156 L 34.664062 66.367188 L 34.582031 66.320312 L 34.503906 66.273438 L 34.425781 66.222656 L 34.351562 66.171875 L 34.28125 66.113281 L 34.214844 66.058594 L 34.148438 65.996094 L 34.085938 65.933594 L 34.023438 65.867188 L 33.96875 65.800781 L 33.914062 65.730469 L 33.8125 65.582031 L 33.765625 65.503906 L 33.722656 65.421875 L 33.679688 65.34375 L 33.640625 65.257812 L 33.605469 65.171875 L 33.574219 65.085938 L 33.542969 64.996094 L 33.515625 64.902344 L 33.492188 64.8125 L 33.46875 64.714844 L 33.445312 64.621094 L 33.414062 64.425781 L 33.402344 64.328125 L 33.386719 64.125 L 33.382812 64.023438 L 33.382812 63.78125 L 33.386719 63.652344 L 33.398438 63.523438 L 33.410156 63.398438 L 33.425781 63.277344 L 33.445312 63.160156 L 33.46875 63.046875 L 33.492188 62.9375 L 33.523438 62.832031 L 33.558594 62.730469 L 33.59375 62.632812 L 33.628906 62.539062 L 33.714844 62.359375 L 33.757812 62.277344 L 33.859375 62.121094 L 33.910156 62.050781 L 33.96875 61.980469 L 34.027344 61.914062 L 34.085938 61.855469 L 34.148438 61.796875 L 34.210938 61.742188 L 34.34375 61.640625 L 34.414062 61.597656 L 34.488281 61.554688 L 34.636719 61.484375 L 34.71875 61.453125 L 34.796875 61.421875 L 34.960938 61.375 L 35.042969 61.355469 L 35.214844 61.324219 L 35.300781 61.3125 L 35.386719 61.304688 L 35.476562 61.300781 L 35.640625 61.300781 L 35.78125 61.308594 L 35.851562 61.316406 L 35.917969 61.324219 L 36.050781 61.347656 L 36.117188 61.363281 L 36.183594 61.382812 L 36.246094 61.398438 L 36.371094 61.445312 L 36.429688 61.46875 L 36.488281 61.496094 L 36.546875 61.527344 L 36.601562 61.558594 L 36.710938 61.628906 L 36.761719 61.667969 L 36.816406 61.710938 L 36.863281 61.753906 L 36.914062 61.800781 L 36.960938 61.847656 L 37.003906 61.898438 L 37.050781 61.949219 L 37.089844 62.003906 L 37.132812 62.0625 L 37.171875 62.121094 L 37.210938 62.183594 L 37.25 62.25 L 37.285156 62.316406 L 37.316406 62.382812 L 37.347656 62.453125 L 37.378906 62.527344 L 37.433594 62.683594 L 37.460938 62.765625 L 37.484375 62.851562 L 37.503906 62.9375 L 37.523438 63.027344 L 37.546875 63.027344 L 37.558594 62.929688 L 37.589844 62.742188 L 37.628906 62.5625 L 37.65625 62.476562 L 37.679688 62.394531 L 37.710938 62.3125 L 37.742188 62.238281 L 37.777344 62.160156 L 37.808594 62.089844 L 37.847656 62.019531 L 37.925781 61.886719 L 37.96875 61.824219 L 38.054688 61.707031 L 38.105469 61.652344 L 38.152344 61.601562 L 38.203125 61.550781 L 38.253906 61.503906 L 38.363281 61.417969 L 38.421875 61.378906 L 38.539062 61.308594 L 38.597656 61.277344 L 38.660156 61.246094 L 38.722656 61.21875 L 38.855469 61.171875 L 38.988281 61.132812 L 39.058594 61.117188 L 39.125 61.101562 L 39.195312 61.089844 L 39.265625 61.082031 L 39.335938 61.078125 L 39.410156 61.074219 Z M 39.480469 61.070312 "/>
<path fill-rule="nonzero" fill="rgb(0%, 0%, 0%)" fill-opacity="1" d="M 376.09375 341.28125 L 374.386719 338.679688 L 372.671875 341.28125 L 371.535156 341.28125 L 373.789062 338.023438 L 371.640625 334.941406 L 372.804688 334.941406 L 374.386719 337.40625 L 375.957031 334.941406 L 377.136719 334.941406 L 374.984375 338.011719 L 377.269531 341.28125 Z M 376.09375 341.28125 "/>
<path fill-rule="nonzero" fill="rgb(0%, 0%, 0%)" fill-opacity="1" d="M 12.960938 172.261719 L 13.074219 172.304688 L 13.183594 172.351562 L 13.292969 172.394531 L 13.402344 172.441406 L 13.503906 172.488281 L 13.605469 172.53125 L 13.707031 172.578125 L 13.804688 172.625 L 13.992188 172.71875 L 14.171875 172.8125 L 14.257812 172.859375 L 14.339844 172.910156 L 14.496094 173.011719 L 14.570312 173.066406 L 14.710938 173.175781 L 14.777344 173.234375 L 14.902344 173.351562 L 14.960938 173.410156 L 15.011719 173.472656 L 15.066406 173.535156 L 15.160156 173.667969 L 15.238281 173.800781 L 15.273438 173.871094 L 15.308594 173.945312 L 15.335938 174.015625 L 15.363281 174.09375 L 15.386719 174.171875 L 15.40625 174.25 L 15.421875 174.332031 L 15.433594 174.417969 L 15.449219 174.589844 L 15.449219 174.871094 L 15.445312 174.910156 L 15.445312 174.945312 L 15.441406 174.980469 L 15.441406 175.015625 L 15.4375 175.050781 L 15.4375 175.085938 L 15.433594 175.117188 L 15.425781 175.1875 L 15.417969 175.222656 L 15.414062 175.261719 L 15.40625 175.296875 L 15.402344 175.332031 L 15.394531 175.371094 L 15.386719 175.40625 L 14.59375 175.40625 L 14.597656 175.386719 L 14.605469 175.339844 L 14.605469 175.3125 L 14.609375 175.289062 L 14.613281 175.261719 L 14.613281 175.238281 L 14.617188 175.210938 L 14.617188 175.15625 L 14.621094 175.128906 L 14.621094 175.101562 L 14.625 175.074219 L 14.625 175.050781 L 14.628906 175.023438 L 14.628906 174.914062 L 14.625 174.824219 L 14.617188 174.734375 L 14.597656 174.644531 L 14.574219 174.554688 L 14.542969 174.46875 L 14.503906 174.382812 L 14.460938 174.296875 L 14.410156 174.214844 L 14.351562 174.132812 L 14.285156 174.054688 L 14.210938 173.976562 L 14.128906 173.898438 L 14.039062 173.824219 L 13.941406 173.75 L 13.835938 173.679688 L 13.722656 173.613281 L 13.597656 173.542969 L 13.46875 173.480469 L 13.328125 173.417969 L 13.183594 173.355469 L 12.929688 173.257812 L 6.621094 175.769531 L 6.621094 174.644531 L 10.125 173.308594 L 10.15625 173.296875 L 10.226562 173.273438 L 10.265625 173.257812 L 10.308594 173.242188 L 10.351562 173.230469 L 10.398438 173.214844 L 10.445312 173.195312 L 10.546875 173.164062 L 10.597656 173.144531 L 10.652344 173.125 L 10.703125 173.109375 L 10.757812 173.089844 L 10.808594 173.070312 L 10.863281 173.054688 L 10.914062 173.035156 L 10.96875 173.015625 L 11.019531 173 L 11.074219 172.980469 L 11.125 172.964844 L 11.226562 172.925781 L 11.277344 172.910156 L 11.417969 172.863281 L 11.546875 172.816406 L 11.589844 172.804688 L 11.660156 172.78125 L 11.691406 172.769531 L 11.71875 172.761719 L 11.765625 172.746094 L 11.785156 172.742188 L 11.800781 172.738281 L 11.8125 172.734375 L 11.78125 172.726562 L 11.761719 172.722656 L 11.742188 172.714844 L 11.714844 172.707031 L 11.691406 172.699219 L 11.597656 172.664062 L 11.519531 172.640625 L 11.441406 172.609375 L 11.398438 172.59375 L 11.355469 172.582031 L 11.269531 172.550781 L 11.222656 172.535156 L 11.179688 172.515625 L 11.085938 172.484375 L 11.039062 172.464844 L 10.992188 172.449219 L 10.945312 172.429688 L 10.894531 172.414062 L 10.847656 172.394531 L 10.800781 172.378906 L 10.753906 172.359375 L 10.707031 172.34375 L 10.65625 172.324219 L 10.5625 172.292969 L 10.519531 172.273438 L 10.476562 172.257812 L 10.433594 172.246094 L 10.390625 172.230469 L 10.351562 172.214844 L 10.3125 172.203125 L 10.242188 172.179688 L 6.621094 170.9375 L 6.621094 169.824219 Z M 12.960938 172.261719 "/>
<path fill="none" stroke-width="0.75" stroke-linecap="round" stroke-linejoin="round" stroke="rgb(0%, 0%, 0%)" stroke-opacity="1" stroke-miterlimit="10" d="M 59.039062 286.558594 L 689.761719 286.558594 L 689.761719 59.039062 L 59.039062 59.039062 Z M 59.039062 286.558594 "/>
</svg>
